<svg xmlns:xlink="http://www.w3.org/1999/xlink" version="1.1" class="highcharts-root" style="font-family: &quot;Lucida Grande&quot;, &quot;Lucida Sans Unicode&quot;, Arial, Helvetica, sans-serif; font-size: 12px;" xmlns="http://www.w3.org/2000/svg" width="720" height="480" viewBox="0 0 720 480" role="img" aria-label="Chart 5. Unemployment rates by race and Hispanic or Latino ethnicity, 1973–2022 annual averages"><desc>Created with Highcharts 10.3.3</desc><defs><clipPath id="highcharts-ew63wnn-274-"><rect x="0" y="0" width="620" height="270" fill="none"></rect></clipPath><clipPath id="highcharts-ew63wnn-325-"><rect x="0" y="0" width="620" height="270" fill="none"></rect></clipPath></defs><rect fill="#fff" class="highcharts-background" x="0" y="0" width="720" height="480" rx="0" ry="0"></rect><rect fill="none" class="highcharts-plot-background" x="60" y="100" width="620" height="270"></rect><g class="highcharts-pane-group" data-z-index="0"></g><g class="highcharts-plot-lines-0" data-z-index="0"><path fill="none" class="highcharts-plot-line " stroke="#c0c0c0" stroke-width="0" stroke-dasharray="none" d="M 65.5 100 L 65.5 370"></path></g><g class="highcharts-plot-lines-0" data-z-index="0"><path fill="none" class="highcharts-plot-line " stroke="#000" stroke-width="1" stroke-dasharray="none" d="M 60 370.5 L 680 370.5"></path></g><g class="highcharts-grid highcharts-xaxis-grid" data-z-index="1"><path fill="none" stroke="#c0c0c0" stroke-width="0" stroke-dasharray="0,0" data-z-index="1" class="highcharts-grid-line" d="M 65.5 100 L 65.5 370" opacity="1"></path><path fill="none" stroke="#c0c0c0" stroke-width="0" stroke-dasharray="0,0" data-z-index="1" class="highcharts-grid-line" d="M 152.5 100 L 152.5 370" opacity="1"></path><path fill="none" stroke="#c0c0c0" stroke-width="0" stroke-dasharray="0,0" data-z-index="1" class="highcharts-grid-line" d="M 239.5 100 L 239.5 370" opacity="1"></path><path fill="none" stroke="#c0c0c0" stroke-width="0" stroke-dasharray="0,0" data-z-index="1" class="highcharts-grid-line" d="M 326.5 100 L 326.5 370" opacity="1"></path><path fill="none" stroke="#c0c0c0" stroke-width="0" stroke-dasharray="0,0" data-z-index="1" class="highcharts-grid-line" d="M 412.5 100 L 412.5 370" opacity="1"></path><path fill="none" stroke="#c0c0c0" stroke-width="0" stroke-dasharray="0,0" data-z-index="1" class="highcharts-grid-line" d="M 499.5 100 L 499.5 370" opacity="1"></path><path fill="none" stroke="#c0c0c0" stroke-width="0" stroke-dasharray="0,0" data-z-index="1" class="highcharts-grid-line" d="M 586.5 100 L 586.5 370" opacity="1"></path><path fill="none" stroke="#c0c0c0" stroke-width="0" stroke-dasharray="0,0" data-z-index="1" class="highcharts-grid-line" d="M 673.5 100 L 673.5 370" opacity="1"></path></g><g class="highcharts-grid highcharts-yaxis-grid" data-z-index="1"><path fill="none" stroke="#c0c0c0" stroke-width="1" stroke-dasharray="1,3" data-z-index="1" class="highcharts-grid-line" d="M 60 370.5 L 680 370.5" opacity="1"></path><path fill="none" stroke="#c0c0c0" stroke-width="1" stroke-dasharray="1,3" data-z-index="1" class="highcharts-grid-line" d="M 60 343.5 L 680 343.5" opacity="1"></path><path fill="none" stroke="#c0c0c0" stroke-width="1" stroke-dasharray="1,3" data-z-index="1" class="highcharts-grid-line" d="M 60 316.5 L 680 316.5" opacity="1"></path><path fill="none" stroke="#c0c0c0" stroke-width="1" stroke-dasharray="1,3" data-z-index="1" class="highcharts-grid-line" d="M 60 289.5 L 680 289.5" opacity="1"></path><path fill="none" stroke="#c0c0c0" stroke-width="1" stroke-dasharray="1,3" data-z-index="1" class="highcharts-grid-line" d="M 60 262.5 L 680 262.5" opacity="1"></path><path fill="none" stroke="#c0c0c0" stroke-width="1" stroke-dasharray="1,3" data-z-index="1" class="highcharts-grid-line" d="M 60 235.5 L 680 235.5" opacity="1"></path><path fill="none" stroke="#c0c0c0" stroke-width="1" stroke-dasharray="1,3" data-z-index="1" class="highcharts-grid-line" d="M 60 208.5 L 680 208.5" opacity="1"></path><path fill="none" stroke="#c0c0c0" stroke-width="1" stroke-dasharray="1,3" data-z-index="1" class="highcharts-grid-line" d="M 60 181.5 L 680 181.5" opacity="1"></path><path fill="none" stroke="#c0c0c0" stroke-width="1" stroke-dasharray="1,3" data-z-index="1" class="highcharts-grid-line" d="M 60 154.5 L 680 154.5" opacity="1"></path><path fill="none" stroke="#c0c0c0" stroke-width="1" stroke-dasharray="1,3" data-z-index="1" class="highcharts-grid-line" d="M 60 127.5 L 680 127.5" opacity="1"></path><path fill="none" stroke="#c0c0c0" stroke-width="1" stroke-dasharray="1,3" data-z-index="1" class="highcharts-grid-line" d="M 60 99.5 L 680 99.5" opacity="1"></path></g><rect fill="none" class="highcharts-plot-border" data-z-index="1" stroke="#000" stroke-width="0" x="60" y="100" width="620" height="270"></rect><g class="highcharts-axis highcharts-xaxis" data-z-index="2"><path fill="none" class="highcharts-axis-line" stroke="gray" stroke-width="1.2" data-z-index="7" d="M 60 370.6 L 680 370.6"></path></g><g class="highcharts-axis highcharts-yaxis" data-z-index="2"><path fill="none" class="highcharts-tick" stroke="#C0D0E0" stroke-width="1" d="M 60 370.5 L 50 370.5" opacity="1"></path><path fill="none" class="highcharts-tick" stroke="#C0D0E0" stroke-width="1" d="M 60 343.5 L 50 343.5" opacity="1"></path><path fill="none" class="highcharts-tick" stroke="#C0D0E0" stroke-width="1" d="M 60 316.5 L 50 316.5" opacity="1"></path><path fill="none" class="highcharts-tick" stroke="#C0D0E0" stroke-width="1" d="M 60 289.5 L 50 289.5" opacity="1"></path><path fill="none" class="highcharts-tick" stroke="#C0D0E0" stroke-width="1" d="M 60 262.5 L 50 262.5" opacity="1"></path><path fill="none" class="highcharts-tick" stroke="#C0D0E0" stroke-width="1" d="M 60 235.5 L 50 235.5" opacity="1"></path><path fill="none" class="highcharts-tick" stroke="#C0D0E0" stroke-width="1" d="M 60 208.5 L 50 208.5" opacity="1"></path><path fill="none" class="highcharts-tick" stroke="#C0D0E0" stroke-width="1" d="M 60 181.5 L 50 181.5" opacity="1"></path><path fill="none" class="highcharts-tick" stroke="#C0D0E0" stroke-width="1" d="M 60 154.5 L 50 154.5" opacity="1"></path><path fill="none" class="highcharts-tick" stroke="#C0D0E0" stroke-width="1" d="M 60 127.5 L 50 127.5" opacity="1"></path><path fill="none" class="highcharts-tick" stroke="#C0D0E0" stroke-width="1" d="M 60 99.5 L 50 99.5" opacity="1"></path><text x="75" data-z-index="7" text-anchor="end" transform="translate(0,0)" class="highcharts-axis-title" style="color: rgb(0, 0, 0); font-family: Calibri, Arial, Helvetica, sans-serif; font-weight: normal; font-size: 13px; fill: rgb(0, 0, 0);" y="80">Percent</text><path fill="none" class="highcharts-axis-line" stroke="gray" stroke-width="1" data-z-index="7" d="M 59.5 100 L 59.5 370"></path></g><g class="highcharts-series-group" data-z-index="3"><g class="highcharts-series highcharts-series-0 highcharts-line-series" data-z-index="0.1" opacity="1" transform="translate(60,100) scale(1 1)" clip-path="url(#highcharts-ew63wnn-325-)"><path fill="none" d="M 6.2 143.1 L 18.6 128.25 L 31 70.19999999999999 L 43.4 81 L 55.8 81 L 68.2 97.19999999999999 L 80.6 103.94999999999999 L 93 76.94999999999999 L 105.4 59.400000000000006 L 117.8 14.849999999999994 L 130.2 6.75 L 142.6 55.349999999999994 L 155 66.15 L 167.4 74.25 L 179.8 94.5 L 192.2 112.05000000000001 L 204.6 116.1 L 217 116.1 L 229.4 101.25 L 241.8 78.30000000000001 L 254.2 94.5 L 266.6 114.75 L 279 129.6 L 291.4 128.25 L 303.8 135 L 316.2 149.85 L 328.6 162 L 341 167.4 L 353.4 153.9 L 365.8 132.3 L 378.2 124.19999999999999 L 390.6 129.6 L 403 135 L 415.4 149.85 L 427.8 157.95 L 440.2 133.65 L 452.6 70.19999999999999 L 465 54 L 477.4 56.69999999999999 L 489.8 83.69999999999999 L 502.2 93.15 L 514.6 117.44999999999999 L 527 140.4 L 539.4 156.6 L 551.8 168.75 L 564.2 182.25 L 576.6 187.65 L 589 116.1 L 601.4 153.9 L 613.8 187.65" class="highcharts-graph" data-z-index="1" stroke="rgb(190, 190, 190)" stroke-width="1.5" stroke-linejoin="round" stroke-linecap="round"></path></g><g class="highcharts-markers highcharts-series-0 highcharts-line-series" data-z-index="0.1" opacity="1" transform="translate(60,100) scale(1 1)" clip-path="none"></g><g class="highcharts-series highcharts-series-1 highcharts-line-series" data-z-index="0.1" opacity="1" transform="translate(60,100) scale(1 1)" clip-path="url(#highcharts-ew63wnn-325-)"><path fill="none" d="M 6.2 211.95 L 18.6 202.5 L 31 164.7 L 43.4 175.5 L 55.8 186.3 L 68.2 199.8 L 80.6 201.15 L 93 184.95 L 105.4 179.55 L 117.8 153.9 L 130.2 156.6 L 142.6 182.25 L 155 186.3 L 167.4 189 L 179.8 198.45 L 192.2 206.55 L 204.6 209.25 L 217 205.2 L 229.4 187.65 L 241.8 180.9 L 254.2 187.65 L 266.6 198.45 L 279 203.85 L 291.4 206.55 L 303.8 213.3 L 316.2 217.35 L 328.6 220.05 L 341 222.75 L 353.4 213.3 L 365.8 201.15 L 378.2 199.8 L 390.6 205.2 L 403 210.6 L 415.4 216 L 427.8 214.65 L 440.2 199.8 L 452.6 155.25 L 465 152.55 L 477.4 163.35 L 489.8 172.8 L 502.2 182.25 L 514.6 198.45 L 527 207.9 L 539.4 211.95 L 551.8 218.7 L 564.2 222.75 L 576.6 225.45 L 589 171.45 L 601.4 206.55 L 613.8 226.8" class="highcharts-graph" data-z-index="1" stroke="rgb(221, 177, 57)" stroke-width="1.5" stroke-linejoin="round" stroke-linecap="round"></path></g><g class="highcharts-markers highcharts-series-1 highcharts-line-series" data-z-index="0.1" opacity="1" transform="translate(60,100) scale(1 1)" clip-path="none"></g><g class="highcharts-series highcharts-series-2 highcharts-line-series" data-z-index="0.1" opacity="1" transform="translate(60,100) scale(1 1)" clip-path="url(#highcharts-ew63wnn-325-)"><path fill="none" d="M 6.2 168.75 L 18.6 160.65 L 31 105.30000000000001 L 43.4 114.75 L 55.8 133.65 L 68.2 147.15 L 80.6 157.95 L 93 133.65 L 105.4 129.6 L 117.8 83.69999999999999 L 130.2 85.05000000000001 L 142.6 125.55000000000001 L 155 128.25 L 167.4 126.9 L 179.8 151.2 L 192.2 159.3 L 204.6 162 L 217 159.3 L 229.4 135 L 241.8 113.4 L 254.2 124.19999999999999 L 266.6 136.35 L 279 144.45 L 291.4 149.85 L 303.8 166.05 L 316.2 172.8 L 328.6 183.6 L 341 193.05 L 353.4 180.9 L 365.8 168.75 L 378.2 166.05 L 390.6 175.5 L 403 189 L 415.4 199.8 L 427.8 194.4 L 440.2 167.4 L 452.6 106.65 L 465 101.25 L 477.4 114.75 L 489.8 130.95 L 502.2 147.15 L 514.6 170.1 L 527 180.9 L 539.4 191.7 L 551.8 201.15 L 564.2 206.55 L 576.6 211.95 L 589 129.6 L 601.4 178.2 L 613.8 211.95" class="highcharts-graph" data-z-index="1" stroke="rgb(210, 35, 42)" stroke-width="1.5" stroke-linejoin="round" stroke-linecap="round"></path></g><g class="highcharts-markers highcharts-series-2 highcharts-line-series" data-z-index="0.1" opacity="1" transform="translate(60,100) scale(1 1)" clip-path="none"></g><g class="highcharts-series highcharts-series-3 highcharts-line-series" data-z-index="0.1" opacity="1" transform="translate(60,100) scale(1 1)" clip-path="url(#highcharts-ew63wnn-325-)"><path fill="none" d="M 341 221.4 L 353.4 209.25 L 365.8 190.35 L 378.2 189 L 390.6 210.6 L 403 216 L 415.4 229.5 L 427.8 226.8 L 440.2 216 L 452.6 171.45 L 465 168.75 L 477.4 175.5 L 489.8 190.35 L 502.2 199.8 L 514.6 202.5 L 527 218.7 L 539.4 221.4 L 551.8 224.1 L 564.2 229.5 L 576.6 233.55 L 589 152.55 L 601.4 202.5 L 613.8 232.2" class="highcharts-graph" data-z-index="1" stroke="rgb(175, 210, 255)" stroke-width="1.5" stroke-linejoin="round" stroke-linecap="round"></path></g><g class="highcharts-markers highcharts-series-3 highcharts-line-series" data-z-index="0.1" opacity="1" transform="translate(60,100) scale(1 1)" clip-path="none"></g></g><g class="highcharts-exporting-group" data-z-index="3"><g class="highcharts-no-tooltip highcharts-button highcharts-contextbutton" stroke-linecap="round" style="cursor: pointer;" transform="translate(685,455)"><title>Download chart image</title><rect fill="#ffffff" class="highcharts-button-box" x="0.5" y="0.5" width="24" height="24" rx="2" ry="2" stroke="none" stroke-width="1"></rect><path fill="#666666" d="M 12 2 L 14 2 L 14 9 L 18 9 L 13 14 L 8 9 L 12 9 z M 3 16.9 L 3 21 L 22 21 L 22 17 L 22 17 L 22 21 L 3 21 L 3 16.9 z" class="highcharts-button-symbol" data-z-index="1" stroke="#666666" stroke-width="2"></path><text x="0" data-z-index="1" y="16.5" style="color: rgb(51, 51, 51); font-weight: normal; fill: rgb(51, 51, 51);"></text></g></g><text x="10" text-anchor="start" class="highcharts-title" data-z-index="4" style="color: rgb(0, 0, 0); font-size: 14px; font-family: arial; font-weight: bold; fill: rgb(0, 0, 0);" y="21">Chart 5. Unemployment rates by race and Hispanic or Latino ethnicity, 1973–2022 annual averages</text><text x="10" text-anchor="start" class="highcharts-subtitle" data-z-index="4" style="color: rgb(0, 0, 0); font-family: arial; font-weight: normal; font-size: 12px; fill: rgb(0, 0, 0);" y="40"></text><text x="10" text-anchor="start" class="highcharts-caption" data-z-index="4" style="color: rgb(102, 102, 102); fill: rgb(102, 102, 102);" y="477"></text><g class="highcharts-legend highcharts-no-tooltip" data-z-index="7" transform="translate(170,50)"><rect fill="none" class="highcharts-legend-box" rx="0" ry="0" stroke="none" stroke-width="0" x="0" y="0" width="528" height="26"></rect><g data-z-index="1"><g><g class="highcharts-legend-item highcharts-line-series highcharts-color-undefined highcharts-series-0" data-z-index="1" transform="translate(8,3)"><path fill="none" class="highcharts-graph" stroke-width="1.5" stroke-linecap="round" d="M 0.75 11 L 15.25 11" stroke="rgb(190, 190, 190)"></path><text x="21" text-anchor="start" data-z-index="2" y="15" style="color: rgb(0, 0, 0); cursor: pointer; font-size: 12px; font-weight: bold; font-family: Calibri, Arial, Helvetica, sans-serif; fill: rgb(0, 0, 0);">Black or African American</text></g><g class="highcharts-legend-item highcharts-line-series highcharts-color-undefined highcharts-series-1" data-z-index="1" transform="translate(177.4375,3)"><path fill="none" class="highcharts-graph" stroke-width="1.5" stroke-linecap="round" d="M 0.75 11 L 15.25 11" stroke="rgb(221, 177, 57)"></path><text x="21" y="15" text-anchor="start" data-z-index="2" style="color: rgb(0, 0, 0); cursor: pointer; font-size: 12px; font-weight: bold; font-family: Calibri, Arial, Helvetica, sans-serif; fill: rgb(0, 0, 0);">White</text></g><g class="highcharts-legend-item highcharts-line-series highcharts-color-undefined highcharts-series-2" data-z-index="1" transform="translate(248.765625,3)"><path fill="none" class="highcharts-graph" stroke-width="1.5" stroke-linecap="round" d="M 0.75 11 L 15.25 11" stroke="rgb(210, 35, 42)"></path><text x="21" y="15" text-anchor="start" data-z-index="2" style="color: rgb(0, 0, 0); cursor: pointer; font-size: 12px; font-weight: bold; font-family: Calibri, Arial, Helvetica, sans-serif; fill: rgb(0, 0, 0);">Hispanic or Latino</text></g><g class="highcharts-legend-item highcharts-line-series highcharts-color-undefined highcharts-series-3" data-z-index="1" transform="translate(379.3359375,3)"><path fill="none" class="highcharts-graph" stroke-width="1.5" stroke-linecap="round" d="M 0.75 11 L 15.25 11" stroke="rgb(175, 210, 255)"></path><text x="21" y="15" text-anchor="start" data-z-index="2" style="color: rgb(0, 0, 0); cursor: pointer; font-size: 12px; font-weight: bold; font-family: Calibri, Arial, Helvetica, sans-serif; fill: rgb(0, 0, 0);">Asian</text></g></g></g></g><g class="highcharts-axis-labels highcharts-xaxis-labels" data-z-index="7"><text x="66.2" style="color: rgb(0, 0, 0); cursor: default; font-size: 12px; font-family: Calibri, Arial, Helvetica, sans-serif; font-weight: normal; background-color: rgb(255, 255, 255); fill: rgb(0, 0, 0);" text-anchor="middle" transform="translate(0,0)" y="390" opacity="1">1973</text><text x="153" text-anchor="middle" transform="translate(0,0)" style="color: rgb(0, 0, 0); cursor: default; font-size: 12px; font-family: Calibri, Arial, Helvetica, sans-serif; font-weight: normal; background-color: rgb(255, 255, 255); fill: rgb(0, 0, 0);" y="390" opacity="1">1980</text><text x="239.8" text-anchor="middle" transform="translate(0,0)" style="color: rgb(0, 0, 0); cursor: default; font-size: 12px; font-family: Calibri, Arial, Helvetica, sans-serif; font-weight: normal; background-color: rgb(255, 255, 255); fill: rgb(0, 0, 0);" y="390" opacity="1">1987</text><text x="326.6" text-anchor="middle" transform="translate(0,0)" style="color: rgb(0, 0, 0); cursor: default; font-size: 12px; font-family: Calibri, Arial, Helvetica, sans-serif; font-weight: normal; background-color: rgb(255, 255, 255); fill: rgb(0, 0, 0);" y="390" opacity="1">1994</text><text x="413.4" text-anchor="middle" transform="translate(0,0)" style="color: rgb(0, 0, 0); cursor: default; font-size: 12px; font-family: Calibri, Arial, Helvetica, sans-serif; font-weight: normal; background-color: rgb(255, 255, 255); fill: rgb(0, 0, 0);" y="390" opacity="1">2001</text><text x="500.2" text-anchor="middle" transform="translate(0,0)" style="color: rgb(0, 0, 0); cursor: default; font-size: 12px; font-family: Calibri, Arial, Helvetica, sans-serif; font-weight: normal; background-color: rgb(255, 255, 255); fill: rgb(0, 0, 0);" y="390" opacity="1">2008</text><text x="587" text-anchor="middle" transform="translate(0,0)" style="color: rgb(0, 0, 0); cursor: default; font-size: 12px; font-family: Calibri, Arial, Helvetica, sans-serif; font-weight: normal; background-color: rgb(255, 255, 255); fill: rgb(0, 0, 0);" y="390" opacity="1">2015</text><text x="673.8" text-anchor="middle" transform="translate(0,0)" style="color: rgb(0, 0, 0); cursor: default; font-size: 12px; font-family: Calibri, Arial, Helvetica, sans-serif; font-weight: normal; background-color: rgb(255, 255, 255); fill: rgb(0, 0, 0);" y="390" opacity="1">2022</text></g><g class="highcharts-axis-labels highcharts-yaxis-labels" data-z-index="7"><text x="45" style="color: rgb(0, 0, 0); cursor: default; font-size: 12px; font-family: Calibri, Arial, Helvetica, sans-serif; font-weight: normal; background-color: rgb(255, 255, 255); fill: rgb(0, 0, 0);" text-anchor="end" transform="translate(0,0)" y="376" opacity="1">0</text><text x="45" style="color: rgb(0, 0, 0); cursor: default; font-size: 12px; font-family: Calibri, Arial, Helvetica, sans-serif; font-weight: normal; background-color: rgb(255, 255, 255); fill: rgb(0, 0, 0);" text-anchor="end" transform="translate(0,0)" y="349" opacity="1">2</text><text x="45" style="color: rgb(0, 0, 0); cursor: default; font-size: 12px; font-family: Calibri, Arial, Helvetica, sans-serif; font-weight: normal; background-color: rgb(255, 255, 255); fill: rgb(0, 0, 0);" text-anchor="end" transform="translate(0,0)" y="322" opacity="1">4</text><text x="45" style="color: rgb(0, 0, 0); cursor: default; font-size: 12px; font-family: Calibri, Arial, Helvetica, sans-serif; font-weight: normal; background-color: rgb(255, 255, 255); fill: rgb(0, 0, 0);" text-anchor="end" transform="translate(0,0)" y="295" opacity="1">6</text><text x="45" style="color: rgb(0, 0, 0); cursor: default; font-size: 12px; font-family: Calibri, Arial, Helvetica, sans-serif; font-weight: normal; background-color: rgb(255, 255, 255); fill: rgb(0, 0, 0);" text-anchor="end" transform="translate(0,0)" y="268" opacity="1">8</text><text x="45" style="color: rgb(0, 0, 0); cursor: default; font-size: 12px; font-family: Calibri, Arial, Helvetica, sans-serif; font-weight: normal; background-color: rgb(255, 255, 255); fill: rgb(0, 0, 0);" text-anchor="end" transform="translate(0,0)" y="241" opacity="1">10</text><text x="45" text-anchor="end" transform="translate(0,0)" style="color: rgb(0, 0, 0); cursor: default; font-size: 12px; font-family: Calibri, Arial, Helvetica, sans-serif; font-weight: normal; background-color: rgb(255, 255, 255); fill: rgb(0, 0, 0);" y="214" opacity="1">12</text><text x="45" text-anchor="end" transform="translate(0,0)" style="color: rgb(0, 0, 0); cursor: default; font-size: 12px; font-family: Calibri, Arial, Helvetica, sans-serif; font-weight: normal; background-color: rgb(255, 255, 255); fill: rgb(0, 0, 0);" y="187" opacity="1">14</text><text x="45" text-anchor="end" transform="translate(0,0)" style="color: rgb(0, 0, 0); cursor: default; font-size: 12px; font-family: Calibri, Arial, Helvetica, sans-serif; font-weight: normal; background-color: rgb(255, 255, 255); fill: rgb(0, 0, 0);" y="160" opacity="1">16</text><text x="45" text-anchor="end" transform="translate(0,0)" style="color: rgb(0, 0, 0); cursor: default; font-size: 12px; font-family: Calibri, Arial, Helvetica, sans-serif; font-weight: normal; background-color: rgb(255, 255, 255); fill: rgb(0, 0, 0);" y="133" opacity="1">18</text><text x="45" text-anchor="end" transform="translate(0,0)" style="color: rgb(0, 0, 0); cursor: default; font-size: 12px; font-family: Calibri, Arial, Helvetica, sans-serif; font-weight: normal; background-color: rgb(255, 255, 255); fill: rgb(0, 0, 0);" y="106" opacity="1">20</text></g><text x="10" class="highcharts-credits" text-anchor="start" data-z-index="8" y="436" style="cursor: default; color: rgb(44, 44, 44); font-size: 11px; fill: rgb(44, 44, 44);">Click legend items to change data display. Hover over chart to view data.<tspan class="highcharts-br" dy="14" x="10">​</tspan>Note: People whose ethnicity is identified as Hispanic or Latino may be of any race. Data for Asians are available only since 2000.						<tspan class="highcharts-br" dy="14" x="10">​</tspan>Source: U.S. Bureau of Labor Statistics, Current Population Survey (CPS).						<tspan class="highcharts-br">​</tspan></text></svg>