<svg xmlns="http://www.w3.org/2000/svg" xmlns:xlink="http://www.w3.org/1999/xlink" version="1.1" class="marks" width="542" height="376" viewBox="0 0 542 376"><rect width="542" height="376" fill="white"/><g fill="none" stroke-miterlimit="10" transform="translate(51,39)"><g class="mark-group role-frame root" role="graphics-object" aria-roledescription="group mark container"><g transform="translate(0,0)"><path class="background" aria-hidden="true" d="M0.5,0.5h400v300h-400Z" stroke="#ddd"/><g><g class="mark-group role-axis" role="graphics-symbol" aria-roledescription="axis" aria-label="X-axis for a time scale with values from Friday, 01 May 2009, 12:00:00 AM to Saturday, 01 May 2021, 12:00:00 AM"><g transform="translate(0.5,300.5)"><path class="background" aria-hidden="true" d="M0,0h0v0h0Z" pointer-events="none"/><g><g class="mark-rule role-axis-grid" pointer-events="none"><line transform="translate(22,-300)" x2="0" y2="300" stroke="#ddd" stroke-width="1" opacity="1"/><line transform="translate(56,-300)" x2="0" y2="300" stroke="#ddd" stroke-width="1" opacity="1"/><line transform="translate(89,-300)" x2="0" y2="300" stroke="#ddd" stroke-width="1" opacity="1"/><line transform="translate(122,-300)" x2="0" y2="300" stroke="#ddd" stroke-width="1" opacity="1"/><line transform="translate(156,-300)" x2="0" y2="300" stroke="#ddd" stroke-width="1" opacity="1"/><line transform="translate(189,-300)" x2="0" y2="300" stroke="#ddd" stroke-width="1" opacity="1"/><line transform="translate(222,-300)" x2="0" y2="300" stroke="#ddd" stroke-width="1" opacity="1"/><line transform="translate(256,-300)" x2="0" y2="300" stroke="#ddd" stroke-width="1" opacity="1"/><line transform="translate(289,-300)" x2="0" y2="300" stroke="#ddd" stroke-width="1" opacity="1"/><line transform="translate(322,-300)" x2="0" y2="300" stroke="#ddd" stroke-width="1" opacity="1"/><line transform="translate(356,-300)" x2="0" y2="300" stroke="#ddd" stroke-width="1" opacity="1"/><line transform="translate(389,-300)" x2="0" y2="300" stroke="#ddd" stroke-width="1" opacity="1"/></g></g><path class="foreground" aria-hidden="true" d="" pointer-events="none" display="none"/></g></g><g class="mark-group role-axis" role="graphics-symbol" aria-roledescription="axis" aria-label="Y-axis for a linear scale with values from 0 to 1,400"><g transform="translate(0.5,0.5)"><path class="background" aria-hidden="true" d="M0,0h0v0h0Z" pointer-events="none"/><g><g class="mark-rule role-axis-grid" pointer-events="none"><line transform="translate(0,300)" x2="400" y2="0" stroke="#ddd" stroke-width="1" opacity="1"/><line transform="translate(0,257)" x2="400" y2="0" stroke="#ddd" stroke-width="1" opacity="1"/><line transform="translate(0,214)" x2="400" y2="0" stroke="#ddd" stroke-width="1" opacity="1"/><line transform="translate(0,171)" x2="400" y2="0" stroke="#ddd" stroke-width="1" opacity="1"/><line transform="translate(0,129)" x2="400" y2="0" stroke="#ddd" stroke-width="1" opacity="1"/><line transform="translate(0,86)" x2="400" y2="0" stroke="#ddd" stroke-width="1" opacity="1"/><line transform="translate(0,43)" x2="400" y2="0" stroke="#ddd" stroke-width="1" opacity="1"/><line transform="translate(0,0)" x2="400" y2="0" stroke="#ddd" stroke-width="1" opacity="1"/></g></g><path class="foreground" aria-hidden="true" d="" pointer-events="none" display="none"/></g></g><g class="mark-group role-axis" role="graphics-symbol" aria-roledescription="axis" aria-label="X-axis titled 'Date (Year-Month)' for a time scale with values from Friday, 01 May 2009, 12:00:00 AM to Saturday, 01 May 2021, 12:00:00 AM"><g transform="translate(0.5,300.5)"><path class="background" aria-hidden="true" d="M0,0h0v0h0Z" pointer-events="none"/><g><g class="mark-rule role-axis-tick" pointer-events="none"><line transform="translate(22,0)" x2="0" y2="5" stroke="#888" stroke-width="1" opacity="1"/><line transform="translate(56,0)" x2="0" y2="5" stroke="#888" stroke-width="1" opacity="1"/><line transform="translate(89,0)" x2="0" y2="5" stroke="#888" stroke-width="1" opacity="1"/><line transform="translate(122,0)" x2="0" y2="5" stroke="#888" stroke-width="1" opacity="1"/><line transform="translate(156,0)" x2="0" y2="5" stroke="#888" stroke-width="1" opacity="1"/><line transform="translate(189,0)" x2="0" y2="5" stroke="#888" stroke-width="1" opacity="1"/><line transform="translate(222,0)" x2="0" y2="5" stroke="#888" stroke-width="1" opacity="1"/><line transform="translate(256,0)" x2="0" y2="5" stroke="#888" stroke-width="1" opacity="1"/><line transform="translate(289,0)" x2="0" y2="5" stroke="#888" stroke-width="1" opacity="1"/><line transform="translate(322,0)" x2="0" y2="5" stroke="#888" stroke-width="1" opacity="1"/><line transform="translate(356,0)" x2="0" y2="5" stroke="#888" stroke-width="1" opacity="1"/><line transform="translate(389,0)" x2="0" y2="5" stroke="#888" stroke-width="1" opacity="1"/></g><g class="mark-text role-axis-label" pointer-events="none"><text text-anchor="middle" transform="translate(22.36291733211651,15)" font-family="sans-serif" font-size="10px" fill="#000" opacity="1">Jan 2010</text><text text-anchor="middle" transform="translate(55.673435242223746,15)" font-family="sans-serif" font-size="10px" fill="#000" opacity="0">Jan 2011</text><text text-anchor="middle" transform="translate(88.98395315233097,15)" font-family="sans-serif" font-size="10px" fill="#000" opacity="1">Jan 2012</text><text text-anchor="middle" transform="translate(122.38573275534262,15)" font-family="sans-serif" font-size="10px" fill="#000" opacity="0">Jan 2013</text><text text-anchor="middle" transform="translate(155.69625066544987,15)" font-family="sans-serif" font-size="10px" fill="#000" opacity="1">Jan 2014</text><text text-anchor="middle" transform="translate(189.00676857555706,15)" font-family="sans-serif" font-size="10px" fill="#000" opacity="0">Jan 2015</text><text text-anchor="middle" transform="translate(222.3172864856643,15)" font-family="sans-serif" font-size="10px" fill="#000" opacity="1">Jan 2016</text><text text-anchor="middle" transform="translate(255.71906608867593,15)" font-family="sans-serif" font-size="10px" fill="#000" opacity="0">Jan 2017</text><text text-anchor="middle" transform="translate(289.02958399878315,15)" font-family="sans-serif" font-size="10px" fill="#000" opacity="1">Jan 2018</text><text text-anchor="middle" transform="translate(322.3401019088904,15)" font-family="sans-serif" font-size="10px" fill="#000" opacity="0">Jan 2019</text><text text-anchor="middle" transform="translate(355.65061981899765,15)" font-family="sans-serif" font-size="10px" fill="#000" opacity="1">Jan 2020</text><text text-anchor="middle" transform="translate(389.0523994220093,15)" font-family="sans-serif" font-size="10px" fill="#000" opacity="0">Jan 2021</text></g><g class="mark-rule role-axis-domain" pointer-events="none"><line transform="translate(0,0)" x2="400" y2="0" stroke="#888" stroke-width="1" opacity="1"/></g><g class="mark-text role-axis-title" pointer-events="none"><text text-anchor="middle" transform="translate(200,30)" font-family="sans-serif" font-size="11px" font-weight="bold" fill="#000" opacity="1">Date (Year-Month)</text></g></g><path class="foreground" aria-hidden="true" d="" pointer-events="none" display="none"/></g></g><g class="mark-group role-axis" role="graphics-symbol" aria-roledescription="axis" aria-label="Y-axis titled 'Count' for a linear scale with values from 0 to 1,400"><g transform="translate(0.5,0.5)"><path class="background" aria-hidden="true" d="M0,0h0v0h0Z" pointer-events="none"/><g><g class="mark-rule role-axis-tick" pointer-events="none"><line transform="translate(0,300)" x2="-5" y2="0" stroke="#888" stroke-width="1" opacity="1"/><line transform="translate(0,257)" x2="-5" y2="0" stroke="#888" stroke-width="1" opacity="1"/><line transform="translate(0,214)" x2="-5" y2="0" stroke="#888" stroke-width="1" opacity="1"/><line transform="translate(0,171)" x2="-5" y2="0" stroke="#888" stroke-width="1" opacity="1"/><line transform="translate(0,129)" x2="-5" y2="0" stroke="#888" stroke-width="1" opacity="1"/><line transform="translate(0,86)" x2="-5" y2="0" stroke="#888" stroke-width="1" opacity="1"/><line transform="translate(0,43)" x2="-5" y2="0" stroke="#888" stroke-width="1" opacity="1"/><line transform="translate(0,0)" x2="-5" y2="0" stroke="#888" stroke-width="1" opacity="1"/></g><g class="mark-text role-axis-label" pointer-events="none"><text text-anchor="end" transform="translate(-7,303)" font-family="sans-serif" font-size="10px" fill="#000" opacity="1">0</text><text text-anchor="end" transform="translate(-7,260.14285714285717)" font-family="sans-serif" font-size="10px" fill="#000" opacity="1">200</text><text text-anchor="end" transform="translate(-7,217.28571428571428)" font-family="sans-serif" font-size="10px" fill="#000" opacity="1">400</text><text text-anchor="end" transform="translate(-7,174.42857142857142)" font-family="sans-serif" font-size="10px" fill="#000" opacity="1">600</text><text text-anchor="end" transform="translate(-7,131.57142857142858)" font-family="sans-serif" font-size="10px" fill="#000" opacity="1">800</text><text text-anchor="end" transform="translate(-7,88.71428571428571)" font-family="sans-serif" font-size="10px" fill="#000" opacity="1">1,000</text><text text-anchor="end" transform="translate(-7,45.85714285714287)" font-family="sans-serif" font-size="10px" fill="#000" opacity="1">1,200</text><text text-anchor="end" transform="translate(-7,3)" font-family="sans-serif" font-size="10px" fill="#000" opacity="1">1,400</text></g><g class="mark-rule role-axis-domain" pointer-events="none"><line transform="translate(0,300)" x2="0" y2="-300" stroke="#888" stroke-width="1" opacity="1"/></g><g class="mark-text role-axis-title" pointer-events="none"><text text-anchor="middle" transform="translate(-34.469940185546875,150) rotate(-90) translate(0,-2)" font-family="sans-serif" font-size="11px" font-weight="bold" fill="#000" opacity="1">Count</text></g></g><path class="foreground" aria-hidden="true" d="" pointer-events="none" display="none"/></g></g><g class="mark-group role-scope pathgroup" role="graphics-object" aria-roledescription="group mark container"><g transform="translate(0,0)"><path class="background" aria-hidden="true" d="M0,0h400v300h-400Z"/><g><g class="mark-area role-mark marks" role="graphics-symbol" aria-roledescription="area mark container"><path d="M0,299.7857142857143L13.963039014373715,299.7857142857143L16.79215149441022,299.57142857142856L19.533804852080006,299.57142857142856L22.36291733211651,298.92857142857144L25.192029812153017,299.3571428571429L27.74735721347631,297.8571428571429L30.572667122975133,299.3571428571429L33.31051791010724,297L36.139630390143736,297.42857142857144L38.87748117727584,292.92857142857144L41.70659365731234,292.2857142857143L44.535706137348846,296.3571428571429L47.27355692448095,293.35714285714283L50.10266940451745,295.5L52.84432276218723,290.7857142857143L55.673435242223746,292.5L58.502547722260246,295.07142857142856L61.057875123583536,294.2142857142857L63.88318503308237,291.64285714285717L66.62103582021447,291.85714285714283L69.45014830025097,291L72.18799908738308,291.2142857142857L75.01711156741958,289.5L77.84622404745608,286.5L80.58407483458818,288.85714285714283L83.41318731462468,285.85714285714283L86.15484067229447,282.2142857142857L88.98395315233097,282L91.81306563236748,281.35714285714283L94.45965472659518,285.42857142857144L97.284964636094,286.5L100.0228154232261,282.2142857142857L102.8519279032626,275.7857142857143L105.5897786903947,271.5L108.41889117043122,277.2857142857143L111.24800365046772,264.42857142857144L113.98585443759981,279.2142857142857L116.81496691763633,270.64285714285717L119.55662027530612,259.7142857142857L122.38573275534262,264.2142857142857L125.21484523537912,271.2857142857143L127.77017263670241,263.1428571428571L130.59548254620123,262.7142857142857L133.33333333333331,268.5L136.16244581336986,258.8571428571429L138.90029660050195,251.57142857142856L141.72940908053843,241.71428571428572L144.55852156057495,247.71428571428572L147.29637234770706,238.92857142857144L150.12548482774355,246.64285714285714L152.86713818541332,252.21428571428572L155.69625066544987,245.57142857142856L158.52536314548635,237.42857142857142L161.08069054680965,231.64285714285714L163.90600045630845,242.78571428571428L166.64385124344057,175.07142857142858L169.47296372347708,212.35714285714286L172.21081451060917,204.85714285714286L175.03992699064568,233.35714285714283L177.86903947068217,203.57142857142858L180.60689025781429,224.57142857142856L183.4360027378508,221.35714285714286L186.17765609552058,204.64285714285714L189.00676857555706,171.6428571428571L191.83588105559357,193.07142857142858L194.3912084569169,164.35714285714283L197.2165183664157,154.5L199.95436915354782,163.49999999999997L202.78348163358427,188.57142857142856L205.5213324207164,187.2857142857143L208.3504449007529,183.21428571428572L211.1795573807894,145.92857142857142L213.9174081679215,53.571428571428584L216.746520647958,166.28571428571428L219.4881740056278,150.64285714285717L222.3172864856643,147.64285714285714L225.14639896570083,163.92857142857144L227.7929880599285,121.92857142857144L230.61829796942735,119.78571428571428L233.35614875655946,151.92857142857144L236.18526123659595,122.35714285714285L238.92311202372804,130.50000000000003L241.75222450376452,147L244.58133698380107,112.2857142857143L247.31918777093313,178.92857142857142L250.14830025096964,144.21428571428572L252.88995360863944,96.85714285714285L255.71906608867593,153.64285714285714L258.54817856871244,107.57142857142856L261.1035059700357,122.78571428571428L263.92881587953457,122.14285714285714L266.66666666666663,138.85714285714286L269.49577914670317,92.78571428571428L272.2336299338353,7.071428571428573L275.0627424138718,55.285714285714285L277.89185489390826,83.35714285714285L280.6297056810404,116.14285714285714L283.45881816107686,122.57142857142857L286.20047151874667,73.92857142857143L289.02958399878315,93.85714285714285L291.8586964788197,81.85714285714288L294.41402388014296,75.64285714285714L297.23933378964176,106.92857142857143L299.9771845767739,82.92857142857144L302.80629705681037,95.14285714285715L305.5441478439425,78L308.373260323979,29.999999999999993L311.2023728040155,76.2857142857143L313.9402235911476,109.07142857142857L316.7693360711841,97.28571428571429L319.5109894288539,52.500000000000014L322.3401019088904,103.49999999999999L325.16921438892695,125.57142857142858L327.7245417902502,11.571428571428577L330.549851699749,136.92857142857142L333.28770248688113,175.92857142857142L336.1168149669176,127.28571428571428L338.85466575404973,158.35714285714283L341.6837782340862,160.07142857142858L344.51289071412276,130.28571428571428L347.2507415012549,173.14285714285717L350.07985398129136,161.35714285714283L352.8215073389611,176.14285714285717L355.65061981899765,142.71428571428572L358.47973229903414,183.42857142857142L361.12632139326183,157.92857142857144L363.95163130276063,185.14285714285717L366.68948208989275,214.92857142857142L369.51859456992923,193.92857142857142L372.25644535706135,206.14285714285714L375.0855578370979,216.2142857142857L377.9146703171344,196.5L380.6525211042665,206.14285714285714L383.481633584303,200.78571428571428L386.2232869419728,209.35714285714286L389.0523994220093,200.99999999999997L391.88151190204576,196.5L394.4368393033691,145.2857142857143L397.2621492128679,206.99999999999997L400,203.57142857142858L400,279.64285714285717L397.2621492128679,284.35714285714283L394.4368393033691,276.42857142857144L391.88151190204576,283.5L389.0523994220093,280.7142857142857L386.2232869419728,286.5L383.481633584303,280.7142857142857L380.6525211042665,284.7857142857143L377.9146703171344,282L375.0855578370979,283.0714285714286L372.25644535706135,281.57142857142856L369.51859456992923,282.42857142857144L366.68948208989275,286.92857142857144L363.95163130276063,281.7857142857143L361.12632139326183,274.7142857142857L358.47973229903414,276.42857142857144L355.65061981899765,267L352.8215073389611,273.42857142857144L350.07985398129136,267L347.2507415012549,273.42857142857144L344.51289071412276,258L341.6837782340862,272.57142857142856L338.85466575404973,272.57142857142856L336.1168149669176,265.92857142857144L333.28770248688113,273.2142857142857L330.549851699749,264.42857142857144L327.7245417902502,242.14285714285714L325.16921438892695,259.92857142857144L322.3401019088904,255.42857142857144L319.5109894288539,255L316.7693360711841,252L313.9402235911476,262.92857142857144L311.2023728040155,255L308.373260323979,240.42857142857142L305.5441478439425,255.64285714285714L302.80629705681037,261.8571428571429L299.9771845767739,255.64285714285714L297.23933378964176,266.1428571428571L294.41402388014296,255.64285714285714L291.8586964788197,256.92857142857144L289.02958399878315,265.5L286.20047151874667,256.5L283.45881816107686,263.3571428571429L280.6297056810404,270L277.89185489390826,251.57142857142856L275.0627424138718,246.64285714285714L272.2336299338353,252.6428571428571L269.49577914670317,256.92857142857144L266.66666666666663,273.42857142857144L263.92881587953457,265.5L261.1035059700357,269.7857142857143L258.54817856871244,268.07142857142856L255.71906608867593,278.14285714285717L252.88995360863944,264.8571428571429L250.14830025096964,268.92857142857144L247.31918777093313,279L244.58133698380107,267.42857142857144L241.75222450376452,274.9285714285714L238.92311202372804,272.57142857142856L236.18526123659595,270.64285714285717L233.35614875655946,274.9285714285714L230.61829796942735,268.2857142857143L227.7929880599285,272.14285714285717L225.14639896570083,279.85714285714283L222.3172864856643,275.7857142857143L219.4881740056278,277.07142857142856L216.746520647958,277.2857142857143L213.9174081679215,246.85714285714286L211.1795573807894,275.7857142857143L208.3504449007529,283.0714285714286L205.5213324207164,282.2142857142857L202.78348163358427,285.85714285714283L199.95436915354782,278.35714285714283L197.2165183664157,276.85714285714283L194.3912084569169,280.7142857142857L191.83588105559357,281.57142857142856L189.00676857555706,277.07142857142856L186.17765609552058,284.7857142857143L183.4360027378508,286.7142857142857L180.60689025781429,286.5L177.86903947068217,284.35714285714283L175.03992699064568,289.07142857142856L172.21081451060917,284.5714285714286L169.47296372347708,282.2142857142857L166.64385124344057,278.35714285714283L163.90600045630845,291.64285714285717L161.08069054680965,288.85714285714283L158.52536314548635,289.7142857142857L155.69625066544987,291.2142857142857L152.86713818541332,289.5L150.12548482774355,291.64285714285717L147.29637234770706,287.7857142857143L144.55852156057495,289.7142857142857L141.72940908053843,287.7857142857143L138.90029660050195,291.2142857142857L136.16244581336986,292.92857142857144L133.33333333333331,293.7857142857143L130.59548254620123,292.5L127.77017263670241,294.42857142857144L125.21484523537912,295.7142857142857L122.38573275534262,293.57142857142856L119.55662027530612,291.64285714285717L116.81496691763633,295.2857142857143L113.98585443759981,296.3571428571429L111.24800365046772,294.6428571428571L108.41889117043122,297L105.5897786903947,296.1428571428571L102.8519279032626,297.42857142857144L100.0228154232261,297.8571428571429L97.284964636094,298.07142857142856L94.45965472659518,297.42857142857144L91.81306563236748,297.8571428571429L88.98395315233097,297.8571428571429L86.15484067229447,298.07142857142856L83.41318731462468,297.8571428571429L80.58407483458818,298.2857142857143L77.84622404745608,298.2857142857143L75.01711156741958,299.57142857142856L72.18799908738308,298.7142857142857L69.45014830025097,298.2857142857143L66.62103582021447,299.57142857142856L63.88318503308237,298.92857142857144L61.057875123583536,298.92857142857144L58.502547722260246,299.3571428571429L55.673435242223746,298.5L52.84432276218723,298.07142857142856L50.10266940451745,299.3571428571429L47.27355692448095,298.2857142857143L44.535706137348846,299.3571428571429L41.70659365731234,299.57142857142856L38.87748117727584,299.3571428571429L36.139630390143736,299.7857142857143L33.31051791010724,300L30.572667122975133,299.7857142857143L27.74735721347631,299.57142857142856L25.192029812153017,300L22.36291733211651,299.7857142857143L19.533804852080006,299.7857142857143L16.79215149441022,299.7857142857143L13.963039014373715,299.7857142857143L0,300Z" fill="#4c78a8" opacity="0.7"/></g></g><path class="foreground" aria-hidden="true" d="" display="none"/></g><g transform="translate(0,0)"><path class="background" aria-hidden="true" d="M0,0h400v300h-400Z"/><g><g class="mark-area role-mark marks" role="graphics-symbol" aria-roledescription="area mark container"><path d="M0,300L13.963039014373715,299.7857142857143L16.79215149441022,299.7857142857143L19.533804852080006,299.7857142857143L22.36291733211651,299.7857142857143L25.192029812153017,300L27.74735721347631,299.57142857142856L30.572667122975133,299.7857142857143L33.31051791010724,300L36.139630390143736,299.7857142857143L38.87748117727584,299.3571428571429L41.70659365731234,299.57142857142856L44.535706137348846,299.3571428571429L47.27355692448095,298.2857142857143L50.10266940451745,299.3571428571429L52.84432276218723,298.07142857142856L55.673435242223746,298.5L58.502547722260246,299.3571428571429L61.057875123583536,298.92857142857144L63.88318503308237,298.92857142857144L66.62103582021447,299.57142857142856L69.45014830025097,298.2857142857143L72.18799908738308,298.7142857142857L75.01711156741958,299.57142857142856L77.84622404745608,298.2857142857143L80.58407483458818,298.2857142857143L83.41318731462468,297.8571428571429L86.15484067229447,298.07142857142856L88.98395315233097,297.8571428571429L91.81306563236748,297.8571428571429L94.45965472659518,297.42857142857144L97.284964636094,298.07142857142856L100.0228154232261,297.8571428571429L102.8519279032626,297.42857142857144L105.5897786903947,296.1428571428571L108.41889117043122,297L111.24800365046772,294.6428571428571L113.98585443759981,296.3571428571429L116.81496691763633,295.2857142857143L119.55662027530612,291.64285714285717L122.38573275534262,293.57142857142856L125.21484523537912,295.7142857142857L127.77017263670241,294.42857142857144L130.59548254620123,292.5L133.33333333333331,293.7857142857143L136.16244581336986,292.92857142857144L138.90029660050195,291.2142857142857L141.72940908053843,287.7857142857143L144.55852156057495,289.7142857142857L147.29637234770706,287.7857142857143L150.12548482774355,291.64285714285717L152.86713818541332,289.5L155.69625066544987,291.2142857142857L158.52536314548635,289.7142857142857L161.08069054680965,288.85714285714283L163.90600045630845,291.64285714285717L166.64385124344057,278.35714285714283L169.47296372347708,282.2142857142857L172.21081451060917,284.5714285714286L175.03992699064568,289.07142857142856L177.86903947068217,284.35714285714283L180.60689025781429,286.5L183.4360027378508,286.7142857142857L186.17765609552058,284.7857142857143L189.00676857555706,277.07142857142856L191.83588105559357,281.57142857142856L194.3912084569169,280.7142857142857L197.2165183664157,276.85714285714283L199.95436915354782,278.35714285714283L202.78348163358427,285.85714285714283L205.5213324207164,282.2142857142857L208.3504449007529,283.0714285714286L211.1795573807894,275.7857142857143L213.9174081679215,246.85714285714286L216.746520647958,277.2857142857143L219.4881740056278,277.07142857142856L222.3172864856643,275.7857142857143L225.14639896570083,279.85714285714283L227.7929880599285,272.14285714285717L230.61829796942735,268.2857142857143L233.35614875655946,274.9285714285714L236.18526123659595,270.64285714285717L238.92311202372804,272.57142857142856L241.75222450376452,274.9285714285714L244.58133698380107,267.42857142857144L247.31918777093313,279L250.14830025096964,268.92857142857144L252.88995360863944,264.8571428571429L255.71906608867593,278.14285714285717L258.54817856871244,268.07142857142856L261.1035059700357,269.7857142857143L263.92881587953457,265.5L266.66666666666663,273.42857142857144L269.49577914670317,256.92857142857144L272.2336299338353,252.6428571428571L275.0627424138718,246.64285714285714L277.89185489390826,251.57142857142856L280.6297056810404,270L283.45881816107686,263.3571428571429L286.20047151874667,256.5L289.02958399878315,265.5L291.8586964788197,256.92857142857144L294.41402388014296,255.64285714285714L297.23933378964176,266.1428571428571L299.9771845767739,255.64285714285714L302.80629705681037,261.8571428571429L305.5441478439425,255.64285714285714L308.373260323979,240.42857142857142L311.2023728040155,255L313.9402235911476,262.92857142857144L316.7693360711841,252L319.5109894288539,255L322.3401019088904,255.42857142857142L325.16921438892695,259.92857142857144L327.7245417902502,242.14285714285714L330.549851699749,264.42857142857144L333.28770248688113,273.2142857142857L336.1168149669176,265.92857142857144L338.85466575404973,272.57142857142856L341.6837782340862,272.57142857142856L344.51289071412276,258L347.2507415012549,273.42857142857144L350.07985398129136,267L352.8215073389611,273.42857142857144L355.65061981899765,267L358.47973229903414,276.42857142857144L361.12632139326183,274.7142857142857L363.95163130276063,281.7857142857143L366.68948208989275,286.92857142857144L369.51859456992923,282.42857142857144L372.25644535706135,281.57142857142856L375.0855578370979,283.0714285714286L377.9146703171344,282L380.6525211042665,284.7857142857143L383.481633584303,280.7142857142857L386.2232869419728,286.5L389.0523994220093,280.7142857142857L391.88151190204576,283.5L394.4368393033691,276.42857142857144L397.2621492128679,284.35714285714283L400,279.64285714285717L400,300L397.2621492128679,300L394.4368393033691,300L391.88151190204576,300L389.0523994220093,300L386.2232869419728,300L383.481633584303,300L380.6525211042665,300L377.9146703171344,300L375.0855578370979,300L372.25644535706135,300L369.51859456992923,300L366.68948208989275,300L363.95163130276063,300L361.12632139326183,300L358.47973229903414,300L355.65061981899765,300L352.8215073389611,300L350.07985398129136,300L347.2507415012549,300L344.51289071412276,300L341.6837782340862,300L338.85466575404973,300L336.1168149669176,300L333.28770248688113,300L330.549851699749,300L327.7245417902502,300L325.16921438892695,300L322.3401019088904,300L319.5109894288539,300L316.7693360711841,300L313.9402235911476,300L311.2023728040155,300L308.373260323979,300L305.5441478439425,300L302.80629705681037,300L299.9771845767739,300L297.23933378964176,300L294.41402388014296,300L291.8586964788197,300L289.02958399878315,300L286.20047151874667,300L283.45881816107686,300L280.6297056810404,300L277.89185489390826,300L275.0627424138718,300L272.2336299338353,300L269.49577914670317,300L266.66666666666663,300L263.92881587953457,300L261.1035059700357,300L258.54817856871244,300L255.71906608867593,300L252.88995360863944,300L250.14830025096964,300L247.31918777093313,300L244.58133698380107,300L241.75222450376452,300L238.92311202372804,300L236.18526123659595,300L233.35614875655946,300L230.61829796942735,300L227.7929880599285,300L225.14639896570083,300L222.3172864856643,300L219.4881740056278,300L216.746520647958,300L213.9174081679215,300L211.1795573807894,300L208.3504449007529,300L205.5213324207164,300L202.78348163358427,300L199.95436915354782,300L197.2165183664157,300L194.3912084569169,300L191.83588105559357,300L189.00676857555706,300L186.17765609552058,300L183.4360027378508,300L180.60689025781429,300L177.86903947068217,300L175.03992699064568,300L172.21081451060917,300L169.47296372347708,300L166.64385124344057,300L163.90600045630845,300L161.08069054680965,300L158.52536314548635,300L155.69625066544987,300L152.86713818541332,300L150.12548482774355,300L147.29637234770706,300L144.55852156057495,300L141.72940908053843,300L138.90029660050195,300L136.16244581336986,300L133.33333333333331,300L130.59548254620123,300L127.77017263670241,300L125.21484523537912,300L122.38573275534262,300L119.55662027530612,300L116.81496691763633,300L113.98585443759981,300L111.24800365046772,300L108.41889117043122,300L105.5897786903947,300L102.8519279032626,300L100.0228154232261,300L97.284964636094,300L94.45965472659518,300L91.81306563236748,300L88.98395315233097,300L86.15484067229447,300L83.41318731462468,300L80.58407483458818,300L77.84622404745608,300L75.01711156741958,300L72.18799908738308,300L69.45014830025097,300L66.62103582021447,300L63.88318503308237,300L61.057875123583536,300L58.502547722260246,300L55.673435242223746,300L52.84432276218723,300L50.10266940451745,300L47.27355692448095,300L44.535706137348846,300L41.70659365731234,300L38.87748117727584,300L36.139630390143736,300L33.31051791010724,300L30.572667122975133,300L27.74735721347631,300L25.192029812153017,300L22.36291733211651,300L19.533804852080006,300L16.79215149441022,300L13.963039014373715,300L0,300Z" fill="#f58518" opacity="0.7"/></g></g><path class="foreground" aria-hidden="true" d="" display="none"/></g></g><g class="mark-group role-legend" role="graphics-symbol" aria-roledescription="legend" aria-label="Symbol legend titled 'comment' for fill color with 2 values: comment, submission"><g transform="translate(418,0)"><path class="background" aria-hidden="true" d="M0,0h68v40h-68Z" pointer-events="none"/><g><g class="mark-group role-legend-entry"><g transform="translate(0,16)"><path class="background" aria-hidden="true" d="M0,0h0v0h0Z" pointer-events="none"/><g><g class="mark-group role-scope" role="graphics-object" aria-roledescription="group mark container"><g transform="translate(0,0)"><path class="background" aria-hidden="true" d="M0,0h67.679931640625v11h-67.679931640625Z" pointer-events="none" opacity="1"/><g><g class="mark-symbol role-legend-symbol" pointer-events="none"><path transform="translate(6,6)" d="M5,0A5,5,0,1,1,-5,0A5,5,0,1,1,5,0" fill="#4c78a8" stroke-width="1.5" opacity="0.7"/></g><g class="mark-text role-legend-label" pointer-events="none"><text text-anchor="start" transform="translate(16,9)" font-family="sans-serif" font-size="10px" fill="#000" opacity="1">comment</text></g></g><path class="foreground" aria-hidden="true" d="" pointer-events="none" display="none"/></g><g transform="translate(0,13)"><path class="background" aria-hidden="true" d="M0,0h67.679931640625v11h-67.679931640625Z" pointer-events="none" opacity="1"/><g><g class="mark-symbol role-legend-symbol" pointer-events="none"><path transform="translate(6,6)" d="M5,0A5,5,0,1,1,-5,0A5,5,0,1,1,5,0" fill="#f58518" stroke-width="1.5" opacity="0.7"/></g><g class="mark-text role-legend-label" pointer-events="none"><text text-anchor="start" transform="translate(16,9)" font-family="sans-serif" font-size="10px" fill="#000" opacity="1">submission</text></g></g><path class="foreground" aria-hidden="true" d="" pointer-events="none" display="none"/></g></g></g><path class="foreground" aria-hidden="true" d="" pointer-events="none" display="none"/></g></g><g class="mark-text role-legend-title" pointer-events="none"><text text-anchor="start" transform="translate(0,9)" font-family="sans-serif" font-size="11px" font-weight="bold" fill="#000" opacity="1">comment</text></g></g><path class="foreground" aria-hidden="true" d="" pointer-events="none" display="none"/></g></g><g class="mark-group role-title"><g transform="translate(200,-34)"><path class="background" aria-hidden="true" d="M0,0h0v0h0Z" pointer-events="none"/><g><g class="mark-text role-title-text" role="graphics-symbol" aria-roledescription="title" aria-label="Title text 'Apostate or Heathen Posts'" pointer-events="none"><text text-anchor="middle" transform="translate(0,20)" font-family="sans-serif" font-size="25px" font-weight="bold" fill="#000" opacity="1">Apostate or Heathen Posts</text></g></g><path class="foreground" aria-hidden="true" d="" pointer-events="none" display="none"/></g></g></g><path class="foreground" aria-hidden="true" d="" display="none"/></g></g></g></svg>