<svg xmlns="http://www.w3.org/2000/svg" xmlns:xlink="http://www.w3.org/1999/xlink" version="1.1" class="marks" width="543" height="376" viewBox="0 0 543 376"><rect width="543" height="376" fill="white"/><g fill="none" stroke-miterlimit="10" transform="translate(52,39)"><g class="mark-group role-frame root" role="graphics-object" aria-roledescription="group mark container"><g transform="translate(0,0)"><path class="background" aria-hidden="true" d="M0.5,0.5h400v300h-400Z" stroke="#ddd"/><g><g class="mark-group role-axis" role="graphics-symbol" aria-roledescription="axis" aria-label="X-axis for a time scale with values from Friday, 01 May 2009, 12:00:00 AM to Saturday, 01 May 2021, 12:00:00 AM"><g transform="translate(0.5,300.5)"><path class="background" aria-hidden="true" d="M0,0h0v0h0Z" pointer-events="none"/><g><g class="mark-rule role-axis-grid" pointer-events="none"><line transform="translate(22,-300)" x2="0" y2="300" stroke="#ddd" stroke-width="1" opacity="1"/><line transform="translate(56,-300)" x2="0" y2="300" stroke="#ddd" stroke-width="1" opacity="1"/><line transform="translate(89,-300)" x2="0" y2="300" stroke="#ddd" stroke-width="1" opacity="1"/><line transform="translate(122,-300)" x2="0" y2="300" stroke="#ddd" stroke-width="1" opacity="1"/><line transform="translate(156,-300)" x2="0" y2="300" stroke="#ddd" stroke-width="1" opacity="1"/><line transform="translate(189,-300)" x2="0" y2="300" stroke="#ddd" stroke-width="1" opacity="1"/><line transform="translate(222,-300)" x2="0" y2="300" stroke="#ddd" stroke-width="1" opacity="1"/><line transform="translate(256,-300)" x2="0" y2="300" stroke="#ddd" stroke-width="1" opacity="1"/><line transform="translate(289,-300)" x2="0" y2="300" stroke="#ddd" stroke-width="1" opacity="1"/><line transform="translate(322,-300)" x2="0" y2="300" stroke="#ddd" stroke-width="1" opacity="1"/><line transform="translate(356,-300)" x2="0" y2="300" stroke="#ddd" stroke-width="1" opacity="1"/><line transform="translate(389,-300)" x2="0" y2="300" stroke="#ddd" stroke-width="1" opacity="1"/></g></g><path class="foreground" aria-hidden="true" d="" pointer-events="none" display="none"/></g></g><g class="mark-group role-axis" role="graphics-symbol" aria-roledescription="axis" aria-label="Y-axis for a linear scale with values from 0 to 3,000"><g transform="translate(0.5,0.5)"><path class="background" aria-hidden="true" d="M0,0h0v0h0Z" pointer-events="none"/><g><g class="mark-rule role-axis-grid" pointer-events="none"><line transform="translate(0,300)" x2="400" y2="0" stroke="#ddd" stroke-width="1" opacity="1"/><line transform="translate(0,250)" x2="400" y2="0" stroke="#ddd" stroke-width="1" opacity="1"/><line transform="translate(0,200)" x2="400" y2="0" stroke="#ddd" stroke-width="1" opacity="1"/><line transform="translate(0,150)" x2="400" y2="0" stroke="#ddd" stroke-width="1" opacity="1"/><line transform="translate(0,100)" x2="400" y2="0" stroke="#ddd" stroke-width="1" opacity="1"/><line transform="translate(0,50)" x2="400" y2="0" stroke="#ddd" stroke-width="1" opacity="1"/><line transform="translate(0,0)" x2="400" y2="0" stroke="#ddd" stroke-width="1" opacity="1"/></g></g><path class="foreground" aria-hidden="true" d="" pointer-events="none" display="none"/></g></g><g class="mark-group role-axis" role="graphics-symbol" aria-roledescription="axis" aria-label="X-axis titled 'Date (Year-Month)' for a time scale with values from Friday, 01 May 2009, 12:00:00 AM to Saturday, 01 May 2021, 12:00:00 AM"><g transform="translate(0.5,300.5)"><path class="background" aria-hidden="true" d="M0,0h0v0h0Z" pointer-events="none"/><g><g class="mark-rule role-axis-tick" pointer-events="none"><line transform="translate(22,0)" x2="0" y2="5" stroke="#888" stroke-width="1" opacity="1"/><line transform="translate(56,0)" x2="0" y2="5" stroke="#888" stroke-width="1" opacity="1"/><line transform="translate(89,0)" x2="0" y2="5" stroke="#888" stroke-width="1" opacity="1"/><line transform="translate(122,0)" x2="0" y2="5" stroke="#888" stroke-width="1" opacity="1"/><line transform="translate(156,0)" x2="0" y2="5" stroke="#888" stroke-width="1" opacity="1"/><line transform="translate(189,0)" x2="0" y2="5" stroke="#888" stroke-width="1" opacity="1"/><line transform="translate(222,0)" x2="0" y2="5" stroke="#888" stroke-width="1" opacity="1"/><line transform="translate(256,0)" x2="0" y2="5" stroke="#888" stroke-width="1" opacity="1"/><line transform="translate(289,0)" x2="0" y2="5" stroke="#888" stroke-width="1" opacity="1"/><line transform="translate(322,0)" x2="0" y2="5" stroke="#888" stroke-width="1" opacity="1"/><line transform="translate(356,0)" x2="0" y2="5" stroke="#888" stroke-width="1" opacity="1"/><line transform="translate(389,0)" x2="0" y2="5" stroke="#888" stroke-width="1" opacity="1"/></g><g class="mark-text role-axis-label" pointer-events="none"><text text-anchor="middle" transform="translate(22.36291733211651,15)" font-family="sans-serif" font-size="10px" fill="#000" opacity="1">Jan 2010</text><text text-anchor="middle" transform="translate(55.673435242223746,15)" font-family="sans-serif" font-size="10px" fill="#000" opacity="0">Jan 2011</text><text text-anchor="middle" transform="translate(88.98395315233097,15)" font-family="sans-serif" font-size="10px" fill="#000" opacity="1">Jan 2012</text><text text-anchor="middle" transform="translate(122.38573275534262,15)" font-family="sans-serif" font-size="10px" fill="#000" opacity="0">Jan 2013</text><text text-anchor="middle" transform="translate(155.69625066544987,15)" font-family="sans-serif" font-size="10px" fill="#000" opacity="1">Jan 2014</text><text text-anchor="middle" transform="translate(189.00676857555706,15)" font-family="sans-serif" font-size="10px" fill="#000" opacity="0">Jan 2015</text><text text-anchor="middle" transform="translate(222.3172864856643,15)" font-family="sans-serif" font-size="10px" fill="#000" opacity="1">Jan 2016</text><text text-anchor="middle" transform="translate(255.71906608867593,15)" font-family="sans-serif" font-size="10px" fill="#000" opacity="0">Jan 2017</text><text text-anchor="middle" transform="translate(289.02958399878315,15)" font-family="sans-serif" font-size="10px" fill="#000" opacity="1">Jan 2018</text><text text-anchor="middle" transform="translate(322.3401019088904,15)" font-family="sans-serif" font-size="10px" fill="#000" opacity="0">Jan 2019</text><text text-anchor="middle" transform="translate(355.65061981899765,15)" font-family="sans-serif" font-size="10px" fill="#000" opacity="1">Jan 2020</text><text text-anchor="middle" transform="translate(389.0523994220093,15)" font-family="sans-serif" font-size="10px" fill="#000" opacity="0">Jan 2021</text></g><g class="mark-rule role-axis-domain" pointer-events="none"><line transform="translate(0,0)" x2="400" y2="0" stroke="#888" stroke-width="1" opacity="1"/></g><g class="mark-text role-axis-title" pointer-events="none"><text text-anchor="middle" transform="translate(200,30)" font-family="sans-serif" font-size="11px" font-weight="bold" fill="#000" opacity="1">Date (Year-Month)</text></g></g><path class="foreground" aria-hidden="true" d="" pointer-events="none" display="none"/></g></g><g class="mark-group role-axis" role="graphics-symbol" aria-roledescription="axis" aria-label="Y-axis titled 'Count' for a linear scale with values from 0 to 3,000"><g transform="translate(0.5,0.5)"><path class="background" aria-hidden="true" d="M0,0h0v0h0Z" pointer-events="none"/><g><g class="mark-rule role-axis-tick" pointer-events="none"><line transform="translate(0,300)" x2="-5" y2="0" stroke="#888" stroke-width="1" opacity="1"/><line transform="translate(0,250)" x2="-5" y2="0" stroke="#888" stroke-width="1" opacity="1"/><line transform="translate(0,200)" x2="-5" y2="0" stroke="#888" stroke-width="1" opacity="1"/><line transform="translate(0,150)" x2="-5" y2="0" stroke="#888" stroke-width="1" opacity="1"/><line transform="translate(0,100)" x2="-5" y2="0" stroke="#888" stroke-width="1" opacity="1"/><line transform="translate(0,50)" x2="-5" y2="0" stroke="#888" stroke-width="1" opacity="1"/><line transform="translate(0,0)" x2="-5" y2="0" stroke="#888" stroke-width="1" opacity="1"/></g><g class="mark-text role-axis-label" pointer-events="none"><text text-anchor="end" transform="translate(-7,303)" font-family="sans-serif" font-size="10px" fill="#000" opacity="1">0</text><text text-anchor="end" transform="translate(-7,253)" font-family="sans-serif" font-size="10px" fill="#000" opacity="1">500</text><text text-anchor="end" transform="translate(-7,203.00000000000003)" font-family="sans-serif" font-size="10px" fill="#000" opacity="1">1,000</text><text text-anchor="end" transform="translate(-7,153)" font-family="sans-serif" font-size="10px" fill="#000" opacity="1">1,500</text><text text-anchor="end" transform="translate(-7,103.00000000000001)" font-family="sans-serif" font-size="10px" fill="#000" opacity="1">2,000</text><text text-anchor="end" transform="translate(-7,52.999999999999986)" font-family="sans-serif" font-size="10px" fill="#000" opacity="1">2,500</text><text text-anchor="end" transform="translate(-7,3)" font-family="sans-serif" font-size="10px" fill="#000" opacity="1">3,000</text></g><g class="mark-rule role-axis-domain" pointer-events="none"><line transform="translate(0,300)" x2="0" y2="-300" stroke="#888" stroke-width="1" opacity="1"/></g><g class="mark-text role-axis-title" pointer-events="none"><text text-anchor="middle" transform="translate(-35.12994384765625,150) rotate(-90) translate(0,-2)" font-family="sans-serif" font-size="11px" font-weight="bold" fill="#000" opacity="1">Count</text></g></g><path class="foreground" aria-hidden="true" d="" pointer-events="none" display="none"/></g></g><g class="mark-group role-scope pathgroup" role="graphics-object" aria-roledescription="group mark container"><g transform="translate(0,0)"><path class="background" aria-hidden="true" d="M0,0h400v300h-400Z"/><g><g class="mark-area role-mark marks" role="graphics-symbol" aria-roledescription="area mark container"><path d="M0,299.1L8.39607574720511,299.90000000000003L11.225188227241615,299.90000000000003L13.963039014373715,299.7L16.79215149441022,298.1L19.533804852080006,296.8L22.36291733211651,295.7L25.192029812153017,297.2L27.74735721347631,296.2L30.572667122975133,296.5L33.31051791010724,291L36.139630390143736,295.59999999999997L38.87748117727584,291.9L41.70659365731234,281.6L44.535706137348846,287.8L47.27355692448095,287.5L50.10266940451745,286.3L52.84432276218723,286.1L55.673435242223746,287.8L58.502547722260246,285L61.057875123583536,288.3L63.88318503308237,286.6L66.62103582021447,284.3L69.45014830025097,280.4L72.18799908738308,283.5L75.01711156741958,283.8L77.84622404745608,282.8L80.58407483458818,279.8L83.41318731462468,257.2L86.15484067229447,267L88.98395315233097,273.8L91.81306563236748,274.7L94.45965472659518,274.8L97.284964636094,277.7L100.0228154232261,267.7L102.8519279032626,260.90000000000003L105.5897786903947,268.40000000000003L108.41889117043122,264L111.24800365046772,230.3L113.98585443759981,269.7L116.81496691763633,271.5L119.55662027530612,263.1L122.38573275534262,262.40000000000003L125.21484523537912,264.8L127.77017263670241,259.3L130.59548254620123,261L133.33333333333331,258.70000000000005L136.16244581336986,260.4L138.90029660050195,259.2L141.72940908053843,258.8L144.55852156057495,234L147.29637234770706,251.7L150.12548482774355,254.3L152.86713818541332,251.6L155.69625066544987,209.9L158.52536314548635,192.6L161.08069054680965,237L163.90600045630845,251.20000000000002L166.64385124344057,234.4L169.47296372347708,232.70000000000002L172.21081451060917,220.60000000000002L175.03992699064568,237.3L177.86903947068217,229.99999999999997L180.60689025781429,239.09999999999997L183.4360027378508,232.5L186.17765609552058,225.3L189.00676857555706,202.40000000000003L191.83588105559357,226L194.3912084569169,194.4L197.2165183664157,208.79999999999998L199.95436915354782,218L202.78348163358427,215L205.5213324207164,215.39999999999998L208.3504449007529,225.3L211.1795573807894,211.60000000000002L213.9174081679215,154L216.746520647958,219L219.4881740056278,212.39999999999998L222.3172864856643,209.10000000000002L225.14639896570083,215.8L227.7929880599285,204.9L230.61829796942735,197.60000000000002L233.35614875655946,208.9L236.18526123659595,205.7L238.92311202372804,185.60000000000002L241.75222450376452,150L244.58133698380107,158.4L247.31918777093313,215.8L250.14830025096964,195.6L252.88995360863944,88.39999999999999L255.71906608867593,208.6L258.54817856871244,175.20000000000002L261.1035059700357,97.00000000000001L263.92881587953457,153L266.66666666666663,149.9L269.49577914670317,80.30000000000001L272.2336299338353,90.30000000000001L275.0627424138718,62.3L277.89185489390826,32.099999999999994L280.6297056810404,142.79999999999998L283.45881816107686,107.30000000000001L286.20047151874667,78.99999999999999L289.02958399878315,114.3L291.8586964788197,108.99999999999999L294.41402388014296,74.79999999999998L297.23933378964176,123.60000000000001L299.9771845767739,64.49999999999999L302.80629705681037,14.59999999999999L305.5441478439425,81.39999999999999L308.373260323979,8.199999999999996L311.2023728040155,44.49999999999999L313.9402235911476,58.099999999999994L316.7693360711841,74.60000000000001L319.5109894288539,81.20000000000002L322.3401019088904,39.99999999999999L325.16921438892695,75.6L327.7245417902502,81L330.549851699749,113.9L333.28770248688113,141.20000000000002L336.1168149669176,97.30000000000001L338.85466575404973,94.60000000000001L341.6837782340862,113.60000000000001L344.51289071412276,75.20000000000002L347.2507415012549,147.1L350.07985398129136,100.79999999999998L352.8215073389611,72L355.65061981899765,107.19999999999999L358.47973229903414,108.6L361.12632139326183,88L363.95163130276063,134.1L366.68948208989275,148.8L369.51859456992923,136.3L372.25644535706135,136.2L375.0855578370979,151.60000000000002L377.9146703171344,120.30000000000001L380.6525211042665,141.6L383.481633584303,138.70000000000002L386.2232869419728,135.10000000000002L389.0523994220093,146.5L391.88151190204576,117.39999999999999L394.4368393033691,94.39999999999999L397.2621492128679,123.00000000000001L400,98.50000000000001L400,277.5L397.2621492128679,283.3L394.4368393033691,283L391.88151190204576,284.3L389.0523994220093,288.7L386.2232869419728,287.6L383.481633584303,286.7L380.6525211042665,288.2L377.9146703171344,290.7L375.0855578370979,290.5L372.25644535706135,289.3L369.51859456992923,288.1L366.68948208989275,289.5L363.95163130276063,288.8L361.12632139326183,282.1L358.47973229903414,282.1L355.65061981899765,287.2L352.8215073389611,288L350.07985398129136,287.3L347.2507415012549,288.2L344.51289071412276,286L341.6837782340862,290L338.85466575404973,282.59999999999997L336.1168149669176,287.3L333.28770248688113,288.40000000000003L330.549851699749,288.40000000000003L327.7245417902502,281.70000000000005L325.16921438892695,286.2L322.3401019088904,287.8L319.5109894288539,283.90000000000003L316.7693360711841,285.5L313.9402235911476,288.59999999999997L311.2023728040155,283.90000000000003L308.373260323979,286.90000000000003L305.5441478439425,286.90000000000003L302.80629705681037,289.1L299.9771845767739,288.40000000000003L297.23933378964176,291.2L294.41402388014296,286.8L291.8586964788197,286.3L289.02958399878315,288.3L286.20047151874667,288.1L283.45881816107686,291.3L280.6297056810404,288.59999999999997L277.89185489390826,285.9L275.0627424138718,289.90000000000003L272.2336299338353,290.4L269.49577914670317,293L266.66666666666663,292.6L263.92881587953457,294.5L261.1035059700357,293.7L258.54817856871244,294.4L255.71906608867593,292.8L252.88995360863944,289.6L250.14830025096964,294.5L247.31918777093313,294.4L244.58133698380107,293.4L241.75222450376452,292.7L238.92311202372804,294L236.18526123659595,294.9L233.35614875655946,293.6L230.61829796942735,293.09999999999997L227.7929880599285,294.2L225.14639896570083,291.7L222.3172864856643,288L219.4881740056278,292.3L216.746520647958,294.8L213.9174081679215,289.3L211.1795573807894,294.3L208.3504449007529,294.8L205.5213324207164,293.9L202.78348163358427,294.2L199.95436915354782,294.09999999999997L197.2165183664157,294.9L194.3912084569169,293.5L191.83588105559357,295.7L189.00676857555706,294.2L186.17765609552058,296.6L183.4360027378508,296.1L180.60689025781429,295.8L177.86903947068217,296.2L175.03992699064568,296.7L172.21081451060917,296.90000000000003L169.47296372347708,297.09999999999997L166.64385124344057,295.1L163.90600045630845,296.90000000000003L161.08069054680965,297.6L158.52536314548635,297.3L155.69625066544987,296.8L152.86713818541332,297.7L150.12548482774355,296.90000000000003L147.29637234770706,297.5L144.55852156057495,297.3L141.72940908053843,296.90000000000003L138.90029660050195,297.7L136.16244581336986,298.3L133.33333333333331,297.4L130.59548254620123,298.8L127.77017263670241,297.4L125.21484523537912,297.09999999999997L122.38573275534262,297.8L119.55662027530612,298.9L116.81496691763633,298.7L113.98585443759981,298.7L111.24800365046772,297.2L108.41889117043122,298.40000000000003L105.5897786903947,297.4L102.8519279032626,297.4L100.0228154232261,298.1L97.284964636094,298.8L94.45965472659518,298.2L91.81306563236748,298L88.98395315233097,298.8L86.15484067229447,297.7L83.41318731462468,298.9L80.58407483458818,298.5L77.84622404745608,299.5L75.01711156741958,299.1L72.18799908738308,299.7L69.45014830025097,298.9L66.62103582021447,299.4L63.88318503308237,299.6L61.057875123583536,299.5L58.502547722260246,299.1L55.673435242223746,299.6L52.84432276218723,299.1L50.10266940451745,299.6L47.27355692448095,300L44.535706137348846,299.6L41.70659365731234,299.6L38.87748117727584,299.90000000000003L36.139630390143736,300L33.31051791010724,299.7L30.572667122975133,300L27.74735721347631,299.8L25.192029812153017,300L22.36291733211651,300L19.533804852080006,300L16.79215149441022,300L13.963039014373715,300L11.225188227241615,300L8.39607574720511,300L0,300Z" fill="#4c78a8" opacity="0.7"/></g></g><path class="foreground" aria-hidden="true" d="" display="none"/></g><g transform="translate(0,0)"><path class="background" aria-hidden="true" d="M0,0h400v300h-400Z"/><g><g class="mark-area role-mark marks" role="graphics-symbol" aria-roledescription="area mark container"><path d="M0,300L8.39607574720511,300L11.225188227241615,300L13.963039014373715,300L16.79215149441022,300L19.533804852080006,300L22.36291733211651,300L25.192029812153017,300L27.74735721347631,299.8L30.572667122975133,300L33.31051791010724,299.7L36.139630390143736,300L38.87748117727584,299.90000000000003L41.70659365731234,299.6L44.535706137348846,299.6L47.27355692448095,300L50.10266940451745,299.6L52.84432276218723,299.1L55.673435242223746,299.6L58.502547722260246,299.1L61.057875123583536,299.5L63.88318503308237,299.6L66.62103582021447,299.4L69.45014830025097,298.9L72.18799908738308,299.7L75.01711156741958,299.1L77.84622404745608,299.5L80.58407483458818,298.5L83.41318731462468,298.9L86.15484067229447,297.7L88.98395315233097,298.8L91.81306563236748,298L94.45965472659518,298.2L97.284964636094,298.8L100.0228154232261,298.1L102.8519279032626,297.4L105.5897786903947,297.4L108.41889117043122,298.40000000000003L111.24800365046772,297.2L113.98585443759981,298.7L116.81496691763633,298.7L119.55662027530612,298.9L122.38573275534262,297.8L125.21484523537912,297.09999999999997L127.77017263670241,297.4L130.59548254620123,298.8L133.33333333333331,297.4L136.16244581336986,298.3L138.90029660050195,297.7L141.72940908053843,296.90000000000003L144.55852156057495,297.3L147.29637234770706,297.5L150.12548482774355,296.90000000000003L152.86713818541332,297.7L155.69625066544987,296.8L158.52536314548635,297.3L161.08069054680965,297.6L163.90600045630845,296.90000000000003L166.64385124344057,295.1L169.47296372347708,297.09999999999997L172.21081451060917,296.90000000000003L175.03992699064568,296.7L177.86903947068217,296.2L180.60689025781429,295.8L183.4360027378508,296.1L186.17765609552058,296.6L189.00676857555706,294.2L191.83588105559357,295.7L194.3912084569169,293.5L197.2165183664157,294.9L199.95436915354782,294.09999999999997L202.78348163358427,294.2L205.5213324207164,293.9L208.3504449007529,294.8L211.1795573807894,294.3L213.9174081679215,289.3L216.746520647958,294.8L219.4881740056278,292.3L222.3172864856643,288L225.14639896570083,291.7L227.7929880599285,294.2L230.61829796942735,293.09999999999997L233.35614875655946,293.6L236.18526123659595,294.9L238.92311202372804,294L241.75222450376452,292.7L244.58133698380107,293.4L247.31918777093313,294.4L250.14830025096964,294.5L252.88995360863944,289.6L255.71906608867593,292.8L258.54817856871244,294.4L261.1035059700357,293.7L263.92881587953457,294.5L266.66666666666663,292.6L269.49577914670317,293L272.2336299338353,290.4L275.0627424138718,289.90000000000003L277.89185489390826,285.9L280.6297056810404,288.59999999999997L283.45881816107686,291.3L286.20047151874667,288.1L289.02958399878315,288.3L291.8586964788197,286.3L294.41402388014296,286.8L297.23933378964176,291.2L299.9771845767739,288.40000000000003L302.80629705681037,289.1L305.5441478439425,286.90000000000003L308.373260323979,286.90000000000003L311.2023728040155,283.90000000000003L313.9402235911476,288.59999999999997L316.7693360711841,285.5L319.5109894288539,283.90000000000003L322.3401019088904,287.8L325.16921438892695,286.2L327.7245417902502,281.70000000000005L330.549851699749,288.40000000000003L333.28770248688113,288.40000000000003L336.1168149669176,287.3L338.85466575404973,282.59999999999997L341.6837782340862,290L344.51289071412276,286L347.2507415012549,288.2L350.07985398129136,287.3L352.8215073389611,288L355.65061981899765,287.2L358.47973229903414,282.1L361.12632139326183,282.1L363.95163130276063,288.8L366.68948208989275,289.5L369.51859456992923,288.1L372.25644535706135,289.3L375.0855578370979,290.5L377.9146703171344,290.7L380.6525211042665,288.2L383.481633584303,286.7L386.2232869419728,287.6L389.0523994220093,288.7L391.88151190204576,284.3L394.4368393033691,283L397.2621492128679,283.3L400,277.5L400,300L397.2621492128679,300L394.4368393033691,300L391.88151190204576,300L389.0523994220093,300L386.2232869419728,300L383.481633584303,300L380.6525211042665,300L377.9146703171344,300L375.0855578370979,300L372.25644535706135,300L369.51859456992923,300L366.68948208989275,300L363.95163130276063,300L361.12632139326183,300L358.47973229903414,300L355.65061981899765,300L352.8215073389611,300L350.07985398129136,300L347.2507415012549,300L344.51289071412276,300L341.6837782340862,300L338.85466575404973,300L336.1168149669176,300L333.28770248688113,300L330.549851699749,300L327.7245417902502,300L325.16921438892695,300L322.3401019088904,300L319.5109894288539,300L316.7693360711841,300L313.9402235911476,300L311.2023728040155,300L308.373260323979,300L305.5441478439425,300L302.80629705681037,300L299.9771845767739,300L297.23933378964176,300L294.41402388014296,300L291.8586964788197,300L289.02958399878315,300L286.20047151874667,300L283.45881816107686,300L280.6297056810404,300L277.89185489390826,300L275.0627424138718,300L272.2336299338353,300L269.49577914670317,300L266.66666666666663,300L263.92881587953457,300L261.1035059700357,300L258.54817856871244,300L255.71906608867593,300L252.88995360863944,300L250.14830025096964,300L247.31918777093313,300L244.58133698380107,300L241.75222450376452,300L238.92311202372804,300L236.18526123659595,300L233.35614875655946,300L230.61829796942735,300L227.7929880599285,300L225.14639896570083,300L222.3172864856643,300L219.4881740056278,300L216.746520647958,300L213.9174081679215,300L211.1795573807894,300L208.3504449007529,300L205.5213324207164,300L202.78348163358427,300L199.95436915354782,300L197.2165183664157,300L194.3912084569169,300L191.83588105559357,300L189.00676857555706,300L186.17765609552058,300L183.4360027378508,300L180.60689025781429,300L177.86903947068217,300L175.03992699064568,300L172.21081451060917,300L169.47296372347708,300L166.64385124344057,300L163.90600045630845,300L161.08069054680965,300L158.52536314548635,300L155.69625066544987,300L152.86713818541332,300L150.12548482774355,300L147.29637234770706,300L144.55852156057495,300L141.72940908053843,300L138.90029660050195,300L136.16244581336986,300L133.33333333333331,300L130.59548254620123,300L127.77017263670241,300L125.21484523537912,300L122.38573275534262,300L119.55662027530612,300L116.81496691763633,300L113.98585443759981,300L111.24800365046772,300L108.41889117043122,300L105.5897786903947,300L102.8519279032626,300L100.0228154232261,300L97.284964636094,300L94.45965472659518,300L91.81306563236748,300L88.98395315233097,300L86.15484067229447,300L83.41318731462468,300L80.58407483458818,300L77.84622404745608,300L75.01711156741958,300L72.18799908738308,300L69.45014830025097,300L66.62103582021447,300L63.88318503308237,300L61.057875123583536,300L58.502547722260246,300L55.673435242223746,300L52.84432276218723,300L50.10266940451745,300L47.27355692448095,300L44.535706137348846,300L41.70659365731234,300L38.87748117727584,300L36.139630390143736,300L33.31051791010724,300L30.572667122975133,300L27.74735721347631,300L25.192029812153017,300L22.36291733211651,300L19.533804852080006,300L16.79215149441022,300L13.963039014373715,300L11.225188227241615,300L8.39607574720511,300L0,300Z" fill="#f58518" opacity="0.7"/></g></g><path class="foreground" aria-hidden="true" d="" display="none"/></g></g><g class="mark-group role-legend" role="graphics-symbol" aria-roledescription="legend" aria-label="Symbol legend titled 'comment' for fill color with 2 values: comment, submission"><g transform="translate(418,0)"><path class="background" aria-hidden="true" d="M0,0h68v40h-68Z" pointer-events="none"/><g><g class="mark-group role-legend-entry"><g transform="translate(0,16)"><path class="background" aria-hidden="true" d="M0,0h0v0h0Z" pointer-events="none"/><g><g class="mark-group role-scope" role="graphics-object" aria-roledescription="group mark container"><g transform="translate(0,0)"><path class="background" aria-hidden="true" d="M0,0h67.679931640625v11h-67.679931640625Z" pointer-events="none" opacity="1"/><g><g class="mark-symbol role-legend-symbol" pointer-events="none"><path transform="translate(6,6)" d="M5,0A5,5,0,1,1,-5,0A5,5,0,1,1,5,0" fill="#4c78a8" stroke-width="1.5" opacity="0.7"/></g><g class="mark-text role-legend-label" pointer-events="none"><text text-anchor="start" transform="translate(16,9)" font-family="sans-serif" font-size="10px" fill="#000" opacity="1">comment</text></g></g><path class="foreground" aria-hidden="true" d="" pointer-events="none" display="none"/></g><g transform="translate(0,13)"><path class="background" aria-hidden="true" d="M0,0h67.679931640625v11h-67.679931640625Z" pointer-events="none" opacity="1"/><g><g class="mark-symbol role-legend-symbol" pointer-events="none"><path transform="translate(6,6)" d="M5,0A5,5,0,1,1,-5,0A5,5,0,1,1,5,0" fill="#f58518" stroke-width="1.5" opacity="0.7"/></g><g class="mark-text role-legend-label" pointer-events="none"><text text-anchor="start" transform="translate(16,9)" font-family="sans-serif" font-size="10px" fill="#000" opacity="1">submission</text></g></g><path class="foreground" aria-hidden="true" d="" pointer-events="none" display="none"/></g></g></g><path class="foreground" aria-hidden="true" d="" pointer-events="none" display="none"/></g></g><g class="mark-text role-legend-title" pointer-events="none"><text text-anchor="start" transform="translate(0,9)" font-family="sans-serif" font-size="11px" font-weight="bold" fill="#000" opacity="1">comment</text></g></g><path class="foreground" aria-hidden="true" d="" pointer-events="none" display="none"/></g></g><g class="mark-group role-title"><g transform="translate(200,-34)"><path class="background" aria-hidden="true" d="M0,0h0v0h0Z" pointer-events="none"/><g><g class="mark-text role-title-text" role="graphics-symbol" aria-roledescription="title" aria-label="Title text 'Unique Author First Post by Month'" pointer-events="none"><text text-anchor="middle" transform="translate(0,20)" font-family="sans-serif" font-size="25px" font-weight="bold" fill="#000" opacity="1">Unique Author First Post by Month</text></g></g><path class="foreground" aria-hidden="true" d="" pointer-events="none" display="none"/></g></g></g><path class="foreground" aria-hidden="true" d="" display="none"/></g></g></g></svg>