<svg xmlns="http://www.w3.org/2000/svg" xmlns:xlink="http://www.w3.org/1999/xlink" version="1.1" class="marks" width="548" height="376" viewBox="0 0 548 376"><rect width="548" height="376" fill="white"/><g fill="none" stroke-miterlimit="10" transform="translate(57,39)"><g class="mark-group role-frame root" role="graphics-object" aria-roledescription="group mark container"><g transform="translate(0,0)"><path class="background" aria-hidden="true" d="M0.5,0.5h400v300h-400Z" stroke="#ddd"/><g><g class="mark-group role-axis" role="graphics-symbol" aria-roledescription="axis" aria-label="X-axis for a time scale with values from Friday, 01 May 2009, 12:00:00 AM to Saturday, 01 May 2021, 12:00:00 AM"><g transform="translate(0.5,300.5)"><path class="background" aria-hidden="true" d="M0,0h0v0h0Z" pointer-events="none"/><g><g class="mark-rule role-axis-grid" pointer-events="none"><line transform="translate(22,-300)" x2="0" y2="300" stroke="#ddd" stroke-width="1" opacity="1"/><line transform="translate(56,-300)" x2="0" y2="300" stroke="#ddd" stroke-width="1" opacity="1"/><line transform="translate(89,-300)" x2="0" y2="300" stroke="#ddd" stroke-width="1" opacity="1"/><line transform="translate(122,-300)" x2="0" y2="300" stroke="#ddd" stroke-width="1" opacity="1"/><line transform="translate(156,-300)" x2="0" y2="300" stroke="#ddd" stroke-width="1" opacity="1"/><line transform="translate(189,-300)" x2="0" y2="300" stroke="#ddd" stroke-width="1" opacity="1"/><line transform="translate(222,-300)" x2="0" y2="300" stroke="#ddd" stroke-width="1" opacity="1"/><line transform="translate(256,-300)" x2="0" y2="300" stroke="#ddd" stroke-width="1" opacity="1"/><line transform="translate(289,-300)" x2="0" y2="300" stroke="#ddd" stroke-width="1" opacity="1"/><line transform="translate(322,-300)" x2="0" y2="300" stroke="#ddd" stroke-width="1" opacity="1"/><line transform="translate(356,-300)" x2="0" y2="300" stroke="#ddd" stroke-width="1" opacity="1"/><line transform="translate(389,-300)" x2="0" y2="300" stroke="#ddd" stroke-width="1" opacity="1"/></g></g><path class="foreground" aria-hidden="true" d="" pointer-events="none" display="none"/></g></g><g class="mark-group role-axis" role="graphics-symbol" aria-roledescription="axis" aria-label="Y-axis for a linear scale with values from 0 to 16,000"><g transform="translate(0.5,0.5)"><path class="background" aria-hidden="true" d="M0,0h0v0h0Z" pointer-events="none"/><g><g class="mark-rule role-axis-grid" pointer-events="none"><line transform="translate(0,300)" x2="400" y2="0" stroke="#ddd" stroke-width="1" opacity="1"/><line transform="translate(0,263)" x2="400" y2="0" stroke="#ddd" stroke-width="1" opacity="1"/><line transform="translate(0,225)" x2="400" y2="0" stroke="#ddd" stroke-width="1" opacity="1"/><line transform="translate(0,188)" x2="400" y2="0" stroke="#ddd" stroke-width="1" opacity="1"/><line transform="translate(0,150)" x2="400" y2="0" stroke="#ddd" stroke-width="1" opacity="1"/><line transform="translate(0,113)" x2="400" y2="0" stroke="#ddd" stroke-width="1" opacity="1"/><line transform="translate(0,75)" x2="400" y2="0" stroke="#ddd" stroke-width="1" opacity="1"/><line transform="translate(0,38)" x2="400" y2="0" stroke="#ddd" stroke-width="1" opacity="1"/><line transform="translate(0,0)" x2="400" y2="0" stroke="#ddd" stroke-width="1" opacity="1"/></g></g><path class="foreground" aria-hidden="true" d="" pointer-events="none" display="none"/></g></g><g class="mark-group role-axis" role="graphics-symbol" aria-roledescription="axis" aria-label="X-axis titled 'Date (Year-Month)' for a time scale with values from Friday, 01 May 2009, 12:00:00 AM to Saturday, 01 May 2021, 12:00:00 AM"><g transform="translate(0.5,300.5)"><path class="background" aria-hidden="true" d="M0,0h0v0h0Z" pointer-events="none"/><g><g class="mark-rule role-axis-tick" pointer-events="none"><line transform="translate(22,0)" x2="0" y2="5" stroke="#888" stroke-width="1" opacity="1"/><line transform="translate(56,0)" x2="0" y2="5" stroke="#888" stroke-width="1" opacity="1"/><line transform="translate(89,0)" x2="0" y2="5" stroke="#888" stroke-width="1" opacity="1"/><line transform="translate(122,0)" x2="0" y2="5" stroke="#888" stroke-width="1" opacity="1"/><line transform="translate(156,0)" x2="0" y2="5" stroke="#888" stroke-width="1" opacity="1"/><line transform="translate(189,0)" x2="0" y2="5" stroke="#888" stroke-width="1" opacity="1"/><line transform="translate(222,0)" x2="0" y2="5" stroke="#888" stroke-width="1" opacity="1"/><line transform="translate(256,0)" x2="0" y2="5" stroke="#888" stroke-width="1" opacity="1"/><line transform="translate(289,0)" x2="0" y2="5" stroke="#888" stroke-width="1" opacity="1"/><line transform="translate(322,0)" x2="0" y2="5" stroke="#888" stroke-width="1" opacity="1"/><line transform="translate(356,0)" x2="0" y2="5" stroke="#888" stroke-width="1" opacity="1"/><line transform="translate(389,0)" x2="0" y2="5" stroke="#888" stroke-width="1" opacity="1"/></g><g class="mark-text role-axis-label" pointer-events="none"><text text-anchor="middle" transform="translate(22.36291733211651,15)" font-family="sans-serif" font-size="10px" fill="#000" opacity="1">Jan 2010</text><text text-anchor="middle" transform="translate(55.673435242223746,15)" font-family="sans-serif" font-size="10px" fill="#000" opacity="0">Jan 2011</text><text text-anchor="middle" transform="translate(88.98395315233097,15)" font-family="sans-serif" font-size="10px" fill="#000" opacity="1">Jan 2012</text><text text-anchor="middle" transform="translate(122.38573275534262,15)" font-family="sans-serif" font-size="10px" fill="#000" opacity="0">Jan 2013</text><text text-anchor="middle" transform="translate(155.69625066544987,15)" font-family="sans-serif" font-size="10px" fill="#000" opacity="1">Jan 2014</text><text text-anchor="middle" transform="translate(189.00676857555706,15)" font-family="sans-serif" font-size="10px" fill="#000" opacity="0">Jan 2015</text><text text-anchor="middle" transform="translate(222.3172864856643,15)" font-family="sans-serif" font-size="10px" fill="#000" opacity="1">Jan 2016</text><text text-anchor="middle" transform="translate(255.71906608867593,15)" font-family="sans-serif" font-size="10px" fill="#000" opacity="0">Jan 2017</text><text text-anchor="middle" transform="translate(289.02958399878315,15)" font-family="sans-serif" font-size="10px" fill="#000" opacity="1">Jan 2018</text><text text-anchor="middle" transform="translate(322.3401019088904,15)" font-family="sans-serif" font-size="10px" fill="#000" opacity="0">Jan 2019</text><text text-anchor="middle" transform="translate(355.65061981899765,15)" font-family="sans-serif" font-size="10px" fill="#000" opacity="1">Jan 2020</text><text text-anchor="middle" transform="translate(389.0523994220093,15)" font-family="sans-serif" font-size="10px" fill="#000" opacity="0">Jan 2021</text></g><g class="mark-rule role-axis-domain" pointer-events="none"><line transform="translate(0,0)" x2="400" y2="0" stroke="#888" stroke-width="1" opacity="1"/></g><g class="mark-text role-axis-title" pointer-events="none"><text text-anchor="middle" transform="translate(200,30)" font-family="sans-serif" font-size="11px" font-weight="bold" fill="#000" opacity="1">Date (Year-Month)</text></g></g><path class="foreground" aria-hidden="true" d="" pointer-events="none" display="none"/></g></g><g class="mark-group role-axis" role="graphics-symbol" aria-roledescription="axis" aria-label="Y-axis titled 'Count' for a linear scale with values from 0 to 16,000"><g transform="translate(0.5,0.5)"><path class="background" aria-hidden="true" d="M0,0h0v0h0Z" pointer-events="none"/><g><g class="mark-rule role-axis-tick" pointer-events="none"><line transform="translate(0,300)" x2="-5" y2="0" stroke="#888" stroke-width="1" opacity="1"/><line transform="translate(0,263)" x2="-5" y2="0" stroke="#888" stroke-width="1" opacity="1"/><line transform="translate(0,225)" x2="-5" y2="0" stroke="#888" stroke-width="1" opacity="1"/><line transform="translate(0,188)" x2="-5" y2="0" stroke="#888" stroke-width="1" opacity="1"/><line transform="translate(0,150)" x2="-5" y2="0" stroke="#888" stroke-width="1" opacity="1"/><line transform="translate(0,113)" x2="-5" y2="0" stroke="#888" stroke-width="1" opacity="1"/><line transform="translate(0,75)" x2="-5" y2="0" stroke="#888" stroke-width="1" opacity="1"/><line transform="translate(0,38)" x2="-5" y2="0" stroke="#888" stroke-width="1" opacity="1"/><line transform="translate(0,0)" x2="-5" y2="0" stroke="#888" stroke-width="1" opacity="1"/></g><g class="mark-text role-axis-label" pointer-events="none"><text text-anchor="end" transform="translate(-7,303)" font-family="sans-serif" font-size="10px" fill="#000" opacity="1">0</text><text text-anchor="end" transform="translate(-7,265.5)" font-family="sans-serif" font-size="10px" fill="#000" opacity="1">2,000</text><text text-anchor="end" transform="translate(-7,228)" font-family="sans-serif" font-size="10px" fill="#000" opacity="1">4,000</text><text text-anchor="end" transform="translate(-7,190.5)" font-family="sans-serif" font-size="10px" fill="#000" opacity="1">6,000</text><text text-anchor="end" transform="translate(-7,153)" font-family="sans-serif" font-size="10px" fill="#000" opacity="1">8,000</text><text text-anchor="end" transform="translate(-7,115.5)" font-family="sans-serif" font-size="10px" fill="#000" opacity="1">10,000</text><text text-anchor="end" transform="translate(-7,78)" font-family="sans-serif" font-size="10px" fill="#000" opacity="1">12,000</text><text text-anchor="end" transform="translate(-7,40.5)" font-family="sans-serif" font-size="10px" fill="#000" opacity="1">14,000</text><text text-anchor="end" transform="translate(-7,3)" font-family="sans-serif" font-size="10px" fill="#000" opacity="1">16,000</text></g><g class="mark-rule role-axis-domain" pointer-events="none"><line transform="translate(0,300)" x2="0" y2="-300" stroke="#888" stroke-width="1" opacity="1"/></g><g class="mark-text role-axis-title" pointer-events="none"><text text-anchor="middle" transform="translate(-40.0499267578125,150) rotate(-90) translate(0,-2)" font-family="sans-serif" font-size="11px" font-weight="bold" fill="#000" opacity="1">Count</text></g></g><path class="foreground" aria-hidden="true" d="" pointer-events="none" display="none"/></g></g><g class="mark-group role-scope pathgroup" role="graphics-object" aria-roledescription="group mark container"><g transform="translate(0,0)"><path class="background" aria-hidden="true" d="M0,0h400v300h-400Z"/><g><g class="mark-area role-mark marks" role="graphics-symbol" aria-roledescription="area mark container"><path d="M0,299.775L8.39607574720511,299.9625L11.225188227241615,299.94375L13.963039014373715,299.75625L16.79215149441022,299.325L19.533804852080006,298.7625L22.36291733211651,298.2L25.192029812153017,298.25625L27.74735721347631,297.6375L30.572667122975133,297.91875L33.31051791010724,296.04375L36.139630390143736,296.5875L38.87748117727584,294.88125L41.70659365731234,291.9375L44.535706137348846,292.5L47.27355692448095,292.10625L50.10266940451745,291.1875L52.84432276218723,290.08125L55.673435242223746,290.11875000000003L58.502547722260246,288.975L61.057875123583536,289.8L63.88318503308237,288.88125L66.62103582021447,287.55L69.45014830025097,286.70625L72.18799908738308,286.05L75.01711156741958,286.81875L77.84622404745608,284.925L80.58407483458818,284.6625L83.41318731462468,278.9625L86.15484067229447,280.425L88.98395315233097,280.65L91.81306563236748,278.75625L94.45965472659518,278.1L97.284964636094,279.1125L100.0228154232261,274.44375L102.8519279032626,270.4875L105.5897786903947,273.05625000000003L108.41889117043122,270.05625000000003L111.24800365046772,260.2125L113.98585443759981,269.19374999999997L116.81496691763633,271.18125000000003L119.55662027530612,266.86875000000003L122.38573275534262,264.1875L125.21484523537912,261.9L127.77017263670241,259.06875L130.59548254620123,261.3L133.33333333333331,257.98125L136.16244581336986,257.1375L138.90029660050195,255.61874999999998L141.72940908053843,255.1125L144.55852156057495,244.96875L147.29637234770706,247.29375L150.12548482774355,246.13124999999997L152.86713818541332,243.88125L155.69625066544987,234.65625L158.52536314548635,228.80624999999998L161.08069054680965,233.53125L163.90600045630845,240.01875L166.64385124344057,231.50625L169.47296372347708,227.43749999999997L172.21081451060917,226.10625000000002L175.03992699064568,229.575L177.86903947068217,217.89375L180.60689025781429,223.78124999999997L183.4360027378508,220.27500000000003L186.17765609552058,214.725L189.00676857555706,205.9125L191.83588105559357,208.5375L194.3912084569169,193.06875000000002L197.2165183664157,194.94375L199.95436915354782,195.24375L202.78348163358427,190.9875L205.5213324207164,189.5625L208.3504449007529,196.83750000000003L211.1795573807894,187.27499999999998L213.9174081679215,159.13125L216.746520647958,186.31875000000002L219.4881740056278,183.56249999999997L222.3172864856643,184.74375L225.14639896570083,187.01250000000002L227.7929880599285,178.35000000000002L230.61829796942735,172.29375L233.35614875655946,177.7875L236.18526123659595,174.54375000000002L238.92311202372804,167.41875000000002L241.75222450376452,156.91875L244.58133698380107,147L247.31918777093313,176.7L250.14830025096964,168.71250000000003L252.88995360863944,125.7375L255.71906608867593,173.04375L258.54817856871244,156.7125L261.1035059700357,130.70625L263.92881587953457,144.82500000000002L266.66666666666663,148.65L269.49577914670317,127.68750000000001L272.2336299338353,114.975L275.0627424138718,105.7875L277.89185489390826,85.21875L280.6297056810404,125.51250000000002L283.45881816107686,117.525L286.20047151874667,95.9625L289.02958399878315,109.9875L291.8586964788197,89.51249999999999L294.41402388014296,77.10000000000001L297.23933378964176,95.775L299.9771845767739,74.58749999999999L302.80629705681037,64.425L305.5441478439425,65.925L308.373260323979,29.999999999999993L311.2023728040155,30.262500000000014L313.9402235911476,61.462500000000006L316.7693360711841,53.23125000000001L319.5109894288539,41.56875000000001L322.3401019088904,23.381249999999998L325.16921438892695,41.04375L327.7245417902502,21.131250000000012L330.549851699749,57.95624999999999L333.28770248688113,76.06875000000001L336.1168149669176,52.59374999999999L338.85466575404973,58.14375000000002L341.6837782340862,72.69375000000001L344.51289071412276,32.4L347.2507415012549,95.51249999999999L350.07985398129136,63.46874999999999L352.8215073389611,64.03124999999999L355.65061981899765,72.31875L358.47973229903414,50.64375000000001L361.12632139326183,31.98749999999999L363.95163130276063,96.54374999999999L366.68948208989275,103.38749999999999L369.51859456992923,97.74374999999999L372.25644535706135,104.64375L375.0855578370979,112.5L377.9146703171344,84.58124999999998L380.6525211042665,103.8375L383.481633584303,102.99375L386.2232869419728,104.11875000000002L389.0523994220093,118.51875L391.88151190204576,90.8625L394.4368393033691,60.0375L397.2621492128679,90.54375000000002L400,80.32500000000002L400,255L397.2621492128679,257.86875L394.4368393033691,248.38125L391.88151190204576,257.41875L389.0523994220093,262.93125L386.2232869419728,262.66875L383.481633584303,260.86875L380.6525211042665,258.31875L377.9146703171344,257.98125L375.0855578370979,263.41875L372.25644535706135,261.1125L369.51859456992923,259.425L366.68948208989275,262.2375L363.95163130276063,262.0875L361.12632139326183,235.21875L358.47973229903414,238.14375L355.65061981899765,250.40625L352.8215073389611,250.125L350.07985398129136,244.875L347.2507415012549,256.63124999999997L344.51289071412276,237.4125L341.6837782340862,250.35000000000002L338.85466575404973,242.3625L336.1168149669176,242.6625L333.28770248688113,249.375L330.549851699749,244.98749999999998L327.7245417902502,230.26875L325.16921438892695,242.15624999999994L322.3401019088904,232.5L319.5109894288539,237.05625000000003L316.7693360711841,242.23125000000002L313.9402235911476,249L311.2023728040155,231.82500000000002L308.373260323979,235.5L305.5441478439425,240.825L302.80629705681037,248.60625000000005L299.9771845767739,247.63125000000002L297.23933378964176,251.56875L294.41402388014296,246.16875L291.8586964788197,243.0375L289.02958399878315,255.41250000000002L286.20047151874667,249.54375000000002L283.45881816107686,256.6875L280.6297056810404,257.28749999999997L277.89185489390826,245.98125L275.0627424138718,253.95000000000002L272.2336299338353,253.5375L269.49577914670317,259.70624999999995L266.66666666666663,262.81874999999997L263.92881587953457,261.09375L261.1035059700357,259.51875L258.54817856871244,263.5125L255.71906608867593,267.63750000000005L252.88995360863944,252.075L250.14830025096964,266.98125L247.31918777093313,269.625L244.58133698380107,260.3625L241.75222450376452,264.16875L238.92311202372804,264.9375L236.18526123659595,268.2375L233.35614875655946,267.1875L230.61829796942735,266.23125L227.7929880599285,267.8625L225.14639896570083,270.90000000000003L222.3172864856643,268.55625000000003L219.4881740056278,269.0625L216.746520647958,271.4625L213.9174081679215,259.35L211.1795573807894,269.15625L208.3504449007529,274.125L205.5213324207164,269.68125L202.78348163358427,270.71250000000003L199.95436915354782,272.0625L197.2165183664157,273.075L194.3912084569169,272.475L191.83588105559357,276.50625L189.00676857555706,276.45L186.17765609552058,278.9625L183.4360027378508,280.36875L180.60689025781429,280.59375L177.86903947068217,278.3625L175.03992699064568,283.10625L172.21081451060917,282.28125L169.47296372347708,282.6375L166.64385124344057,281.49375L163.90600045630845,285.0375L161.08069054680965,283.5L158.52536314548635,284.60625L155.69625066544987,285.15L152.86713818541332,286.1625L150.12548482774355,286.27500000000003L147.29637234770706,286.7625L144.55852156057495,286.78125L141.72940908053843,288.80625000000003L138.90029660050195,289.33125L136.16244581336986,290.09999999999997L133.33333333333331,290.34375L130.59548254620123,291.375L127.77017263670241,290.25L125.21484523537912,290.6625L122.38573275534262,291.76875L119.55662027530612,293.2125L116.81496691763633,294.1125L113.98585443759981,293.34375L111.24800365046772,291.6375L108.41889117043122,293.08125L105.5897786903947,293.1375L102.8519279032626,292.89375L100.0228154232261,294.075L97.284964636094,295.0875L94.45965472659518,294.76875L91.81306563236748,294.76875L88.98395315233097,295.5L86.15484067229447,295.70625L83.41318731462468,296.08125L80.58407483458818,296.325L77.84622404745608,296.3625L75.01711156741958,297.1125L72.18799908738308,296.86875L69.45014830025097,297.1125L66.62103582021447,297.15000000000003L63.88318503308237,297.84375L61.057875123583536,297.65625L58.502547722260246,297.5625L55.673435242223746,297.7125L52.84432276218723,297.75L50.10266940451745,298.35L47.27355692448095,298.3875L44.535706137348846,298.40625L41.70659365731234,298.40625L38.87748117727584,298.9125L36.139630390143736,299.4375L33.31051791010724,299.25L30.572667122975133,299.625L27.74735721347631,299.49375000000003L25.192029812153017,299.64375L22.36291733211651,299.66249999999997L19.533804852080006,299.71875L16.79215149441022,299.83125L13.963039014373715,299.925L11.225188227241615,299.9625L8.39607574720511,299.98125L0,299.94375Z" fill="#4c78a8" opacity="0.7"/></g></g><path class="foreground" aria-hidden="true" d="" display="none"/></g><g transform="translate(0,0)"><path class="background" aria-hidden="true" d="M0,0h400v300h-400Z"/><g><g class="mark-area role-mark marks" role="graphics-symbol" aria-roledescription="area mark container"><path d="M0,299.94375L8.39607574720511,299.98125L11.225188227241615,299.9625L13.963039014373715,299.925L16.79215149441022,299.83125L19.533804852080006,299.71875L22.36291733211651,299.66249999999997L25.192029812153017,299.64375L27.74735721347631,299.49375000000003L30.572667122975133,299.625L33.31051791010724,299.25L36.139630390143736,299.4375L38.87748117727584,298.9125L41.70659365731234,298.40625L44.535706137348846,298.40625L47.27355692448095,298.3875L50.10266940451745,298.35L52.84432276218723,297.75L55.673435242223746,297.7125L58.502547722260246,297.5625L61.057875123583536,297.65625L63.88318503308237,297.84375L66.62103582021447,297.15000000000003L69.45014830025097,297.1125L72.18799908738308,296.86875L75.01711156741958,297.1125L77.84622404745608,296.3625L80.58407483458818,296.325L83.41318731462468,296.08125L86.15484067229447,295.70625L88.98395315233097,295.5L91.81306563236748,294.76875L94.45965472659518,294.76875L97.284964636094,295.0875L100.0228154232261,294.075L102.8519279032626,292.89375L105.5897786903947,293.1375L108.41889117043122,293.08125L111.24800365046772,291.6375L113.98585443759981,293.34375L116.81496691763633,294.1125L119.55662027530612,293.2125L122.38573275534262,291.76875L125.21484523537912,290.6625L127.77017263670241,290.25L130.59548254620123,291.375L133.33333333333331,290.34375L136.16244581336986,290.09999999999997L138.90029660050195,289.33125L141.72940908053843,288.80625000000003L144.55852156057495,286.78125L147.29637234770706,286.7625L150.12548482774355,286.27500000000003L152.86713818541332,286.1625L155.69625066544987,285.15L158.52536314548635,284.60625L161.08069054680965,283.5L163.90600045630845,285.0375L166.64385124344057,281.49375L169.47296372347708,282.6375L172.21081451060917,282.28125L175.03992699064568,283.10625L177.86903947068217,278.3625L180.60689025781429,280.59375L183.4360027378508,280.36875L186.17765609552058,278.9625L189.00676857555706,276.45L191.83588105559357,276.50625L194.3912084569169,272.475L197.2165183664157,273.075L199.95436915354782,272.0625L202.78348163358427,270.71250000000003L205.5213324207164,269.68125L208.3504449007529,274.125L211.1795573807894,269.15625L213.9174081679215,259.35L216.746520647958,271.4625L219.4881740056278,269.0625L222.3172864856643,268.55625000000003L225.14639896570083,270.90000000000003L227.7929880599285,267.8625L230.61829796942735,266.23125L233.35614875655946,267.1875L236.18526123659595,268.2375L238.92311202372804,264.9375L241.75222450376452,264.16875L244.58133698380107,260.3625L247.31918777093313,269.625L250.14830025096964,266.98125L252.88995360863944,252.075L255.71906608867593,267.63750000000005L258.54817856871244,263.5125L261.1035059700357,259.51875L263.92881587953457,261.09375L266.66666666666663,262.81874999999997L269.49577914670317,259.70624999999995L272.2336299338353,253.5375L275.0627424138718,253.95000000000002L277.89185489390826,245.98125L280.6297056810404,257.28749999999997L283.45881816107686,256.6875L286.20047151874667,249.54375000000002L289.02958399878315,255.4125L291.8586964788197,243.0375L294.41402388014296,246.16875L297.23933378964176,251.56875L299.9771845767739,247.63125000000002L302.80629705681037,248.60625000000002L305.5441478439425,240.825L308.373260323979,235.5L311.2023728040155,231.82500000000002L313.9402235911476,249L316.7693360711841,242.23125000000002L319.5109894288539,237.05625L322.3401019088904,232.5L325.16921438892695,242.15624999999997L327.7245417902502,230.26875L330.549851699749,244.98749999999998L333.28770248688113,249.375L336.1168149669176,242.6625L338.85466575404973,242.3625L341.6837782340862,250.35L344.51289071412276,237.4125L347.2507415012549,256.63124999999997L350.07985398129136,244.875L352.8215073389611,250.125L355.65061981899765,250.40625L358.47973229903414,238.14375L361.12632139326183,235.21875L363.95163130276063,262.0875L366.68948208989275,262.2375L369.51859456992923,259.425L372.25644535706135,261.1125L375.0855578370979,263.41875L377.9146703171344,257.98125L380.6525211042665,258.31875L383.481633584303,260.86875L386.2232869419728,262.66875L389.0523994220093,262.93125L391.88151190204576,257.41875L394.4368393033691,248.38125L397.2621492128679,257.86875L400,255L400,300L397.2621492128679,300L394.4368393033691,300L391.88151190204576,300L389.0523994220093,300L386.2232869419728,300L383.481633584303,300L380.6525211042665,300L377.9146703171344,300L375.0855578370979,300L372.25644535706135,300L369.51859456992923,300L366.68948208989275,300L363.95163130276063,300L361.12632139326183,300L358.47973229903414,300L355.65061981899765,300L352.8215073389611,300L350.07985398129136,300L347.2507415012549,300L344.51289071412276,300L341.6837782340862,300L338.85466575404973,300L336.1168149669176,300L333.28770248688113,300L330.549851699749,300L327.7245417902502,300L325.16921438892695,300L322.3401019088904,300L319.5109894288539,300L316.7693360711841,300L313.9402235911476,300L311.2023728040155,300L308.373260323979,300L305.5441478439425,300L302.80629705681037,300L299.9771845767739,300L297.23933378964176,300L294.41402388014296,300L291.8586964788197,300L289.02958399878315,300L286.20047151874667,300L283.45881816107686,300L280.6297056810404,300L277.89185489390826,300L275.0627424138718,300L272.2336299338353,300L269.49577914670317,300L266.66666666666663,300L263.92881587953457,300L261.1035059700357,300L258.54817856871244,300L255.71906608867593,300L252.88995360863944,300L250.14830025096964,300L247.31918777093313,300L244.58133698380107,300L241.75222450376452,300L238.92311202372804,300L236.18526123659595,300L233.35614875655946,300L230.61829796942735,300L227.7929880599285,300L225.14639896570083,300L222.3172864856643,300L219.4881740056278,300L216.746520647958,300L213.9174081679215,300L211.1795573807894,300L208.3504449007529,300L205.5213324207164,300L202.78348163358427,300L199.95436915354782,300L197.2165183664157,300L194.3912084569169,300L191.83588105559357,300L189.00676857555706,300L186.17765609552058,300L183.4360027378508,300L180.60689025781429,300L177.86903947068217,300L175.03992699064568,300L172.21081451060917,300L169.47296372347708,300L166.64385124344057,300L163.90600045630845,300L161.08069054680965,300L158.52536314548635,300L155.69625066544987,300L152.86713818541332,300L150.12548482774355,300L147.29637234770706,300L144.55852156057495,300L141.72940908053843,300L138.90029660050195,300L136.16244581336986,300L133.33333333333331,300L130.59548254620123,300L127.77017263670241,300L125.21484523537912,300L122.38573275534262,300L119.55662027530612,300L116.81496691763633,300L113.98585443759981,300L111.24800365046772,300L108.41889117043122,300L105.5897786903947,300L102.8519279032626,300L100.0228154232261,300L97.284964636094,300L94.45965472659518,300L91.81306563236748,300L88.98395315233097,300L86.15484067229447,300L83.41318731462468,300L80.58407483458818,300L77.84622404745608,300L75.01711156741958,300L72.18799908738308,300L69.45014830025097,300L66.62103582021447,300L63.88318503308237,300L61.057875123583536,300L58.502547722260246,300L55.673435242223746,300L52.84432276218723,300L50.10266940451745,300L47.27355692448095,300L44.535706137348846,300L41.70659365731234,300L38.87748117727584,300L36.139630390143736,300L33.31051791010724,300L30.572667122975133,300L27.74735721347631,300L25.192029812153017,300L22.36291733211651,300L19.533804852080006,300L16.79215149441022,300L13.963039014373715,300L11.225188227241615,300L8.39607574720511,300L0,300Z" fill="#f58518" opacity="0.7"/></g></g><path class="foreground" aria-hidden="true" d="" display="none"/></g></g><g class="mark-group role-legend" role="graphics-symbol" aria-roledescription="legend" aria-label="Symbol legend titled 'comment' for fill color with 2 values: comment, submission"><g transform="translate(418,0)"><path class="background" aria-hidden="true" d="M0,0h68v40h-68Z" pointer-events="none"/><g><g class="mark-group role-legend-entry"><g transform="translate(0,16)"><path class="background" aria-hidden="true" d="M0,0h0v0h0Z" pointer-events="none"/><g><g class="mark-group role-scope" role="graphics-object" aria-roledescription="group mark container"><g transform="translate(0,0)"><path class="background" aria-hidden="true" d="M0,0h67.679931640625v11h-67.679931640625Z" pointer-events="none" opacity="1"/><g><g class="mark-symbol role-legend-symbol" pointer-events="none"><path transform="translate(6,6)" d="M5,0A5,5,0,1,1,-5,0A5,5,0,1,1,5,0" fill="#4c78a8" stroke-width="1.5" opacity="0.7"/></g><g class="mark-text role-legend-label" pointer-events="none"><text text-anchor="start" transform="translate(16,9)" font-family="sans-serif" font-size="10px" fill="#000" opacity="1">comment</text></g></g><path class="foreground" aria-hidden="true" d="" pointer-events="none" display="none"/></g><g transform="translate(0,13)"><path class="background" aria-hidden="true" d="M0,0h67.679931640625v11h-67.679931640625Z" pointer-events="none" opacity="1"/><g><g class="mark-symbol role-legend-symbol" pointer-events="none"><path transform="translate(6,6)" d="M5,0A5,5,0,1,1,-5,0A5,5,0,1,1,5,0" fill="#f58518" stroke-width="1.5" opacity="0.7"/></g><g class="mark-text role-legend-label" pointer-events="none"><text text-anchor="start" transform="translate(16,9)" font-family="sans-serif" font-size="10px" fill="#000" opacity="1">submission</text></g></g><path class="foreground" aria-hidden="true" d="" pointer-events="none" display="none"/></g></g></g><path class="foreground" aria-hidden="true" d="" pointer-events="none" display="none"/></g></g><g class="mark-text role-legend-title" pointer-events="none"><text text-anchor="start" transform="translate(0,9)" font-family="sans-serif" font-size="11px" font-weight="bold" fill="#000" opacity="1">comment</text></g></g><path class="foreground" aria-hidden="true" d="" pointer-events="none" display="none"/></g></g><g class="mark-group role-title"><g transform="translate(200,-34)"><path class="background" aria-hidden="true" d="M0,0h0v0h0Z" pointer-events="none"/><g><g class="mark-text role-title-text" role="graphics-symbol" aria-roledescription="title" aria-label="Title text 'Unique Authors by Month'" pointer-events="none"><text text-anchor="middle" transform="translate(0,20)" font-family="sans-serif" font-size="25px" font-weight="bold" fill="#000" opacity="1">Unique Authors by Month</text></g></g><path class="foreground" aria-hidden="true" d="" pointer-events="none" display="none"/></g></g></g><path class="foreground" aria-hidden="true" d="" display="none"/></g></g></g></svg>