<svg xmlns="http://www.w3.org/2000/svg" xmlns:xlink="http://www.w3.org/1999/xlink" version="1.1" class="marks" width="903" height="677" viewBox="0 0 903 677"><rect width="903" height="677" fill="white"/><g fill="none" stroke-miterlimit="10" transform="translate(53,27)"><g class="mark-group role-frame root" role="graphics-object" aria-roledescription="group mark container"><g transform="translate(0,0)"><path class="background" aria-hidden="true" d="M0.5,0.5h800v600h-800Z" stroke="#ddd"/><g><g class="mark-group role-axis" aria-hidden="true"><g transform="translate(0.5,0.5)"><path class="background" aria-hidden="true" d="M0,0h0v0h0Z" pointer-events="none"/><g><g class="mark-rule role-axis-grid" pointer-events="none"><line transform="translate(0,600)" x2="800" y2="0" stroke="#ddd" stroke-width="1" opacity="1"/><line transform="translate(0,554)" x2="800" y2="0" stroke="#ddd" stroke-width="1" opacity="1"/><line transform="translate(0,508)" x2="800" y2="0" stroke="#ddd" stroke-width="1" opacity="1"/><line transform="translate(0,462)" x2="800" y2="0" stroke="#ddd" stroke-width="1" opacity="1"/><line transform="translate(0,415)" x2="800" y2="0" stroke="#ddd" stroke-width="1" opacity="1"/><line transform="translate(0,369)" x2="800" y2="0" stroke="#ddd" stroke-width="1" opacity="1"/><line transform="translate(0,323)" x2="800" y2="0" stroke="#ddd" stroke-width="1" opacity="1"/><line transform="translate(0,277)" x2="800" y2="0" stroke="#ddd" stroke-width="1" opacity="1"/><line transform="translate(0,231)" x2="800" y2="0" stroke="#ddd" stroke-width="1" opacity="1"/><line transform="translate(0,185)" x2="800" y2="0" stroke="#ddd" stroke-width="1" opacity="1"/><line transform="translate(0,138)" x2="800" y2="0" stroke="#ddd" stroke-width="1" opacity="1"/><line transform="translate(0,92)" x2="800" y2="0" stroke="#ddd" stroke-width="1" opacity="1"/><line transform="translate(0,46)" x2="800" y2="0" stroke="#ddd" stroke-width="1" opacity="1"/><line transform="translate(0,0)" x2="800" y2="0" stroke="#ddd" stroke-width="1" opacity="1"/></g></g><path class="foreground" aria-hidden="true" d="" pointer-events="none" display="none"/></g></g><g class="mark-group role-axis" role="graphics-symbol" aria-roledescription="axis" aria-label="X-axis titled 'year' for a discrete scale with 21 values: 2003, 2004, 2005, 2006, 2007, ending with 2023"><g transform="translate(0.5,600.5)"><path class="background" aria-hidden="true" d="M0,0h0v0h0Z" pointer-events="none"/><g><g class="mark-rule role-axis-tick" pointer-events="none"><line transform="translate(22,0)" x2="0" y2="5" stroke="#888" stroke-width="1" opacity="1"/><line transform="translate(60,0)" x2="0" y2="5" stroke="#888" stroke-width="1" opacity="1"/><line transform="translate(98,0)" x2="0" y2="5" stroke="#888" stroke-width="1" opacity="1"/><line transform="translate(135,0)" x2="0" y2="5" stroke="#888" stroke-width="1" opacity="1"/><line transform="translate(173,0)" x2="0" y2="5" stroke="#888" stroke-width="1" opacity="1"/><line transform="translate(211,0)" x2="0" y2="5" stroke="#888" stroke-width="1" opacity="1"/><line transform="translate(249,0)" x2="0" y2="5" stroke="#888" stroke-width="1" opacity="1"/><line transform="translate(286,0)" x2="0" y2="5" stroke="#888" stroke-width="1" opacity="1"/><line transform="translate(324,0)" x2="0" y2="5" stroke="#888" stroke-width="1" opacity="1"/><line transform="translate(362,0)" x2="0" y2="5" stroke="#888" stroke-width="1" opacity="1"/><line transform="translate(399,0)" x2="0" y2="5" stroke="#888" stroke-width="1" opacity="1"/><line transform="translate(437,0)" x2="0" y2="5" stroke="#888" stroke-width="1" opacity="1"/><line transform="translate(475,0)" x2="0" y2="5" stroke="#888" stroke-width="1" opacity="1"/><line transform="translate(513,0)" x2="0" y2="5" stroke="#888" stroke-width="1" opacity="1"/><line transform="translate(550,0)" x2="0" y2="5" stroke="#888" stroke-width="1" opacity="1"/><line transform="translate(588,0)" x2="0" y2="5" stroke="#888" stroke-width="1" opacity="1"/><line transform="translate(626,0)" x2="0" y2="5" stroke="#888" stroke-width="1" opacity="1"/><line transform="translate(664,0)" x2="0" y2="5" stroke="#888" stroke-width="1" opacity="1"/><line transform="translate(701,0)" x2="0" y2="5" stroke="#888" stroke-width="1" opacity="1"/><line transform="translate(739,0)" x2="0" y2="5" stroke="#888" stroke-width="1" opacity="1"/><line transform="translate(777,0)" x2="0" y2="5" stroke="#888" stroke-width="1" opacity="1"/></g><g class="mark-text role-axis-label" pointer-events="none"><text text-anchor="end" transform="translate(22.141509433962227,7) rotate(270) translate(0,3)" font-family="sans-serif" font-size="10px" fill="#000" opacity="1">2003</text><text text-anchor="end" transform="translate(59.877358490566,7) rotate(270) translate(0,3)" font-family="sans-serif" font-size="10px" fill="#000" opacity="1">2004</text><text text-anchor="end" transform="translate(97.61320754716978,7) rotate(270) translate(0,3)" font-family="sans-serif" font-size="10px" fill="#000" opacity="1">2005</text><text text-anchor="end" transform="translate(135.34905660377356,7) rotate(270) translate(0,3)" font-family="sans-serif" font-size="10px" fill="#000" opacity="1">2006</text><text text-anchor="end" transform="translate(173.08490566037733,7) rotate(270) translate(0,3)" font-family="sans-serif" font-size="10px" fill="#000" opacity="1">2007</text><text text-anchor="end" transform="translate(210.8207547169811,7) rotate(270) translate(0,3)" font-family="sans-serif" font-size="10px" fill="#000" opacity="1">2008</text><text text-anchor="end" transform="translate(248.5566037735849,7) rotate(270) translate(0,3)" font-family="sans-serif" font-size="10px" fill="#000" opacity="1">2009</text><text text-anchor="end" transform="translate(286.2924528301886,7) rotate(270) translate(0,3)" font-family="sans-serif" font-size="10px" fill="#000" opacity="1">2010</text><text text-anchor="end" transform="translate(324.0283018867924,7) rotate(270) translate(0,3)" font-family="sans-serif" font-size="10px" fill="#000" opacity="1">2011</text><text text-anchor="end" transform="translate(361.7641509433962,7) rotate(270) translate(0,3)" font-family="sans-serif" font-size="10px" fill="#000" opacity="1">2012</text><text text-anchor="end" transform="translate(399.49999999999994,7) rotate(270) translate(0,3)" font-family="sans-serif" font-size="10px" fill="#000" opacity="1">2013</text><text text-anchor="end" transform="translate(437.23584905660374,7) rotate(270) translate(0,3)" font-family="sans-serif" font-size="10px" fill="#000" opacity="1">2014</text><text text-anchor="end" transform="translate(474.97169811320754,7) rotate(270) translate(0,3)" font-family="sans-serif" font-size="10px" fill="#000" opacity="1">2015</text><text text-anchor="end" transform="translate(512.7075471698113,7) rotate(270) translate(0,3)" font-family="sans-serif" font-size="10px" fill="#000" opacity="1">2016</text><text text-anchor="end" transform="translate(550.4433962264151,7) rotate(270) translate(0,3)" font-family="sans-serif" font-size="10px" fill="#000" opacity="1">2017</text><text text-anchor="end" transform="translate(588.1792452830189,7) rotate(270) translate(0,3)" font-family="sans-serif" font-size="10px" fill="#000" opacity="1">2018</text><text text-anchor="end" transform="translate(625.9150943396227,7) rotate(270) translate(0,3)" font-family="sans-serif" font-size="10px" fill="#000" opacity="1">2019</text><text text-anchor="end" transform="translate(663.6509433962265,7) rotate(270) translate(0,3)" font-family="sans-serif" font-size="10px" fill="#000" opacity="1">2020</text><text text-anchor="end" transform="translate(701.3867924528303,7) rotate(270) translate(0,3)" font-family="sans-serif" font-size="10px" fill="#000" opacity="1">2021</text><text text-anchor="end" transform="translate(739.122641509434,7) rotate(270) translate(0,3)" font-family="sans-serif" font-size="10px" fill="#000" opacity="1">2022</text><text text-anchor="end" transform="translate(776.8584905660377,7) rotate(270) translate(0,3)" font-family="sans-serif" font-size="10px" fill="#000" opacity="1">2023</text></g><g class="mark-rule role-axis-domain" pointer-events="none"><line transform="translate(0,0)" x2="800" y2="0" stroke="#888" stroke-width="1" opacity="1"/></g><g class="mark-text role-axis-title" pointer-events="none"><text text-anchor="middle" transform="translate(400,42.24609375)" font-family="sans-serif" font-size="11px" font-weight="bold" fill="#000" opacity="1">year</text></g></g><path class="foreground" aria-hidden="true" d="" pointer-events="none" display="none"/></g></g><g class="mark-group role-axis" role="graphics-symbol" aria-roledescription="axis" aria-label="Y-axis titled 'len' for a linear scale with values from 0 to 1,300"><g transform="translate(0.5,0.5)"><path class="background" aria-hidden="true" d="M0,0h0v0h0Z" pointer-events="none"/><g><g class="mark-rule role-axis-tick" pointer-events="none"><line transform="translate(0,600)" x2="-5" y2="0" stroke="#888" stroke-width="1" opacity="1"/><line transform="translate(0,554)" x2="-5" y2="0" stroke="#888" stroke-width="1" opacity="1"/><line transform="translate(0,508)" x2="-5" y2="0" stroke="#888" stroke-width="1" opacity="1"/><line transform="translate(0,462)" x2="-5" y2="0" stroke="#888" stroke-width="1" opacity="1"/><line transform="translate(0,415)" x2="-5" y2="0" stroke="#888" stroke-width="1" opacity="1"/><line transform="translate(0,369)" x2="-5" y2="0" stroke="#888" stroke-width="1" opacity="1"/><line transform="translate(0,323)" x2="-5" y2="0" stroke="#888" stroke-width="1" opacity="1"/><line transform="translate(0,277)" x2="-5" y2="0" stroke="#888" stroke-width="1" opacity="1"/><line transform="translate(0,231)" x2="-5" y2="0" stroke="#888" stroke-width="1" opacity="1"/><line transform="translate(0,185)" x2="-5" y2="0" stroke="#888" stroke-width="1" opacity="1"/><line transform="translate(0,138)" x2="-5" y2="0" stroke="#888" stroke-width="1" opacity="1"/><line transform="translate(0,92)" x2="-5" y2="0" stroke="#888" stroke-width="1" opacity="1"/><line transform="translate(0,46)" x2="-5" y2="0" stroke="#888" stroke-width="1" opacity="1"/><line transform="translate(0,0)" x2="-5" y2="0" stroke="#888" stroke-width="1" opacity="1"/></g><g class="mark-text role-axis-label" pointer-events="none"><text text-anchor="end" transform="translate(-7,603)" font-family="sans-serif" font-size="10px" fill="#000" opacity="1">0</text><text text-anchor="end" transform="translate(-7,556.8461538461539)" font-family="sans-serif" font-size="10px" fill="#000" opacity="1">100</text><text text-anchor="end" transform="translate(-7,510.6923076923077)" font-family="sans-serif" font-size="10px" fill="#000" opacity="1">200</text><text text-anchor="end" transform="translate(-7,464.5384615384615)" font-family="sans-serif" font-size="10px" fill="#000" opacity="1">300</text><text text-anchor="end" transform="translate(-7,418.38461538461536)" font-family="sans-serif" font-size="10px" fill="#000" opacity="1">400</text><text text-anchor="end" transform="translate(-7,372.2307692307692)" font-family="sans-serif" font-size="10px" fill="#000" opacity="1">500</text><text text-anchor="end" transform="translate(-7,326.07692307692304)" font-family="sans-serif" font-size="10px" fill="#000" opacity="1">600</text><text text-anchor="end" transform="translate(-7,279.92307692307696)" font-family="sans-serif" font-size="10px" fill="#000" opacity="1">700</text><text text-anchor="end" transform="translate(-7,233.76923076923075)" font-family="sans-serif" font-size="10px" fill="#000" opacity="1">800</text><text text-anchor="end" transform="translate(-7,187.6153846153846)" font-family="sans-serif" font-size="10px" fill="#000" opacity="1">900</text><text text-anchor="end" transform="translate(-7,141.46153846153842)" font-family="sans-serif" font-size="10px" fill="#000" opacity="1">1,000</text><text text-anchor="end" transform="translate(-7,95.3076923076923)" font-family="sans-serif" font-size="10px" fill="#000" opacity="1">1,100</text><text text-anchor="end" transform="translate(-7,49.153846153846125)" font-family="sans-serif" font-size="10px" fill="#000" opacity="1">1,200</text><text text-anchor="end" transform="translate(-7,3)" font-family="sans-serif" font-size="10px" fill="#000" opacity="1">1,300</text></g><g class="mark-rule role-axis-domain" pointer-events="none"><line transform="translate(0,600)" x2="0" y2="-600" stroke="#888" stroke-width="1" opacity="1"/></g><g class="mark-text role-axis-title" pointer-events="none"><text text-anchor="middle" transform="translate(-36.0244140625,300) rotate(-90) translate(0,-2)" font-family="sans-serif" font-size="11px" font-weight="bold" fill="#000" opacity="1">len</text></g></g><path class="foreground" aria-hidden="true" d="" pointer-events="none" display="none"/></g></g><g class="mark-rect role-mark marks" role="graphics-object" aria-roledescription="rect mark container"><path aria-label="year: 2003; len: 123; party: R" role="graphics-symbol" aria-roledescription="bar" d="M22.641509433962227,543.2307692307692h15.094339622641511v56.76923076923083h-15.094339622641511Z" fill="red"/><path aria-label="year: 2003; len: 149; party: D" role="graphics-symbol" aria-roledescription="bar" d="M7.547169811320714,531.2307692307693h15.094339622641511v68.76923076923072h-15.094339622641511Z" fill="blue"/><path aria-label="year: 2004; len: 153; party: R" role="graphics-symbol" aria-roledescription="bar" d="M60.377358490566,529.3846153846154h15.094339622641511v70.61538461538464h-15.094339622641511Z" fill="red"/><path aria-label="year: 2004; len: 457; party: D" role="graphics-symbol" aria-roledescription="bar" d="M45.28301886792449,389.07692307692304h15.094339622641511v210.92307692307696h-15.094339622641511Z" fill="blue"/><path aria-label="year: 2005; len: 955; party: D" role="graphics-symbol" aria-roledescription="bar" d="M83.01886792452827,159.2307692307692h15.094339622641511v440.76923076923083h-15.094339622641511Z" fill="blue"/><path aria-label="year: 2005; len: 940; party: R" role="graphics-symbol" aria-roledescription="bar" d="M98.11320754716978,166.15384615384616h15.094339622641511v433.8461538461538h-15.094339622641511Z" fill="red"/><path aria-label="year: 2006; len: 714; party: R" role="graphics-symbol" aria-roledescription="bar" d="M135.84905660377356,270.4615384615385h15.094339622641511v329.5384615384615h-15.094339622641511Z" fill="red"/><path aria-label="year: 2006; len: 1129; party: D" role="graphics-symbol" aria-roledescription="bar" d="M120.75471698113205,78.92307692307689h15.094339622641511v521.0769230769231h-15.094339622641511Z" fill="blue"/><path aria-label="year: 2007; len: 1039; party: D" role="graphics-symbol" aria-roledescription="bar" d="M158.49056603773582,120.46153846153848h15.094339622641511v479.53846153846155h-15.094339622641511Z" fill="blue"/><path aria-label="year: 2007; len: 424; party: R" role="graphics-symbol" aria-roledescription="bar" d="M173.58490566037733,404.3076923076923h15.094339622641511v195.69230769230768h-15.094339622641511Z" fill="red"/><path aria-label="year: 2008; len: 844; party: D" role="graphics-symbol" aria-roledescription="bar" d="M196.2264150943396,210.46153846153842h15.094339622641511v389.53846153846155h-15.094339622641511Z" fill="blue"/><path aria-label="year: 2008; len: 402; party: R" role="graphics-symbol" aria-roledescription="bar" d="M211.3207547169811,414.46153846153845h15.094339622641511v185.53846153846155h-15.094339622641511Z" fill="red"/><path aria-label="year: 2009; len: 595; party: R" role="graphics-symbol" aria-roledescription="bar" d="M249.0566037735849,325.3846153846154h15.094339622641511v274.6153846153846h-15.094339622641511Z" fill="red"/><path aria-label="year: 2009; len: 932; party: D" role="graphics-symbol" aria-roledescription="bar" d="M233.96226415094338,169.84615384615387h15.094339622641511v430.15384615384613h-15.094339622641511Z" fill="blue"/><path aria-label="year: 2010; len: 770; party: R" role="graphics-symbol" aria-roledescription="bar" d="M286.7924528301886,244.6153846153846h15.094339622641511v355.38461538461536h-15.094339622641511Z" fill="red"/><path aria-label="year: 2010; len: 1158; party: D" role="graphics-symbol" aria-roledescription="bar" d="M271.6981132075471,65.53846153846155h15.094339622641511v534.4615384615385h-15.094339622641511Z" fill="blue"/><path aria-label="year: 2011; len: 856; party: R" role="graphics-symbol" aria-roledescription="bar" d="M324.5283018867924,204.92307692307693h15.094339622641511v395.0769230769231h-15.094339622641511Z" fill="red"/><path aria-label="year: 2011; len: 939; party: D" role="graphics-symbol" aria-roledescription="bar" d="M309.4339622641509,166.6153846153846h15.094339622641511v433.38461538461536h-15.094339622641511Z" fill="blue"/><path aria-label="year: 2012; len: 579; party: R" role="graphics-symbol" aria-roledescription="bar" d="M362.2641509433962,332.7692307692308h15.094339622641511v267.2307692307692h-15.094339622641511Z" fill="red"/><path aria-label="year: 2012; len: 863; party: D" role="graphics-symbol" aria-roledescription="bar" d="M347.1698113207547,201.69230769230768h15.094339622641511v398.3076923076923h-15.094339622641511Z" fill="blue"/><path aria-label="year: 2013; len: 659; party: R" role="graphics-symbol" aria-roledescription="bar" d="M399.99999999999994,295.84615384615387h15.094339622641511v304.15384615384613h-15.094339622641511Z" fill="red"/><path aria-label="year: 2013; len: 1037; party: D" role="graphics-symbol" aria-roledescription="bar" d="M384.90566037735846,121.38461538461539h15.094339622641511v478.61538461538464h-15.094339622641511Z" fill="blue"/><path aria-label="year: 2014; len: 912; party: R" role="graphics-symbol" aria-roledescription="bar" d="M437.73584905660374,179.07692307692307h15.094339622641511v420.9230769230769h-15.094339622641511Z" fill="red"/><path aria-label="year: 2014; len: 1196; party: D" role="graphics-symbol" aria-roledescription="bar" d="M422.64150943396226,47.99999999999998h15.094339622641511v552h-15.094339622641511Z" fill="blue"/><path aria-label="year: 2015; len: 1273; party: D" role="graphics-symbol" aria-roledescription="bar" d="M460.37735849056605,12.461538461538456h15.094339622641511v587.5384615384615h-15.094339622641511Z" fill="blue"/><path aria-label="year: 2015; len: 1143; party: R" role="graphics-symbol" aria-roledescription="bar" d="M475.47169811320754,72.46153846153844h15.094339622641511v527.5384615384615h-15.094339622641511Z" fill="red"/><path aria-label="year: 2016; len: 1065; party: D" role="graphics-symbol" aria-roledescription="bar" d="M498.1132075471698,108.46153846153848h15.094339622641511v491.53846153846155h-15.094339622641511Z" fill="blue"/><path aria-label="year: 2016; len: 956; party: R" role="graphics-symbol" aria-roledescription="bar" d="M513.2075471698113,158.76923076923075h15.094339622641511v441.2307692307693h-15.094339622641511Z" fill="red"/><path aria-label="year: 2017; len: 595; party: D" role="graphics-symbol" aria-roledescription="bar" d="M535.8490566037735,325.3846153846154h15.094339622641511v274.6153846153846h-15.094339622641511Z" fill="blue"/><path aria-label="year: 2017; len: 953; party: R" role="graphics-symbol" aria-roledescription="bar" d="M550.9433962264151,160.15384615384616h15.094339622641511v439.8461538461538h-15.094339622641511Z" fill="red"/><path aria-label="year: 2018; len: 580; party: D" role="graphics-symbol" aria-roledescription="bar" d="M573.5849056603773,332.3076923076923h15.094339622641511v267.6923076923077h-15.094339622641511Z" fill="blue"/><path aria-label="year: 2018; len: 763; party: R" role="graphics-symbol" aria-roledescription="bar" d="M588.6792452830189,247.84615384615387h15.094339622641511v352.15384615384613h-15.094339622641511Z" fill="red"/><path aria-label="year: 2019; len: 864; party: R" role="graphics-symbol" aria-roledescription="bar" d="M626.4150943396227,201.23076923076923h15.094339622641511v398.7692307692308h-15.094339622641511Z" fill="red"/><path aria-label="year: 2019; len: 1229; party: D" role="graphics-symbol" aria-roledescription="bar" d="M611.3207547169811,32.769230769230774h15.094339622641511v567.2307692307693h-15.094339622641511Z" fill="blue"/><path aria-label="year: 2020; len: 1199; party: R" role="graphics-symbol" aria-roledescription="bar" d="M664.1509433962265,46.615384615384635h15.094339622641511v553.3846153846154h-15.094339622641511Z" fill="red"/><path aria-label="year: 2020; len: 1028; party: D" role="graphics-symbol" aria-roledescription="bar" d="M649.0566037735849,125.53846153846153h15.094339622641511v474.46153846153845h-15.094339622641511Z" fill="blue"/><path aria-label="year: 2021; len: 1075; party: R" role="graphics-symbol" aria-roledescription="bar" d="M701.8867924528303,103.84615384615388h15.094339622641511v496.15384615384613h-15.094339622641511Z" fill="red"/><path aria-label="year: 2021; len: 1082; party: D" role="graphics-symbol" aria-roledescription="bar" d="M686.7924528301887,100.61538461538461h15.094339622641511v499.38461538461536h-15.094339622641511Z" fill="blue"/><path aria-label="year: 2022; len: 899; party: D" role="graphics-symbol" aria-roledescription="bar" d="M724.5283018867924,185.07692307692307h15.094339622641511v414.9230769230769h-15.094339622641511Z" fill="blue"/><path aria-label="year: 2022; len: 990; party: R" role="graphics-symbol" aria-roledescription="bar" d="M739.622641509434,143.0769230769231h15.094339622641511v456.9230769230769h-15.094339622641511Z" fill="red"/><path aria-label="year: 2023; len: 479; party: D" role="graphics-symbol" aria-roledescription="bar" d="M762.2641509433962,378.92307692307696h15.094339622641511v221.07692307692304h-15.094339622641511Z" fill="blue"/><path aria-label="year: 2023; len: 194; party: R" role="graphics-symbol" aria-roledescription="bar" d="M777.3584905660377,510.46153846153845h15.094339622641511v89.53846153846155h-15.094339622641511Z" fill="red"/></g><g class="mark-group role-legend" role="graphics-symbol" aria-roledescription="legend" aria-label="Symbol legend titled 'party' for fill color with 2 values: R, D"><g transform="translate(818,0)"><path class="background" aria-hidden="true" d="M0,0h27v40h-27Z" pointer-events="none"/><g><g class="mark-group role-legend-entry"><g transform="translate(0,16)"><path class="background" aria-hidden="true" d="M0,0h0v0h0Z" pointer-events="none"/><g><g class="mark-group role-scope" role="graphics-object" aria-roledescription="group mark container"><g transform="translate(0,0)"><path class="background" aria-hidden="true" d="M0,0h23.2216796875v11h-23.2216796875Z" pointer-events="none" opacity="1"/><g><g class="mark-symbol role-legend-symbol" pointer-events="none"><path transform="translate(6,6)" d="M-5,-5h10v10h-10Z" fill="red" stroke-width="1.5" opacity="1"/></g><g class="mark-text role-legend-label" pointer-events="none"><text text-anchor="start" transform="translate(16,9)" font-family="sans-serif" font-size="10px" fill="#000" opacity="1">R</text></g></g><path class="foreground" aria-hidden="true" d="" pointer-events="none" display="none"/></g><g transform="translate(0,13)"><path class="background" aria-hidden="true" d="M0,0h23.2216796875v11h-23.2216796875Z" pointer-events="none" opacity="1"/><g><g class="mark-symbol role-legend-symbol" pointer-events="none"><path transform="translate(6,6)" d="M-5,-5h10v10h-10Z" fill="blue" stroke-width="1.5" opacity="1"/></g><g class="mark-text role-legend-label" pointer-events="none"><text text-anchor="start" transform="translate(16,9)" font-family="sans-serif" font-size="10px" fill="#000" opacity="1">D</text></g></g><path class="foreground" aria-hidden="true" d="" pointer-events="none" display="none"/></g></g></g><path class="foreground" aria-hidden="true" d="" pointer-events="none" display="none"/></g></g><g class="mark-text role-legend-title" pointer-events="none"><text text-anchor="start" transform="translate(0,9)" font-family="sans-serif" font-size="11px" font-weight="bold" fill="#000" opacity="1">party</text></g></g><path class="foreground" aria-hidden="true" d="" pointer-events="none" display="none"/></g></g><g class="mark-group role-title"><g transform="translate(400,-22)"><path class="background" aria-hidden="true" d="M0,0h0v0h0Z" pointer-events="none"/><g><g class="mark-text role-title-text" role="graphics-symbol" aria-roledescription="title" aria-label="Title text 'Speeches Per Year by Party'" pointer-events="none"><text text-anchor="middle" transform="translate(0,10)" font-family="sans-serif" font-size="13px" font-weight="bold" fill="#000" opacity="1">Speeches Per Year by Party</text></g></g><path class="foreground" aria-hidden="true" d="" pointer-events="none" display="none"/></g></g></g><path class="foreground" aria-hidden="true" d="" display="none"/></g></g></g></svg>