<svg xmlns="http://www.w3.org/2000/svg" xmlns:xlink="http://www.w3.org/1999/xlink" version="1.1" class="marks" width="1727" height="925" viewBox="0 0 1727 925"><rect width="1727" height="925" fill="white"/><g fill="none" stroke-miterlimit="10" transform="translate(54,74)"><g class="mark-group role-frame root" role="graphics-object" aria-roledescription="group mark container"><g transform="translate(0,0)"><path class="background" aria-hidden="true" d="M0,0h0v0h0Z"/><g><g class="mark-group role-column-title column-title" role="graphics-object" aria-roledescription="group mark container"><g transform="translate(811,-31)"><path class="background" aria-hidden="true" d="M0,0h0v0h0Z"/><g><g class="mark-group role-title"><g transform="translate(0,-21)"><path class="background" aria-hidden="true" d="M0,0h0v0h0Z" pointer-events="none"/><g><g class="mark-text role-title-text" role="graphics-symbol" aria-roledescription="title" aria-label="Title text 'female'" pointer-events="none"><text text-anchor="middle" transform="translate(0,9)" font-family="sans-serif" font-size="11px" font-weight="bold" fill="#000" opacity="1">female</text></g></g><path class="foreground" aria-hidden="true" d="" pointer-events="none" display="none"/></g></g></g><path class="foreground" aria-hidden="true" d="" display="none"/></g></g><g class="mark-group role-row-header row_header" role="graphics-object" aria-roledescription="group mark container"><g transform="translate(-1,0)"><path class="background" aria-hidden="true" d="M0,0h0v800h0Z"/><g><g class="mark-group role-axis" role="graphics-symbol" aria-roledescription="axis" aria-label="Y-axis titled 'len' for a linear scale with values from 0 to 1,200"><g transform="translate(0.5,0.5)"><path class="background" aria-hidden="true" d="M0,0h0v0h0Z" pointer-events="none"/><g><g class="mark-rule role-axis-tick" pointer-events="none"><line transform="translate(0,800)" x2="-5" y2="0" stroke="#888" stroke-width="1" opacity="1"/><line transform="translate(0,767)" x2="-5" y2="0" stroke="#888" stroke-width="1" opacity="1"/><line transform="translate(0,733)" x2="-5" y2="0" stroke="#888" stroke-width="1" opacity="1"/><line transform="translate(0,700)" x2="-5" y2="0" stroke="#888" stroke-width="1" opacity="1"/><line transform="translate(0,667)" x2="-5" y2="0" stroke="#888" stroke-width="1" opacity="1"/><line transform="translate(0,633)" x2="-5" y2="0" stroke="#888" stroke-width="1" opacity="1"/><line transform="translate(0,600)" x2="-5" y2="0" stroke="#888" stroke-width="1" opacity="1"/><line transform="translate(0,567)" x2="-5" y2="0" stroke="#888" stroke-width="1" opacity="1"/><line transform="translate(0,533)" x2="-5" y2="0" stroke="#888" stroke-width="1" opacity="1"/><line transform="translate(0,500)" x2="-5" y2="0" stroke="#888" stroke-width="1" opacity="1"/><line transform="translate(0,467)" x2="-5" y2="0" stroke="#888" stroke-width="1" opacity="1"/><line transform="translate(0,433)" x2="-5" y2="0" stroke="#888" stroke-width="1" opacity="1"/><line transform="translate(0,400)" x2="-5" y2="0" stroke="#888" stroke-width="1" opacity="1"/><line transform="translate(0,367)" x2="-5" y2="0" stroke="#888" stroke-width="1" opacity="1"/><line transform="translate(0,333)" x2="-5" y2="0" stroke="#888" stroke-width="1" opacity="1"/><line transform="translate(0,300)" x2="-5" y2="0" stroke="#888" stroke-width="1" opacity="1"/><line transform="translate(0,267)" x2="-5" y2="0" stroke="#888" stroke-width="1" opacity="1"/><line transform="translate(0,233)" x2="-5" y2="0" stroke="#888" stroke-width="1" opacity="1"/><line transform="translate(0,200)" x2="-5" y2="0" stroke="#888" stroke-width="1" opacity="1"/><line transform="translate(0,167)" x2="-5" y2="0" stroke="#888" stroke-width="1" opacity="1"/><line transform="translate(0,133)" x2="-5" y2="0" stroke="#888" stroke-width="1" opacity="1"/><line transform="translate(0,100)" x2="-5" y2="0" stroke="#888" stroke-width="1" opacity="1"/><line transform="translate(0,67)" x2="-5" y2="0" stroke="#888" stroke-width="1" opacity="1"/><line transform="translate(0,33)" x2="-5" y2="0" stroke="#888" stroke-width="1" opacity="1"/><line transform="translate(0,0)" x2="-5" y2="0" stroke="#888" stroke-width="1" opacity="1"/></g><g class="mark-text role-axis-label" pointer-events="none"><text text-anchor="end" transform="translate(-7,803)" font-family="sans-serif" font-size="10px" fill="#000" opacity="1">0</text><text text-anchor="end" transform="translate(-7,769.6666666666667)" font-family="sans-serif" font-size="10px" fill="#000" opacity="1">50</text><text text-anchor="end" transform="translate(-7,736.3333333333333)" font-family="sans-serif" font-size="10px" fill="#000" opacity="1">100</text><text text-anchor="end" transform="translate(-7,703)" font-family="sans-serif" font-size="10px" fill="#000" opacity="1">150</text><text text-anchor="end" transform="translate(-7,669.6666666666667)" font-family="sans-serif" font-size="10px" fill="#000" opacity="1">200</text><text text-anchor="end" transform="translate(-7,636.3333333333333)" font-family="sans-serif" font-size="10px" fill="#000" opacity="1">250</text><text text-anchor="end" transform="translate(-7,603)" font-family="sans-serif" font-size="10px" fill="#000" opacity="1">300</text><text text-anchor="end" transform="translate(-7,569.6666666666666)" font-family="sans-serif" font-size="10px" fill="#000" opacity="1">350</text><text text-anchor="end" transform="translate(-7,536.3333333333334)" font-family="sans-serif" font-size="10px" fill="#000" opacity="1">400</text><text text-anchor="end" transform="translate(-7,503)" font-family="sans-serif" font-size="10px" fill="#000" opacity="1">450</text><text text-anchor="end" transform="translate(-7,469.66666666666663)" font-family="sans-serif" font-size="10px" fill="#000" opacity="1">500</text><text text-anchor="end" transform="translate(-7,436.33333333333337)" font-family="sans-serif" font-size="10px" fill="#000" opacity="1">550</text><text text-anchor="end" transform="translate(-7,403)" font-family="sans-serif" font-size="10px" fill="#000" opacity="1">600</text><text text-anchor="end" transform="translate(-7,369.6666666666667)" font-family="sans-serif" font-size="10px" fill="#000" opacity="1">650</text><text text-anchor="end" transform="translate(-7,336.3333333333333)" font-family="sans-serif" font-size="10px" fill="#000" opacity="1">700</text><text text-anchor="end" transform="translate(-7,303)" font-family="sans-serif" font-size="10px" fill="#000" opacity="1">750</text><text text-anchor="end" transform="translate(-7,269.6666666666667)" font-family="sans-serif" font-size="10px" fill="#000" opacity="1">800</text><text text-anchor="end" transform="translate(-7,236.33333333333331)" font-family="sans-serif" font-size="10px" fill="#000" opacity="1">850</text><text text-anchor="end" transform="translate(-7,203)" font-family="sans-serif" font-size="10px" fill="#000" opacity="1">900</text><text text-anchor="end" transform="translate(-7,169.66666666666669)" font-family="sans-serif" font-size="10px" fill="#000" opacity="1">950</text><text text-anchor="end" transform="translate(-7,136.33333333333331)" font-family="sans-serif" font-size="10px" fill="#000" opacity="1">1,000</text><text text-anchor="end" transform="translate(-7,103)" font-family="sans-serif" font-size="10px" fill="#000" opacity="1">1,050</text><text text-anchor="end" transform="translate(-7,69.6666666666667)" font-family="sans-serif" font-size="10px" fill="#000" opacity="1">1,100</text><text text-anchor="end" transform="translate(-7,36.3333333333333)" font-family="sans-serif" font-size="10px" fill="#000" opacity="1">1,150</text><text text-anchor="end" transform="translate(-7,3)" font-family="sans-serif" font-size="10px" fill="#000" opacity="1">1,200</text></g><g class="mark-rule role-axis-domain" pointer-events="none"><line transform="translate(0,800)" x2="0" y2="-800" stroke="#888" stroke-width="1" opacity="1"/></g><g class="mark-text role-axis-title" pointer-events="none"><text text-anchor="middle" transform="translate(-36.0244140625,400) rotate(-90) translate(0,-2)" font-family="sans-serif" font-size="11px" font-weight="bold" fill="#000" opacity="1">len</text></g></g><path class="foreground" aria-hidden="true" d="" pointer-events="none" display="none"/></g></g></g><path class="foreground" aria-hidden="true" d="" display="none"/></g></g><g class="mark-group role-column-header column_header" role="graphics-object" aria-roledescription="group mark container"><g transform="translate(0,-1)"><path class="background" aria-hidden="true" d="M0,0h800v0h-800Z"/><g><g class="mark-group role-title"><g transform="translate(400,-20)"><path class="background" aria-hidden="true" d="M0,0h0v0h0Z" pointer-events="none"/><g><g class="mark-text role-title-text" role="graphics-symbol" aria-roledescription="title" aria-label="Title text '0'" pointer-events="none"><text text-anchor="middle" transform="translate(0,8)" font-family="sans-serif" font-size="10px" fill="#000" opacity="1">0</text></g></g><path class="foreground" aria-hidden="true" d="" pointer-events="none" display="none"/></g></g></g><path class="foreground" aria-hidden="true" d="" display="none"/></g><g transform="translate(822,-1)"><path class="background" aria-hidden="true" d="M0,0h800v0h-800Z"/><g><g class="mark-group role-title"><g transform="translate(400,-20)"><path class="background" aria-hidden="true" d="M0,0h0v0h0Z" pointer-events="none"/><g><g class="mark-text role-title-text" role="graphics-symbol" aria-roledescription="title" aria-label="Title text '1'" pointer-events="none"><text text-anchor="middle" transform="translate(0,8)" font-family="sans-serif" font-size="10px" fill="#000" opacity="1">1</text></g></g><path class="foreground" aria-hidden="true" d="" pointer-events="none" display="none"/></g></g></g><path class="foreground" aria-hidden="true" d="" display="none"/></g></g><g class="mark-group role-column-footer column_footer" role="graphics-object" aria-roledescription="group mark container"><g transform="translate(0,801)"><path class="background" aria-hidden="true" d="M0,0h800v0h-800Z"/><g><g class="mark-group role-axis" role="graphics-symbol" aria-roledescription="axis" aria-label="X-axis titled 'year' for a discrete scale with 21 values: 2003, 2004, 2005, 2006, 2007, ending with 2023"><g transform="translate(0.5,0.5)"><path class="background" aria-hidden="true" d="M0,0h0v0h0Z" pointer-events="none"/><g><g class="mark-rule role-axis-tick" pointer-events="none"><line transform="translate(22,0)" x2="0" y2="5" stroke="#888" stroke-width="1" opacity="1"/><line transform="translate(60,0)" x2="0" y2="5" stroke="#888" stroke-width="1" opacity="1"/><line transform="translate(98,0)" x2="0" y2="5" stroke="#888" stroke-width="1" opacity="1"/><line transform="translate(135,0)" x2="0" y2="5" stroke="#888" stroke-width="1" opacity="1"/><line transform="translate(173,0)" x2="0" y2="5" stroke="#888" stroke-width="1" opacity="1"/><line transform="translate(211,0)" x2="0" y2="5" stroke="#888" stroke-width="1" opacity="1"/><line transform="translate(249,0)" x2="0" y2="5" stroke="#888" stroke-width="1" opacity="1"/><line transform="translate(286,0)" x2="0" y2="5" stroke="#888" stroke-width="1" opacity="1"/><line transform="translate(324,0)" x2="0" y2="5" stroke="#888" stroke-width="1" opacity="1"/><line transform="translate(362,0)" x2="0" y2="5" stroke="#888" stroke-width="1" opacity="1"/><line transform="translate(399,0)" x2="0" y2="5" stroke="#888" stroke-width="1" opacity="1"/><line transform="translate(437,0)" x2="0" y2="5" stroke="#888" stroke-width="1" opacity="1"/><line transform="translate(475,0)" x2="0" y2="5" stroke="#888" stroke-width="1" opacity="1"/><line transform="translate(513,0)" x2="0" y2="5" stroke="#888" stroke-width="1" opacity="1"/><line transform="translate(550,0)" x2="0" y2="5" stroke="#888" stroke-width="1" opacity="1"/><line transform="translate(588,0)" x2="0" y2="5" stroke="#888" stroke-width="1" opacity="1"/><line transform="translate(626,0)" x2="0" y2="5" stroke="#888" stroke-width="1" opacity="1"/><line transform="translate(664,0)" x2="0" y2="5" stroke="#888" stroke-width="1" opacity="1"/><line transform="translate(701,0)" x2="0" y2="5" stroke="#888" stroke-width="1" opacity="1"/><line transform="translate(739,0)" x2="0" y2="5" stroke="#888" stroke-width="1" opacity="1"/><line transform="translate(777,0)" x2="0" y2="5" stroke="#888" stroke-width="1" opacity="1"/></g><g class="mark-text role-axis-label" pointer-events="none"><text text-anchor="end" transform="translate(22.141509433962227,7) rotate(270) translate(0,3)" font-family="sans-serif" font-size="10px" fill="#000" opacity="1">2003</text><text text-anchor="end" transform="translate(59.877358490566,7) rotate(270) translate(0,3)" font-family="sans-serif" font-size="10px" fill="#000" opacity="1">2004</text><text text-anchor="end" transform="translate(97.61320754716978,7) rotate(270) translate(0,3)" font-family="sans-serif" font-size="10px" fill="#000" opacity="1">2005</text><text text-anchor="end" transform="translate(135.34905660377356,7) rotate(270) translate(0,3)" font-family="sans-serif" font-size="10px" fill="#000" opacity="1">2006</text><text text-anchor="end" transform="translate(173.08490566037733,7) rotate(270) translate(0,3)" font-family="sans-serif" font-size="10px" fill="#000" opacity="1">2007</text><text text-anchor="end" transform="translate(210.8207547169811,7) rotate(270) translate(0,3)" font-family="sans-serif" font-size="10px" fill="#000" opacity="1">2008</text><text text-anchor="end" transform="translate(248.5566037735849,7) rotate(270) translate(0,3)" font-family="sans-serif" font-size="10px" fill="#000" opacity="1">2009</text><text text-anchor="end" transform="translate(286.2924528301886,7) rotate(270) translate(0,3)" font-family="sans-serif" font-size="10px" fill="#000" opacity="1">2010</text><text text-anchor="end" transform="translate(324.0283018867924,7) rotate(270) translate(0,3)" font-family="sans-serif" font-size="10px" fill="#000" opacity="1">2011</text><text text-anchor="end" transform="translate(361.7641509433962,7) rotate(270) translate(0,3)" font-family="sans-serif" font-size="10px" fill="#000" opacity="1">2012</text><text text-anchor="end" transform="translate(399.49999999999994,7) rotate(270) translate(0,3)" font-family="sans-serif" font-size="10px" fill="#000" opacity="1">2013</text><text text-anchor="end" transform="translate(437.23584905660374,7) rotate(270) translate(0,3)" font-family="sans-serif" font-size="10px" fill="#000" opacity="1">2014</text><text text-anchor="end" transform="translate(474.97169811320754,7) rotate(270) translate(0,3)" font-family="sans-serif" font-size="10px" fill="#000" opacity="1">2015</text><text text-anchor="end" transform="translate(512.7075471698113,7) rotate(270) translate(0,3)" font-family="sans-serif" font-size="10px" fill="#000" opacity="1">2016</text><text text-anchor="end" transform="translate(550.4433962264151,7) rotate(270) translate(0,3)" font-family="sans-serif" font-size="10px" fill="#000" opacity="1">2017</text><text text-anchor="end" transform="translate(588.1792452830189,7) rotate(270) translate(0,3)" font-family="sans-serif" font-size="10px" fill="#000" opacity="1">2018</text><text text-anchor="end" transform="translate(625.9150943396227,7) rotate(270) translate(0,3)" font-family="sans-serif" font-size="10px" fill="#000" opacity="1">2019</text><text text-anchor="end" transform="translate(663.6509433962265,7) rotate(270) translate(0,3)" font-family="sans-serif" font-size="10px" fill="#000" opacity="1">2020</text><text text-anchor="end" transform="translate(701.3867924528303,7) rotate(270) translate(0,3)" font-family="sans-serif" font-size="10px" fill="#000" opacity="1">2021</text><text text-anchor="end" transform="translate(739.122641509434,7) rotate(270) translate(0,3)" font-family="sans-serif" font-size="10px" fill="#000" opacity="1">2022</text><text text-anchor="end" transform="translate(776.8584905660377,7) rotate(270) translate(0,3)" font-family="sans-serif" font-size="10px" fill="#000" opacity="1">2023</text></g><g class="mark-rule role-axis-domain" pointer-events="none"><line transform="translate(0,0)" x2="800" y2="0" stroke="#888" stroke-width="1" opacity="1"/></g><g class="mark-text role-axis-title" pointer-events="none"><text text-anchor="middle" transform="translate(400,42.24609375)" font-family="sans-serif" font-size="11px" font-weight="bold" fill="#000" opacity="1">year</text></g></g><path class="foreground" aria-hidden="true" d="" pointer-events="none" display="none"/></g></g></g><path class="foreground" aria-hidden="true" d="" display="none"/></g><g transform="translate(822,801)"><path class="background" aria-hidden="true" d="M0,0h800v0h-800Z"/><g><g class="mark-group role-axis" role="graphics-symbol" aria-roledescription="axis" aria-label="X-axis titled 'year' for a discrete scale with 21 values: 2003, 2004, 2005, 2006, 2007, ending with 2023"><g transform="translate(0.5,0.5)"><path class="background" aria-hidden="true" d="M0,0h0v0h0Z" pointer-events="none"/><g><g class="mark-rule role-axis-tick" pointer-events="none"><line transform="translate(22,0)" x2="0" y2="5" stroke="#888" stroke-width="1" opacity="1"/><line transform="translate(60,0)" x2="0" y2="5" stroke="#888" stroke-width="1" opacity="1"/><line transform="translate(98,0)" x2="0" y2="5" stroke="#888" stroke-width="1" opacity="1"/><line transform="translate(135,0)" x2="0" y2="5" stroke="#888" stroke-width="1" opacity="1"/><line transform="translate(173,0)" x2="0" y2="5" stroke="#888" stroke-width="1" opacity="1"/><line transform="translate(211,0)" x2="0" y2="5" stroke="#888" stroke-width="1" opacity="1"/><line transform="translate(249,0)" x2="0" y2="5" stroke="#888" stroke-width="1" opacity="1"/><line transform="translate(286,0)" x2="0" y2="5" stroke="#888" stroke-width="1" opacity="1"/><line transform="translate(324,0)" x2="0" y2="5" stroke="#888" stroke-width="1" opacity="1"/><line transform="translate(362,0)" x2="0" y2="5" stroke="#888" stroke-width="1" opacity="1"/><line transform="translate(399,0)" x2="0" y2="5" stroke="#888" stroke-width="1" opacity="1"/><line transform="translate(437,0)" x2="0" y2="5" stroke="#888" stroke-width="1" opacity="1"/><line transform="translate(475,0)" x2="0" y2="5" stroke="#888" stroke-width="1" opacity="1"/><line transform="translate(513,0)" x2="0" y2="5" stroke="#888" stroke-width="1" opacity="1"/><line transform="translate(550,0)" x2="0" y2="5" stroke="#888" stroke-width="1" opacity="1"/><line transform="translate(588,0)" x2="0" y2="5" stroke="#888" stroke-width="1" opacity="1"/><line transform="translate(626,0)" x2="0" y2="5" stroke="#888" stroke-width="1" opacity="1"/><line transform="translate(664,0)" x2="0" y2="5" stroke="#888" stroke-width="1" opacity="1"/><line transform="translate(701,0)" x2="0" y2="5" stroke="#888" stroke-width="1" opacity="1"/><line transform="translate(739,0)" x2="0" y2="5" stroke="#888" stroke-width="1" opacity="1"/><line transform="translate(777,0)" x2="0" y2="5" stroke="#888" stroke-width="1" opacity="1"/></g><g class="mark-text role-axis-label" pointer-events="none"><text text-anchor="end" transform="translate(22.141509433962227,7) rotate(270) translate(0,3)" font-family="sans-serif" font-size="10px" fill="#000" opacity="1">2003</text><text text-anchor="end" transform="translate(59.877358490566,7) rotate(270) translate(0,3)" font-family="sans-serif" font-size="10px" fill="#000" opacity="1">2004</text><text text-anchor="end" transform="translate(97.61320754716978,7) rotate(270) translate(0,3)" font-family="sans-serif" font-size="10px" fill="#000" opacity="1">2005</text><text text-anchor="end" transform="translate(135.34905660377356,7) rotate(270) translate(0,3)" font-family="sans-serif" font-size="10px" fill="#000" opacity="1">2006</text><text text-anchor="end" transform="translate(173.08490566037733,7) rotate(270) translate(0,3)" font-family="sans-serif" font-size="10px" fill="#000" opacity="1">2007</text><text text-anchor="end" transform="translate(210.8207547169811,7) rotate(270) translate(0,3)" font-family="sans-serif" font-size="10px" fill="#000" opacity="1">2008</text><text text-anchor="end" transform="translate(248.5566037735849,7) rotate(270) translate(0,3)" font-family="sans-serif" font-size="10px" fill="#000" opacity="1">2009</text><text text-anchor="end" transform="translate(286.2924528301886,7) rotate(270) translate(0,3)" font-family="sans-serif" font-size="10px" fill="#000" opacity="1">2010</text><text text-anchor="end" transform="translate(324.0283018867924,7) rotate(270) translate(0,3)" font-family="sans-serif" font-size="10px" fill="#000" opacity="1">2011</text><text text-anchor="end" transform="translate(361.7641509433962,7) rotate(270) translate(0,3)" font-family="sans-serif" font-size="10px" fill="#000" opacity="1">2012</text><text text-anchor="end" transform="translate(399.49999999999994,7) rotate(270) translate(0,3)" font-family="sans-serif" font-size="10px" fill="#000" opacity="1">2013</text><text text-anchor="end" transform="translate(437.23584905660374,7) rotate(270) translate(0,3)" font-family="sans-serif" font-size="10px" fill="#000" opacity="1">2014</text><text text-anchor="end" transform="translate(474.97169811320754,7) rotate(270) translate(0,3)" font-family="sans-serif" font-size="10px" fill="#000" opacity="1">2015</text><text text-anchor="end" transform="translate(512.7075471698113,7) rotate(270) translate(0,3)" font-family="sans-serif" font-size="10px" fill="#000" opacity="1">2016</text><text text-anchor="end" transform="translate(550.4433962264151,7) rotate(270) translate(0,3)" font-family="sans-serif" font-size="10px" fill="#000" opacity="1">2017</text><text text-anchor="end" transform="translate(588.1792452830189,7) rotate(270) translate(0,3)" font-family="sans-serif" font-size="10px" fill="#000" opacity="1">2018</text><text text-anchor="end" transform="translate(625.9150943396227,7) rotate(270) translate(0,3)" font-family="sans-serif" font-size="10px" fill="#000" opacity="1">2019</text><text text-anchor="end" transform="translate(663.6509433962265,7) rotate(270) translate(0,3)" font-family="sans-serif" font-size="10px" fill="#000" opacity="1">2020</text><text text-anchor="end" transform="translate(701.3867924528303,7) rotate(270) translate(0,3)" font-family="sans-serif" font-size="10px" fill="#000" opacity="1">2021</text><text text-anchor="end" transform="translate(739.122641509434,7) rotate(270) translate(0,3)" font-family="sans-serif" font-size="10px" fill="#000" opacity="1">2022</text><text text-anchor="end" transform="translate(776.8584905660377,7) rotate(270) translate(0,3)" font-family="sans-serif" font-size="10px" fill="#000" opacity="1">2023</text></g><g class="mark-rule role-axis-domain" pointer-events="none"><line transform="translate(0,0)" x2="800" y2="0" stroke="#888" stroke-width="1" opacity="1"/></g><g class="mark-text role-axis-title" pointer-events="none"><text text-anchor="middle" transform="translate(400,42.24609375)" font-family="sans-serif" font-size="11px" font-weight="bold" fill="#000" opacity="1">year</text></g></g><path class="foreground" aria-hidden="true" d="" pointer-events="none" display="none"/></g></g></g><path class="foreground" aria-hidden="true" d="" display="none"/></g></g><g class="mark-group role-scope cell" role="graphics-object" aria-roledescription="group mark container"><g transform="translate(0,0)"><path class="background" aria-hidden="true" d="M0.5,0.5h800v800h-800Z" stroke="#ddd"/><g><g class="mark-group role-axis" aria-hidden="true"><g transform="translate(0.5,0.5)"><path class="background" aria-hidden="true" d="M0,0h0v0h0Z" pointer-events="none"/><g><g class="mark-rule role-axis-grid" pointer-events="none"><line transform="translate(0,800)" x2="800" y2="0" stroke="#ddd" stroke-width="1" opacity="1"/><line transform="translate(0,767)" x2="800" y2="0" stroke="#ddd" stroke-width="1" opacity="1"/><line transform="translate(0,733)" x2="800" y2="0" stroke="#ddd" stroke-width="1" opacity="1"/><line transform="translate(0,700)" x2="800" y2="0" stroke="#ddd" stroke-width="1" opacity="1"/><line transform="translate(0,667)" x2="800" y2="0" stroke="#ddd" stroke-width="1" opacity="1"/><line transform="translate(0,633)" x2="800" y2="0" stroke="#ddd" stroke-width="1" opacity="1"/><line transform="translate(0,600)" x2="800" y2="0" stroke="#ddd" stroke-width="1" opacity="1"/><line transform="translate(0,567)" x2="800" y2="0" stroke="#ddd" stroke-width="1" opacity="1"/><line transform="translate(0,533)" x2="800" y2="0" stroke="#ddd" stroke-width="1" opacity="1"/><line transform="translate(0,500)" x2="800" y2="0" stroke="#ddd" stroke-width="1" opacity="1"/><line transform="translate(0,467)" x2="800" y2="0" stroke="#ddd" stroke-width="1" opacity="1"/><line transform="translate(0,433)" x2="800" y2="0" stroke="#ddd" stroke-width="1" opacity="1"/><line transform="translate(0,400)" x2="800" y2="0" stroke="#ddd" stroke-width="1" opacity="1"/><line transform="translate(0,367)" x2="800" y2="0" stroke="#ddd" stroke-width="1" opacity="1"/><line transform="translate(0,333)" x2="800" y2="0" stroke="#ddd" stroke-width="1" opacity="1"/><line transform="translate(0,300)" x2="800" y2="0" stroke="#ddd" stroke-width="1" opacity="1"/><line transform="translate(0,267)" x2="800" y2="0" stroke="#ddd" stroke-width="1" opacity="1"/><line transform="translate(0,233)" x2="800" y2="0" stroke="#ddd" stroke-width="1" opacity="1"/><line transform="translate(0,200)" x2="800" y2="0" stroke="#ddd" stroke-width="1" opacity="1"/><line transform="translate(0,167)" x2="800" y2="0" stroke="#ddd" stroke-width="1" opacity="1"/><line transform="translate(0,133)" x2="800" y2="0" stroke="#ddd" stroke-width="1" opacity="1"/><line transform="translate(0,100)" x2="800" y2="0" stroke="#ddd" stroke-width="1" opacity="1"/><line transform="translate(0,67)" x2="800" y2="0" stroke="#ddd" stroke-width="1" opacity="1"/><line transform="translate(0,33)" x2="800" y2="0" stroke="#ddd" stroke-width="1" opacity="1"/><line transform="translate(0,0)" x2="800" y2="0" stroke="#ddd" stroke-width="1" opacity="1"/></g></g><path class="foreground" aria-hidden="true" d="" pointer-events="none" display="none"/></g></g><g class="mark-rect role-mark child_marks" role="graphics-object" aria-roledescription="rect mark container"><path aria-label="year: 2003; len: 123; party: R" role="graphics-symbol" aria-roledescription="bar" d="M22.641509433962227,718h15.094339622641511v82h-15.094339622641511Z" fill="red"/><path aria-label="year: 2003; len: 121; party: D" role="graphics-symbol" aria-roledescription="bar" d="M7.547169811320714,719.3333333333334h15.094339622641511v80.66666666666663h-15.094339622641511Z" fill="blue"/><path aria-label="year: 2004; len: 153; party: R" role="graphics-symbol" aria-roledescription="bar" d="M60.377358490566,698h15.094339622641511v102h-15.094339622641511Z" fill="red"/><path aria-label="year: 2004; len: 424; party: D" role="graphics-symbol" aria-roledescription="bar" d="M45.28301886792449,517.3333333333334h15.094339622641511v282.66666666666663h-15.094339622641511Z" fill="blue"/><path aria-label="year: 2005; len: 725; party: D" role="graphics-symbol" aria-roledescription="bar" d="M83.01886792452827,316.6666666666667h15.094339622641511v483.3333333333333h-15.094339622641511Z" fill="blue"/><path aria-label="year: 2005; len: 940; party: R" role="graphics-symbol" aria-roledescription="bar" d="M98.11320754716978,173.33333333333334h15.094339622641511v626.6666666666666h-15.094339622641511Z" fill="red"/><path aria-label="year: 2006; len: 920; party: D" role="graphics-symbol" aria-roledescription="bar" d="M120.75471698113205,186.66666666666663h15.094339622641511v613.3333333333334h-15.094339622641511Z" fill="blue"/><path aria-label="year: 2006; len: 689; party: R" role="graphics-symbol" aria-roledescription="bar" d="M135.84905660377356,340.66666666666663h15.094339622641511v459.33333333333337h-15.094339622641511Z" fill="red"/><path aria-label="year: 2007; len: 789; party: D" role="graphics-symbol" aria-roledescription="bar" d="M158.49056603773582,274h15.094339622641511v526h-15.094339622641511Z" fill="blue"/><path aria-label="year: 2007; len: 424; party: R" role="graphics-symbol" aria-roledescription="bar" d="M173.58490566037733,517.3333333333334h15.094339622641511v282.66666666666663h-15.094339622641511Z" fill="red"/><path aria-label="year: 2008; len: 618; party: D" role="graphics-symbol" aria-roledescription="bar" d="M196.2264150943396,388h15.094339622641511v412h-15.094339622641511Z" fill="blue"/><path aria-label="year: 2008; len: 402; party: R" role="graphics-symbol" aria-roledescription="bar" d="M211.3207547169811,532h15.094339622641511v268h-15.094339622641511Z" fill="red"/><path aria-label="year: 2009; len: 569; party: D" role="graphics-symbol" aria-roledescription="bar" d="M233.96226415094338,420.6666666666667h15.094339622641511v379.3333333333333h-15.094339622641511Z" fill="blue"/><path aria-label="year: 2009; len: 529; party: R" role="graphics-symbol" aria-roledescription="bar" d="M249.0566037735849,447.33333333333326h15.094339622641511v352.66666666666674h-15.094339622641511Z" fill="red"/><path aria-label="year: 2010; len: 618; party: R" role="graphics-symbol" aria-roledescription="bar" d="M286.7924528301886,388h15.094339622641511v412h-15.094339622641511Z" fill="red"/><path aria-label="year: 2010; len: 857; party: D" role="graphics-symbol" aria-roledescription="bar" d="M271.6981132075471,228.6666666666667h15.094339622641511v571.3333333333333h-15.094339622641511Z" fill="blue"/><path aria-label="year: 2011; len: 582; party: D" role="graphics-symbol" aria-roledescription="bar" d="M309.4339622641509,412h15.094339622641511v388h-15.094339622641511Z" fill="blue"/><path aria-label="year: 2011; len: 733; party: R" role="graphics-symbol" aria-roledescription="bar" d="M324.5283018867924,311.3333333333333h15.094339622641511v488.6666666666667h-15.094339622641511Z" fill="red"/><path aria-label="year: 2012; len: 495; party: R" role="graphics-symbol" aria-roledescription="bar" d="M362.2641509433962,470h15.094339622641511v330h-15.094339622641511Z" fill="red"/><path aria-label="year: 2012; len: 515; party: D" role="graphics-symbol" aria-roledescription="bar" d="M347.1698113207547,456.66666666666663h15.094339622641511v343.33333333333337h-15.094339622641511Z" fill="blue"/><path aria-label="year: 2013; len: 963; party: D" role="graphics-symbol" aria-roledescription="bar" d="M384.90566037735846,158h15.094339622641511v642h-15.094339622641511Z" fill="blue"/><path aria-label="year: 2013; len: 566; party: R" role="graphics-symbol" aria-roledescription="bar" d="M399.99999999999994,422.66666666666663h15.094339622641511v377.33333333333337h-15.094339622641511Z" fill="red"/><path aria-label="year: 2014; len: 858; party: R" role="graphics-symbol" aria-roledescription="bar" d="M437.73584905660374,228.00000000000003h15.094339622641511v572h-15.094339622641511Z" fill="red"/><path aria-label="year: 2014; len: 1186; party: D" role="graphics-symbol" aria-roledescription="bar" d="M422.64150943396226,9.333333333333371h15.094339622641511v790.6666666666666h-15.094339622641511Z" fill="blue"/><path aria-label="year: 2015; len: 1115; party: D" role="graphics-symbol" aria-roledescription="bar" d="M460.37735849056605,56.66666666666664h15.094339622641511v743.3333333333334h-15.094339622641511Z" fill="blue"/><path aria-label="year: 2015; len: 1143; party: R" role="graphics-symbol" aria-roledescription="bar" d="M475.47169811320754,37.999999999999986h15.094339622641511v762h-15.094339622641511Z" fill="red"/><path aria-label="year: 2016; len: 816; party: D" role="graphics-symbol" aria-roledescription="bar" d="M498.1132075471698,255.99999999999997h15.094339622641511v544h-15.094339622641511Z" fill="blue"/><path aria-label="year: 2016; len: 956; party: R" role="graphics-symbol" aria-roledescription="bar" d="M513.2075471698113,162.66666666666669h15.094339622641511v637.3333333333333h-15.094339622641511Z" fill="red"/><path aria-label="year: 2017; len: 899; party: R" role="graphics-symbol" aria-roledescription="bar" d="M550.9433962264151,200.66666666666669h15.094339622641511v599.3333333333333h-15.094339622641511Z" fill="red"/><path aria-label="year: 2017; len: 529; party: D" role="graphics-symbol" aria-roledescription="bar" d="M535.8490566037735,447.33333333333326h15.094339622641511v352.66666666666674h-15.094339622641511Z" fill="blue"/><path aria-label="year: 2018; len: 500; party: D" role="graphics-symbol" aria-roledescription="bar" d="M573.5849056603773,466.66666666666663h15.094339622641511v333.33333333333337h-15.094339622641511Z" fill="blue"/><path aria-label="year: 2018; len: 697; party: R" role="graphics-symbol" aria-roledescription="bar" d="M588.6792452830189,335.33333333333337h15.094339622641511v464.66666666666663h-15.094339622641511Z" fill="red"/><path aria-label="year: 2019; len: 794; party: R" role="graphics-symbol" aria-roledescription="bar" d="M626.4150943396227,270.6666666666667h15.094339622641511v529.3333333333333h-15.094339622641511Z" fill="red"/><path aria-label="year: 2019; len: 1174; party: D" role="graphics-symbol" aria-roledescription="bar" d="M611.3207547169811,17.33333333333329h15.094339622641511v782.6666666666667h-15.094339622641511Z" fill="blue"/><path aria-label="year: 2020; len: 972; party: D" role="graphics-symbol" aria-roledescription="bar" d="M649.0566037735849,151.99999999999994h15.094339622641511v648h-15.094339622641511Z" fill="blue"/><path aria-label="year: 2020; len: 1117; party: R" role="graphics-symbol" aria-roledescription="bar" d="M664.1509433962265,55.33333333333337h15.094339622641511v744.6666666666666h-15.094339622641511Z" fill="red"/><path aria-label="year: 2021; len: 1040; party: R" role="graphics-symbol" aria-roledescription="bar" d="M701.8867924528303,106.66666666666664h15.094339622641511v693.3333333333334h-15.094339622641511Z" fill="red"/><path aria-label="year: 2021; len: 857; party: D" role="graphics-symbol" aria-roledescription="bar" d="M686.7924528301887,228.6666666666667h15.094339622641511v571.3333333333333h-15.094339622641511Z" fill="blue"/><path aria-label="year: 2022; len: 568; party: D" role="graphics-symbol" aria-roledescription="bar" d="M724.5283018867924,421.3333333333333h15.094339622641511v378.6666666666667h-15.094339622641511Z" fill="blue"/><path aria-label="year: 2022; len: 934; party: R" role="graphics-symbol" aria-roledescription="bar" d="M739.622641509434,177.33333333333334h15.094339622641511v622.6666666666666h-15.094339622641511Z" fill="red"/><path aria-label="year: 2023; len: 260; party: D" role="graphics-symbol" aria-roledescription="bar" d="M762.2641509433962,626.6666666666666h15.094339622641511v173.33333333333337h-15.094339622641511Z" fill="blue"/><path aria-label="year: 2023; len: 164; party: R" role="graphics-symbol" aria-roledescription="bar" d="M777.3584905660377,690.6666666666666h15.094339622641511v109.33333333333337h-15.094339622641511Z" fill="red"/></g></g><path class="foreground" aria-hidden="true" d="" display="none"/></g><g transform="translate(822,0)"><path class="background" aria-hidden="true" d="M0.5,0.5h800v800h-800Z" stroke="#ddd"/><g><g class="mark-group role-axis" aria-hidden="true"><g transform="translate(0.5,0.5)"><path class="background" aria-hidden="true" d="M0,0h0v0h0Z" pointer-events="none"/><g><g class="mark-rule role-axis-grid" pointer-events="none"><line transform="translate(0,800)" x2="800" y2="0" stroke="#ddd" stroke-width="1" opacity="1"/><line transform="translate(0,767)" x2="800" y2="0" stroke="#ddd" stroke-width="1" opacity="1"/><line transform="translate(0,733)" x2="800" y2="0" stroke="#ddd" stroke-width="1" opacity="1"/><line transform="translate(0,700)" x2="800" y2="0" stroke="#ddd" stroke-width="1" opacity="1"/><line transform="translate(0,667)" x2="800" y2="0" stroke="#ddd" stroke-width="1" opacity="1"/><line transform="translate(0,633)" x2="800" y2="0" stroke="#ddd" stroke-width="1" opacity="1"/><line transform="translate(0,600)" x2="800" y2="0" stroke="#ddd" stroke-width="1" opacity="1"/><line transform="translate(0,567)" x2="800" y2="0" stroke="#ddd" stroke-width="1" opacity="1"/><line transform="translate(0,533)" x2="800" y2="0" stroke="#ddd" stroke-width="1" opacity="1"/><line transform="translate(0,500)" x2="800" y2="0" stroke="#ddd" stroke-width="1" opacity="1"/><line transform="translate(0,467)" x2="800" y2="0" stroke="#ddd" stroke-width="1" opacity="1"/><line transform="translate(0,433)" x2="800" y2="0" stroke="#ddd" stroke-width="1" opacity="1"/><line transform="translate(0,400)" x2="800" y2="0" stroke="#ddd" stroke-width="1" opacity="1"/><line transform="translate(0,367)" x2="800" y2="0" stroke="#ddd" stroke-width="1" opacity="1"/><line transform="translate(0,333)" x2="800" y2="0" stroke="#ddd" stroke-width="1" opacity="1"/><line transform="translate(0,300)" x2="800" y2="0" stroke="#ddd" stroke-width="1" opacity="1"/><line transform="translate(0,267)" x2="800" y2="0" stroke="#ddd" stroke-width="1" opacity="1"/><line transform="translate(0,233)" x2="800" y2="0" stroke="#ddd" stroke-width="1" opacity="1"/><line transform="translate(0,200)" x2="800" y2="0" stroke="#ddd" stroke-width="1" opacity="1"/><line transform="translate(0,167)" x2="800" y2="0" stroke="#ddd" stroke-width="1" opacity="1"/><line transform="translate(0,133)" x2="800" y2="0" stroke="#ddd" stroke-width="1" opacity="1"/><line transform="translate(0,100)" x2="800" y2="0" stroke="#ddd" stroke-width="1" opacity="1"/><line transform="translate(0,67)" x2="800" y2="0" stroke="#ddd" stroke-width="1" opacity="1"/><line transform="translate(0,33)" x2="800" y2="0" stroke="#ddd" stroke-width="1" opacity="1"/><line transform="translate(0,0)" x2="800" y2="0" stroke="#ddd" stroke-width="1" opacity="1"/></g></g><path class="foreground" aria-hidden="true" d="" pointer-events="none" display="none"/></g></g><g class="mark-rect role-mark child_marks" role="graphics-object" aria-roledescription="rect mark container"><path aria-label="year: 2003; len: 28; party: D" role="graphics-symbol" aria-roledescription="bar" d="M7.547169811320714,781.3333333333334h15.094339622641511v18.66666666666663h-15.094339622641511Z" fill="blue"/><path aria-label="year: 2004; len: 33; party: D" role="graphics-symbol" aria-roledescription="bar" d="M45.28301886792449,778h15.094339622641511v22h-15.094339622641511Z" fill="blue"/><path aria-label="year: 2005; len: 230; party: D" role="graphics-symbol" aria-roledescription="bar" d="M83.01886792452827,646.6666666666666h15.094339622641511v153.33333333333337h-15.094339622641511Z" fill="blue"/><path aria-label="year: 2006; len: 209; party: D" role="graphics-symbol" aria-roledescription="bar" d="M120.75471698113205,660.6666666666666h15.094339622641511v139.33333333333337h-15.094339622641511Z" fill="blue"/><path aria-label="year: 2006; len: 25; party: R" role="graphics-symbol" aria-roledescription="bar" d="M135.84905660377356,783.3333333333333h15.094339622641511v16.666666666666742h-15.094339622641511Z" fill="red"/><path aria-label="year: 2007; len: 250; party: D" role="graphics-symbol" aria-roledescription="bar" d="M158.49056603773582,633.3333333333333h15.094339622641511v166.66666666666674h-15.094339622641511Z" fill="blue"/><path aria-label="year: 2008; len: 226; party: D" role="graphics-symbol" aria-roledescription="bar" d="M196.2264150943396,649.3333333333334h15.094339622641511v150.66666666666663h-15.094339622641511Z" fill="blue"/><path aria-label="year: 2009; len: 66; party: R" role="graphics-symbol" aria-roledescription="bar" d="M249.0566037735849,756h15.094339622641511v44h-15.094339622641511Z" fill="red"/><path aria-label="year: 2009; len: 363; party: D" role="graphics-symbol" aria-roledescription="bar" d="M233.96226415094338,558h15.094339622641511v242h-15.094339622641511Z" fill="blue"/><path aria-label="year: 2010; len: 152; party: R" role="graphics-symbol" aria-roledescription="bar" d="M286.7924528301886,698.6666666666666h15.094339622641511v101.33333333333337h-15.094339622641511Z" fill="red"/><path aria-label="year: 2010; len: 301; party: D" role="graphics-symbol" aria-roledescription="bar" d="M271.6981132075471,599.3333333333334h15.094339622641511v200.66666666666663h-15.094339622641511Z" fill="blue"/><path aria-label="year: 2011; len: 357; party: D" role="graphics-symbol" aria-roledescription="bar" d="M309.4339622641509,562h15.094339622641511v238h-15.094339622641511Z" fill="blue"/><path aria-label="year: 2011; len: 123; party: R" role="graphics-symbol" aria-roledescription="bar" d="M324.5283018867924,718h15.094339622641511v82h-15.094339622641511Z" fill="red"/><path aria-label="year: 2012; len: 84; party: R" role="graphics-symbol" aria-roledescription="bar" d="M362.2641509433962,744h15.094339622641511v56h-15.094339622641511Z" fill="red"/><path aria-label="year: 2012; len: 348; party: D" role="graphics-symbol" aria-roledescription="bar" d="M347.1698113207547,568h15.094339622641511v232h-15.094339622641511Z" fill="blue"/><path aria-label="year: 2013; len: 74; party: D" role="graphics-symbol" aria-roledescription="bar" d="M384.90566037735846,750.6666666666666h15.094339622641511v49.33333333333337h-15.094339622641511Z" fill="blue"/><path aria-label="year: 2013; len: 93; party: R" role="graphics-symbol" aria-roledescription="bar" d="M399.99999999999994,738h15.094339622641511v62h-15.094339622641511Z" fill="red"/><path aria-label="year: 2014; len: 54; party: R" role="graphics-symbol" aria-roledescription="bar" d="M437.73584905660374,764h15.094339622641511v36h-15.094339622641511Z" fill="red"/><path aria-label="year: 2014; len: 10; party: D" role="graphics-symbol" aria-roledescription="bar" d="M422.64150943396226,793.3333333333334h15.094339622641511v6.666666666666629h-15.094339622641511Z" fill="blue"/><path aria-label="year: 2015; len: 158; party: D" role="graphics-symbol" aria-roledescription="bar" d="M460.37735849056605,694.6666666666667h15.094339622641511v105.33333333333326h-15.094339622641511Z" fill="blue"/><path aria-label="year: 2016; len: 249; party: D" role="graphics-symbol" aria-roledescription="bar" d="M498.1132075471698,634h15.094339622641511v166h-15.094339622641511Z" fill="blue"/><path aria-label="year: 2017; len: 54; party: R" role="graphics-symbol" aria-roledescription="bar" d="M550.9433962264151,764h15.094339622641511v36h-15.094339622641511Z" fill="red"/><path aria-label="year: 2017; len: 66; party: D" role="graphics-symbol" aria-roledescription="bar" d="M535.8490566037735,756h15.094339622641511v44h-15.094339622641511Z" fill="blue"/><path aria-label="year: 2018; len: 80; party: D" role="graphics-symbol" aria-roledescription="bar" d="M573.5849056603773,746.6666666666666h15.094339622641511v53.33333333333337h-15.094339622641511Z" fill="blue"/><path aria-label="year: 2018; len: 66; party: R" role="graphics-symbol" aria-roledescription="bar" d="M588.6792452830189,756h15.094339622641511v44h-15.094339622641511Z" fill="red"/><path aria-label="year: 2019; len: 55; party: D" role="graphics-symbol" aria-roledescription="bar" d="M611.3207547169811,763.3333333333334h15.094339622641511v36.66666666666663h-15.094339622641511Z" fill="blue"/><path aria-label="year: 2019; len: 70; party: R" role="graphics-symbol" aria-roledescription="bar" d="M626.4150943396227,753.3333333333334h15.094339622641511v46.66666666666663h-15.094339622641511Z" fill="red"/><path aria-label="year: 2020; len: 56; party: D" role="graphics-symbol" aria-roledescription="bar" d="M649.0566037735849,762.6666666666667h15.094339622641511v37.33333333333326h-15.094339622641511Z" fill="blue"/><path aria-label="year: 2020; len: 82; party: R" role="graphics-symbol" aria-roledescription="bar" d="M664.1509433962265,745.3333333333333h15.094339622641511v54.66666666666674h-15.094339622641511Z" fill="red"/><path aria-label="year: 2021; len: 35; party: R" role="graphics-symbol" aria-roledescription="bar" d="M701.8867924528303,776.6666666666666h15.094339622641511v23.33333333333337h-15.094339622641511Z" fill="red"/><path aria-label="year: 2021; len: 225; party: D" role="graphics-symbol" aria-roledescription="bar" d="M686.7924528301887,650h15.094339622641511v150h-15.094339622641511Z" fill="blue"/><path aria-label="year: 2022; len: 331; party: D" role="graphics-symbol" aria-roledescription="bar" d="M724.5283018867924,579.3333333333333h15.094339622641511v220.66666666666674h-15.094339622641511Z" fill="blue"/><path aria-label="year: 2022; len: 56; party: R" role="graphics-symbol" aria-roledescription="bar" d="M739.622641509434,762.6666666666667h15.094339622641511v37.33333333333326h-15.094339622641511Z" fill="red"/><path aria-label="year: 2023; len: 219; party: D" role="graphics-symbol" aria-roledescription="bar" d="M762.2641509433962,654h15.094339622641511v146h-15.094339622641511Z" fill="blue"/><path aria-label="year: 2023; len: 30; party: R" role="graphics-symbol" aria-roledescription="bar" d="M777.3584905660377,780h15.094339622641511v20h-15.094339622641511Z" fill="red"/></g></g><path class="foreground" aria-hidden="true" d="" display="none"/></g></g><g class="mark-group role-legend" role="graphics-symbol" aria-roledescription="legend" aria-label="Symbol legend titled 'party' for fill color with 2 values: R, D"><g transform="translate(1641,0)"><path class="background" aria-hidden="true" d="M0,0h27v40h-27Z" pointer-events="none"/><g><g class="mark-group role-legend-entry"><g transform="translate(0,16)"><path class="background" aria-hidden="true" d="M0,0h0v0h0Z" pointer-events="none"/><g><g class="mark-group role-scope" role="graphics-object" aria-roledescription="group mark container"><g transform="translate(0,0)"><path class="background" aria-hidden="true" d="M0,0h23.2216796875v11h-23.2216796875Z" pointer-events="none" opacity="1"/><g><g class="mark-symbol role-legend-symbol" pointer-events="none"><path transform="translate(6,6)" d="M-5,-5h10v10h-10Z" fill="red" stroke-width="1.5" opacity="1"/></g><g class="mark-text role-legend-label" pointer-events="none"><text text-anchor="start" transform="translate(16,9)" font-family="sans-serif" font-size="10px" fill="#000" opacity="1">R</text></g></g><path class="foreground" aria-hidden="true" d="" pointer-events="none" display="none"/></g><g transform="translate(0,13)"><path class="background" aria-hidden="true" d="M0,0h23.2216796875v11h-23.2216796875Z" pointer-events="none" opacity="1"/><g><g class="mark-symbol role-legend-symbol" pointer-events="none"><path transform="translate(6,6)" d="M-5,-5h10v10h-10Z" fill="blue" stroke-width="1.5" opacity="1"/></g><g class="mark-text role-legend-label" pointer-events="none"><text text-anchor="start" transform="translate(16,9)" font-family="sans-serif" font-size="10px" fill="#000" opacity="1">D</text></g></g><path class="foreground" aria-hidden="true" d="" pointer-events="none" display="none"/></g></g></g><path class="foreground" aria-hidden="true" d="" pointer-events="none" display="none"/></g></g><g class="mark-text role-legend-title" pointer-events="none"><text text-anchor="start" transform="translate(0,9)" font-family="sans-serif" font-size="11px" font-weight="bold" fill="#000" opacity="1">party</text></g></g><path class="foreground" aria-hidden="true" d="" pointer-events="none" display="none"/></g></g><g class="mark-group role-title"><g transform="translate(-48.0244140625,-69)"><path class="background" aria-hidden="true" d="M0,0h0v0h0Z" pointer-events="none"/><g><g class="mark-text role-title-text" role="graphics-symbol" aria-roledescription="title" aria-label="Title text 'Speeches Per Year by Party by Gender'" pointer-events="none"><text text-anchor="start" transform="translate(0,10)" font-family="sans-serif" font-size="13px" font-weight="bold" fill="#000" opacity="1">Speeches Per Year by Party by Gender</text></g></g><path class="foreground" aria-hidden="true" d="" pointer-events="none" display="none"/></g></g></g><path class="foreground" aria-hidden="true" d="" display="none"/></g></g></g></svg>