<svg xmlns="http://www.w3.org/2000/svg" xmlns:xlink="http://www.w3.org/1999/xlink" version="1.1" class="marks" width="538" height="376" viewBox="0 0 538 376"><rect width="538" height="376" fill="white"/><g fill="none" stroke-miterlimit="10" transform="translate(41,39)"><g class="mark-group role-frame root" role="graphics-object" aria-roledescription="group mark container"><g transform="translate(0,0)"><path class="background" aria-hidden="true" d="M0.5,0.5h400v300h-400Z" stroke="#ddd"/><g><g class="mark-group role-axis" role="graphics-symbol" aria-roledescription="axis" aria-label="X-axis for a time scale with values from Friday, 01 May 2009, 12:00:00 AM to Saturday, 01 May 2021, 12:00:00 AM"><g transform="translate(0.5,300.5)"><path class="background" aria-hidden="true" d="M0,0h0v0h0Z" pointer-events="none"/><g><g class="mark-rule role-axis-grid" pointer-events="none"><line transform="translate(22,-300)" x2="0" y2="300" stroke="#ddd" stroke-width="1" opacity="1"/><line transform="translate(56,-300)" x2="0" y2="300" stroke="#ddd" stroke-width="1" opacity="1"/><line transform="translate(89,-300)" x2="0" y2="300" stroke="#ddd" stroke-width="1" opacity="1"/><line transform="translate(122,-300)" x2="0" y2="300" stroke="#ddd" stroke-width="1" opacity="1"/><line transform="translate(156,-300)" x2="0" y2="300" stroke="#ddd" stroke-width="1" opacity="1"/><line transform="translate(189,-300)" x2="0" y2="300" stroke="#ddd" stroke-width="1" opacity="1"/><line transform="translate(222,-300)" x2="0" y2="300" stroke="#ddd" stroke-width="1" opacity="1"/><line transform="translate(256,-300)" x2="0" y2="300" stroke="#ddd" stroke-width="1" opacity="1"/><line transform="translate(289,-300)" x2="0" y2="300" stroke="#ddd" stroke-width="1" opacity="1"/><line transform="translate(322,-300)" x2="0" y2="300" stroke="#ddd" stroke-width="1" opacity="1"/><line transform="translate(356,-300)" x2="0" y2="300" stroke="#ddd" stroke-width="1" opacity="1"/><line transform="translate(389,-300)" x2="0" y2="300" stroke="#ddd" stroke-width="1" opacity="1"/></g></g><path class="foreground" aria-hidden="true" d="" pointer-events="none" display="none"/></g></g><g class="mark-group role-axis" role="graphics-symbol" aria-roledescription="axis" aria-label="Y-axis for a linear scale with values from 0.0 to 1.0"><g transform="translate(0.5,0.5)"><path class="background" aria-hidden="true" d="M0,0h0v0h0Z" pointer-events="none"/><g><g class="mark-rule role-axis-grid" pointer-events="none"><line transform="translate(0,300)" x2="400" y2="0" stroke="#ddd" stroke-width="1" opacity="1"/><line transform="translate(0,270)" x2="400" y2="0" stroke="#ddd" stroke-width="1" opacity="1"/><line transform="translate(0,240)" x2="400" y2="0" stroke="#ddd" stroke-width="1" opacity="1"/><line transform="translate(0,210)" x2="400" y2="0" stroke="#ddd" stroke-width="1" opacity="1"/><line transform="translate(0,180)" x2="400" y2="0" stroke="#ddd" stroke-width="1" opacity="1"/><line transform="translate(0,150)" x2="400" y2="0" stroke="#ddd" stroke-width="1" opacity="1"/><line transform="translate(0,120)" x2="400" y2="0" stroke="#ddd" stroke-width="1" opacity="1"/><line transform="translate(0,90)" x2="400" y2="0" stroke="#ddd" stroke-width="1" opacity="1"/><line transform="translate(0,60)" x2="400" y2="0" stroke="#ddd" stroke-width="1" opacity="1"/><line transform="translate(0,30)" x2="400" y2="0" stroke="#ddd" stroke-width="1" opacity="1"/><line transform="translate(0,0)" x2="400" y2="0" stroke="#ddd" stroke-width="1" opacity="1"/></g></g><path class="foreground" aria-hidden="true" d="" pointer-events="none" display="none"/></g></g><g class="mark-group role-axis" role="graphics-symbol" aria-roledescription="axis" aria-label="X-axis titled 'Date (Year-Month)' for a time scale with values from Friday, 01 May 2009, 12:00:00 AM to Saturday, 01 May 2021, 12:00:00 AM"><g transform="translate(0.5,300.5)"><path class="background" aria-hidden="true" d="M0,0h0v0h0Z" pointer-events="none"/><g><g class="mark-rule role-axis-tick" pointer-events="none"><line transform="translate(22,0)" x2="0" y2="5" stroke="#888" stroke-width="1" opacity="1"/><line transform="translate(56,0)" x2="0" y2="5" stroke="#888" stroke-width="1" opacity="1"/><line transform="translate(89,0)" x2="0" y2="5" stroke="#888" stroke-width="1" opacity="1"/><line transform="translate(122,0)" x2="0" y2="5" stroke="#888" stroke-width="1" opacity="1"/><line transform="translate(156,0)" x2="0" y2="5" stroke="#888" stroke-width="1" opacity="1"/><line transform="translate(189,0)" x2="0" y2="5" stroke="#888" stroke-width="1" opacity="1"/><line transform="translate(222,0)" x2="0" y2="5" stroke="#888" stroke-width="1" opacity="1"/><line transform="translate(256,0)" x2="0" y2="5" stroke="#888" stroke-width="1" opacity="1"/><line transform="translate(289,0)" x2="0" y2="5" stroke="#888" stroke-width="1" opacity="1"/><line transform="translate(322,0)" x2="0" y2="5" stroke="#888" stroke-width="1" opacity="1"/><line transform="translate(356,0)" x2="0" y2="5" stroke="#888" stroke-width="1" opacity="1"/><line transform="translate(389,0)" x2="0" y2="5" stroke="#888" stroke-width="1" opacity="1"/></g><g class="mark-text role-axis-label" pointer-events="none"><text text-anchor="middle" transform="translate(22.36291733211651,15)" font-family="sans-serif" font-size="10px" fill="#000" opacity="1">Jan 2010</text><text text-anchor="middle" transform="translate(55.673435242223746,15)" font-family="sans-serif" font-size="10px" fill="#000" opacity="0">Jan 2011</text><text text-anchor="middle" transform="translate(88.98395315233097,15)" font-family="sans-serif" font-size="10px" fill="#000" opacity="1">Jan 2012</text><text text-anchor="middle" transform="translate(122.38573275534262,15)" font-family="sans-serif" font-size="10px" fill="#000" opacity="0">Jan 2013</text><text text-anchor="middle" transform="translate(155.69625066544987,15)" font-family="sans-serif" font-size="10px" fill="#000" opacity="1">Jan 2014</text><text text-anchor="middle" transform="translate(189.00676857555706,15)" font-family="sans-serif" font-size="10px" fill="#000" opacity="0">Jan 2015</text><text text-anchor="middle" transform="translate(222.3172864856643,15)" font-family="sans-serif" font-size="10px" fill="#000" opacity="1">Jan 2016</text><text text-anchor="middle" transform="translate(255.71906608867593,15)" font-family="sans-serif" font-size="10px" fill="#000" opacity="0">Jan 2017</text><text text-anchor="middle" transform="translate(289.02958399878315,15)" font-family="sans-serif" font-size="10px" fill="#000" opacity="1">Jan 2018</text><text text-anchor="middle" transform="translate(322.3401019088904,15)" font-family="sans-serif" font-size="10px" fill="#000" opacity="0">Jan 2019</text><text text-anchor="middle" transform="translate(355.65061981899765,15)" font-family="sans-serif" font-size="10px" fill="#000" opacity="1">Jan 2020</text><text text-anchor="middle" transform="translate(389.0523994220093,15)" font-family="sans-serif" font-size="10px" fill="#000" opacity="0">Jan 2021</text></g><g class="mark-rule role-axis-domain" pointer-events="none"><line transform="translate(0,0)" x2="400" y2="0" stroke="#888" stroke-width="1" opacity="1"/></g><g class="mark-text role-axis-title" pointer-events="none"><text text-anchor="middle" transform="translate(200,30)" font-family="sans-serif" font-size="11px" font-weight="bold" fill="#000" opacity="1">Date (Year-Month)</text></g></g><path class="foreground" aria-hidden="true" d="" pointer-events="none" display="none"/></g></g><g class="mark-group role-axis" role="graphics-symbol" aria-roledescription="axis" aria-label="Y-axis titled 'Count' for a linear scale with values from 0.0 to 1.0"><g transform="translate(0.5,0.5)"><path class="background" aria-hidden="true" d="M0,0h0v0h0Z" pointer-events="none"/><g><g class="mark-rule role-axis-tick" pointer-events="none"><line transform="translate(0,300)" x2="-5" y2="0" stroke="#888" stroke-width="1" opacity="1"/><line transform="translate(0,270)" x2="-5" y2="0" stroke="#888" stroke-width="1" opacity="1"/><line transform="translate(0,240)" x2="-5" y2="0" stroke="#888" stroke-width="1" opacity="1"/><line transform="translate(0,210)" x2="-5" y2="0" stroke="#888" stroke-width="1" opacity="1"/><line transform="translate(0,180)" x2="-5" y2="0" stroke="#888" stroke-width="1" opacity="1"/><line transform="translate(0,150)" x2="-5" y2="0" stroke="#888" stroke-width="1" opacity="1"/><line transform="translate(0,120)" x2="-5" y2="0" stroke="#888" stroke-width="1" opacity="1"/><line transform="translate(0,90)" x2="-5" y2="0" stroke="#888" stroke-width="1" opacity="1"/><line transform="translate(0,60)" x2="-5" y2="0" stroke="#888" stroke-width="1" opacity="1"/><line transform="translate(0,30)" x2="-5" y2="0" stroke="#888" stroke-width="1" opacity="1"/><line transform="translate(0,0)" x2="-5" y2="0" stroke="#888" stroke-width="1" opacity="1"/></g><g class="mark-text role-axis-label" pointer-events="none"><text text-anchor="end" transform="translate(-7,303)" font-family="sans-serif" font-size="10px" fill="#000" opacity="1">0.0</text><text text-anchor="end" transform="translate(-7,273)" font-family="sans-serif" font-size="10px" fill="#000" opacity="1">0.1</text><text text-anchor="end" transform="translate(-7,243)" font-family="sans-serif" font-size="10px" fill="#000" opacity="1">0.2</text><text text-anchor="end" transform="translate(-7,213)" font-family="sans-serif" font-size="10px" fill="#000" opacity="1">0.3</text><text text-anchor="end" transform="translate(-7,183)" font-family="sans-serif" font-size="10px" fill="#000" opacity="1">0.4</text><text text-anchor="end" transform="translate(-7,153)" font-family="sans-serif" font-size="10px" fill="#000" opacity="1">0.5</text><text text-anchor="end" transform="translate(-7,123)" font-family="sans-serif" font-size="10px" fill="#000" opacity="1">0.6</text><text text-anchor="end" transform="translate(-7,93.00000000000001)" font-family="sans-serif" font-size="10px" fill="#000" opacity="1">0.7</text><text text-anchor="end" transform="translate(-7,62.999999999999986)" font-family="sans-serif" font-size="10px" fill="#000" opacity="1">0.8</text><text text-anchor="end" transform="translate(-7,32.99999999999999)" font-family="sans-serif" font-size="10px" fill="#000" opacity="1">0.9</text><text text-anchor="end" transform="translate(-7,3)" font-family="sans-serif" font-size="10px" fill="#000" opacity="1">1.0</text></g><g class="mark-rule role-axis-domain" pointer-events="none"><line transform="translate(0,300)" x2="0" y2="-300" stroke="#888" stroke-width="1" opacity="1"/></g><g class="mark-text role-axis-title" pointer-events="none"><text text-anchor="middle" transform="translate(-24.559967041015625,150) rotate(-90) translate(0,-2)" font-family="sans-serif" font-size="11px" font-weight="bold" fill="#000" opacity="1">Count</text></g></g><path class="foreground" aria-hidden="true" d="" pointer-events="none" display="none"/></g></g><g class="mark-group role-scope pathgroup" role="graphics-object" aria-roledescription="group mark container"><g transform="translate(0,0)"><path class="background" aria-hidden="true" d="M0,0h400v300h-400Z"/><g><g class="mark-area role-mark marks" role="graphics-symbol" aria-roledescription="area mark container"><path d="M0,0L8.39607574720511,0L11.225188227241615,0L13.963039014373715,0L16.79215149441022,0L19.533804852080006,0L22.36291733211651,0L25.192029812153017,0L27.74735721347631,0L30.572667122975133,0L33.31051791010724,0L36.139630390143736,3.3306690738754696e-14L38.87748117727584,0L41.70659365731234,0L44.535706137348846,0L47.27355692448095,0L50.10266940451745,3.3306690738754696e-14L52.84432276218723,0L55.673435242223746,0L58.502547722260246,0L61.057875123583536,0L63.88318503308237,0L66.62103582021447,0L69.45014830025097,0L72.18799908738308,0L75.01711156741958,0L77.84622404745608,0L80.58407483458818,0L83.41318731462468,0L86.15484067229447,0L88.98395315233097,0L91.81306563236748,0L94.45965472659518,0L97.284964636094,0L100.0228154232261,0L102.8519279032626,0L105.5897786903947,0L108.41889117043122,0L111.24800365046772,3.3306690738754696e-14L113.98585443759981,0L116.81496691763633,0L119.55662027530612,0L122.38573275534262,0L125.21484523537912,0L127.77017263670241,0L130.59548254620123,0L133.33333333333331,3.3306690738754696e-14L136.16244581336986,0L138.90029660050195,0L141.72940908053843,3.3306690738754696e-14L144.55852156057495,0L147.29637234770706,0L150.12548482774355,0L152.86713818541332,0L155.69625066544987,0L158.52536314548635,0L161.08069054680965,0L163.90600045630845,0L166.64385124344057,0L169.47296372347708,0L172.21081451060917,0L175.03992699064568,0L177.86903947068217,0L180.60689025781429,0L183.4360027378508,0L186.17765609552058,3.3306690738754696e-14L189.00676857555706,0L191.83588105559357,0L194.3912084569169,0L197.2165183664157,0L199.95436915354782,0L202.78348163358427,0L205.5213324207164,0L208.3504449007529,0L211.1795573807894,0L213.9174081679215,0L216.746520647958,0L219.4881740056278,0L222.3172864856643,0L225.14639896570083,0L227.7929880599285,0L230.61829796942735,0L233.35614875655946,0L236.18526123659595,3.3306690738754696e-14L238.92311202372804,0L241.75222450376452,0L244.58133698380107,0L247.31918777093313,0L250.14830025096964,0L252.88995360863944,0L255.71906608867593,0L258.54817856871244,0L261.1035059700357,0L263.92881587953457,0L266.66666666666663,0L269.49577914670317,3.3306690738754696e-14L272.2336299338353,3.3306690738754696e-14L275.0627424138718,0L277.89185489390826,0L280.6297056810404,0L283.45881816107686,3.3306690738754696e-14L286.20047151874667,0L289.02958399878315,0L291.8586964788197,0L294.41402388014296,0L297.23933378964176,0L299.9771845767739,0L302.80629705681037,0L305.5441478439425,3.3306690738754696e-14L308.373260323979,0L311.2023728040155,0L313.9402235911476,3.3306690738754696e-14L316.7693360711841,3.3306690738754696e-14L319.5109894288539,0L322.3401019088904,0L325.16921438892695,0L327.7245417902502,0L330.549851699749,3.3306690738754696e-14L333.28770248688113,0L336.1168149669176,0L338.85466575404973,0L341.6837782340862,3.3306690738754696e-14L344.51289071412276,0L347.2507415012549,3.3306690738754696e-14L350.07985398129136,0L352.8215073389611,0L355.65061981899765,0L358.47973229903414,0L361.12632139326183,0L363.95163130276063,0L366.68948208989275,0L369.51859456992923,0L372.25644535706135,0L375.0855578370979,0L377.9146703171344,3.3306690738754696e-14L380.6525211042665,0L383.481633584303,0L386.2232869419728,0L389.0523994220093,0L391.88151190204576,0L394.4368393033691,0L397.2621492128679,0L400,0L400,298.52018377658703L397.2621492128679,298.5335265037989L394.4368393033691,298.03003918154116L391.88151190204576,298.3783783783784L389.0523994220093,298.02728432623417L386.2232869419728,298.3983786055019L383.481633584303,298.2736911472246L380.6525211042665,298.38324007428355L377.9146703171344,298.3823383167037L375.0855578370979,298.4778061817337L372.25644535706135,298.426313177855L369.51859456992923,298.2885421678466L366.68948208989275,298.4466194927948L363.95163130276063,298.12172088142705L361.12632139326183,298.2765431250644L358.47973229903414,298.4753746527552L355.65061981899765,297.73553600507995L352.8215073389611,298.37321998269977L350.07985398129136,298.0751062824752L347.2507415012549,297.96630989888416L344.51289071412276,297.96070182639033L341.6837782340862,298.11866584193746L338.85466575404973,298.2621269883002L336.1168149669176,297.98369051762717L333.28770248688113,298.2672416333507L330.549851699749,298.03770681031165L327.7245417902502,297.1700682172058L325.16921438892695,298.14354183097737L322.3401019088904,297.82071497493587L319.5109894288539,297.56699134651564L316.7693360711841,297.74921387984773L313.9402235911476,297.76947987575176L311.2023728040155,297.85383501186647L308.373260323979,297.5295220487716L305.5441478439425,297.5778627377844L302.80629705681037,297.6263324121595L299.9771845767739,297.38810106505446L297.23933378964176,297.556424701281L294.41402388014296,297.65304992804164L291.8586964788197,297.6344815360069L289.02958399878315,297.3697698885862L286.20047151874667,297.34310162740223L283.45881816107686,297.38324607329844L280.6297056810404,297.5633464497014L277.89185489390826,297.5272650495765L275.0627424138718,297.16674523035704L272.2336299338353,296.6118334213305L269.49577914670317,297.1925403710579L266.66666666666663,297.44534485061666L263.92881587953457,297.3864869376513L261.1035059700357,297.6865458498789L258.54817856871244,297.0395165847933L255.71906608867593,297.2646401839249L252.88995360863944,297.23507635354L250.14830025096964,297.20951279601786L247.31918777093313,297.6972711385939L244.58133698380107,297.34605739760383L241.75222450376452,297.5912653975364L238.92311202372804,297.31418634655296L236.18526123659595,296.9843097740032L233.35614875655946,297.4068071312804L230.61829796942735,297.2025290102015L227.7929880599285,296.8415518083149L225.14639896570083,297.32165206508137L222.3172864856643,297.07418309075865L219.4881740056278,296.9214058055941L216.746520647958,297.15018094089265L213.9174081679215,295.69627590204317L211.1795573807894,297.05587018516286L208.3504449007529,297.3989122724048L205.5213324207164,297.6857330703484L202.78348163358427,297.7311179558371L199.95436915354782,297.0603498275283L197.2165183664157,297.0340992369703L194.3912084569169,297.2639024110876L191.83588105559357,297.32833125887487L189.00676857555706,296.847736769411L186.17765609552058,297.29089473364513L183.4360027378508,297.5135695142001L180.60689025781429,297.6182027854165L177.86903947068217,297.2277308690941L175.03992699064568,297.59557038834953L172.21081451060917,296.9172151021822L169.47296372347708,297.1491177488179L166.64385124344057,296.0663867047891L163.90600045630845,297.79848947452996L161.08069054680965,297.7355286125395L158.52536314548635,297.8737067427756L155.69625066544987,297.9413550106891L152.86713818541332,298.10046433094135L150.12548482774355,297.7511504732135L147.29637234770706,297.4927928714947L144.55852156057495,297.7886761423705L141.72940908053843,297.0625528317836L138.90029660050195,297.6447395725254L136.16244581336986,297.5607722136513L133.33333333333331,297.98938467074487L130.59548254620123,297.53719856336585L127.77017263670241,297.4367687751833L125.21484523537912,297.78770588868554L122.38573275534262,297.135755042088L119.55662027530612,296.80385779970845L116.81496691763633,297.06462058285234L113.98585443759981,297.8576161378193L111.24800365046772,297.2990353697749L108.41889117043122,298.0770382795183L105.5897786903947,297.3251994368841L102.8519279032626,298.04179788147724L100.0228154232261,298.0969642048029L97.284964636094,297.9226203561222L94.45965472659518,297.8663319736429L91.81306563236748,297.472399767577L88.98395315233097,296.5936739659368L86.15484067229447,296.97360703812313L83.41318731462468,297.41007194244605L80.58407483458818,297.6926490164177L77.84622404745608,297.45385962548835L75.01711156741958,297.34231041814314L72.18799908738308,297.7980665950591L69.45014830025097,297.5903614457831L66.62103582021447,298.07058047493405L63.88318503308237,297.52730269936126L61.057875123583536,298.1907527362073L58.502547722260246,298.7059264816204L55.673435242223746,297.44861800141746L52.84432276218723,297.484756097561L50.10266940451745,298.32179009057006L47.27355692448095,297.9878840328862L44.535706137348846,298.8944287882073L41.70659365731234,298.2788844621514L38.87748117727584,297.34726688102893L36.139630390143736,297.934595524957L33.31051791010724,297.7285018929151L30.572667122975133,298.45360824742266L27.74735721347631,296.7284623773173L25.192029812153017,298.8997555012225L22.36291733211651,298.2121573301549L19.533804852080006,298.5L16.79215149441022,298.1818181818182L13.963039014373715,295.16129032258067L11.225188227241615,300L8.39607574720511,300L0,285Z" fill="#4c78a8" opacity="0.7"/></g></g><path class="foreground" aria-hidden="true" d="" display="none"/></g><g transform="translate(0,0)"><path class="background" aria-hidden="true" d="M0,0h400v300h-400Z"/><g><g class="mark-area role-mark marks" role="graphics-symbol" aria-roledescription="area mark container"><path d="M0,285L8.39607574720511,300L11.225188227241615,300L13.963039014373715,295.16129032258067L16.79215149441022,298.1818181818182L19.533804852080006,298.5L22.36291733211651,298.2121573301549L25.192029812153017,298.8997555012225L27.74735721347631,296.7284623773173L30.572667122975133,298.45360824742266L33.31051791010724,297.7285018929151L36.139630390143736,297.934595524957L38.87748117727584,297.34726688102893L41.70659365731234,298.2788844621514L44.535706137348846,298.8944287882073L47.27355692448095,297.9878840328862L50.10266940451745,298.32179009057006L52.84432276218723,297.484756097561L55.673435242223746,297.44861800141746L58.502547722260246,298.7059264816204L61.057875123583536,298.1907527362073L63.88318503308237,297.52730269936126L66.62103582021447,298.07058047493405L69.45014830025097,297.5903614457831L72.18799908738308,297.7980665950591L75.01711156741958,297.34231041814314L77.84622404745608,297.45385962548835L80.58407483458818,297.6926490164177L83.41318731462468,297.41007194244605L86.15484067229447,296.97360703812313L88.98395315233097,296.5936739659368L91.81306563236748,297.472399767577L94.45965472659518,297.8663319736429L97.284964636094,297.9226203561222L100.0228154232261,298.0969642048029L102.8519279032626,298.04179788147724L105.5897786903947,297.3251994368841L108.41889117043122,298.0770382795183L111.24800365046772,297.2990353697749L113.98585443759981,297.8576161378193L116.81496691763633,297.06462058285234L119.55662027530612,296.80385779970845L122.38573275534262,297.135755042088L125.21484523537912,297.78770588868554L127.77017263670241,297.4367687751833L130.59548254620123,297.53719856336585L133.33333333333331,297.98938467074487L136.16244581336986,297.5607722136513L138.90029660050195,297.6447395725254L141.72940908053843,297.0625528317836L144.55852156057495,297.7886761423705L147.29637234770706,297.4927928714947L150.12548482774355,297.7511504732135L152.86713818541332,298.10046433094135L155.69625066544987,297.9413550106891L158.52536314548635,297.8737067427756L161.08069054680965,297.7355286125395L163.90600045630845,297.79848947452996L166.64385124344057,296.0663867047891L169.47296372347708,297.1491177488179L172.21081451060917,296.9172151021822L175.03992699064568,297.59557038834953L177.86903947068217,297.2277308690941L180.60689025781429,297.6182027854165L183.4360027378508,297.5135695142001L186.17765609552058,297.29089473364513L189.00676857555706,296.847736769411L191.83588105559357,297.32833125887487L194.3912084569169,297.2639024110876L197.2165183664157,297.0340992369703L199.95436915354782,297.0603498275283L202.78348163358427,297.7311179558371L205.5213324207164,297.6857330703484L208.3504449007529,297.3989122724048L211.1795573807894,297.05587018516286L213.9174081679215,295.69627590204317L216.746520647958,297.15018094089265L219.4881740056278,296.9214058055941L222.3172864856643,297.07418309075865L225.14639896570083,297.32165206508137L227.7929880599285,296.8415518083149L230.61829796942735,297.2025290102015L233.35614875655946,297.4068071312804L236.18526123659595,296.9843097740032L238.92311202372804,297.31418634655296L241.75222450376452,297.5912653975364L244.58133698380107,297.34605739760383L247.31918777093313,297.6972711385939L250.14830025096964,297.20951279601786L252.88995360863944,297.23507635354L255.71906608867593,297.2646401839249L258.54817856871244,297.0395165847933L261.1035059700357,297.6865458498789L263.92881587953457,297.3864869376513L266.66666666666663,297.44534485061666L269.49577914670317,297.1925403710579L272.2336299338353,296.6118334213305L275.0627424138718,297.16674523035704L277.89185489390826,297.5272650495765L280.6297056810404,297.5633464497014L283.45881816107686,297.38324607329844L286.20047151874667,297.34310162740223L289.02958399878315,297.3697698885862L291.8586964788197,297.6344815360069L294.41402388014296,297.65304992804164L297.23933378964176,297.556424701281L299.9771845767739,297.38810106505446L302.80629705681037,297.6263324121595L305.5441478439425,297.5778627377844L308.373260323979,297.5295220487716L311.2023728040155,297.85383501186647L313.9402235911476,297.76947987575176L316.7693360711841,297.74921387984773L319.5109894288539,297.56699134651564L322.3401019088904,297.82071497493587L325.16921438892695,298.14354183097737L327.7245417902502,297.1700682172058L330.549851699749,298.03770681031165L333.28770248688113,298.2672416333507L336.1168149669176,297.98369051762717L338.85466575404973,298.2621269883002L341.6837782340862,298.11866584193746L344.51289071412276,297.96070182639033L347.2507415012549,297.96630989888416L350.07985398129136,298.0751062824752L352.8215073389611,298.37321998269977L355.65061981899765,297.73553600507995L358.47973229903414,298.4753746527552L361.12632139326183,298.2765431250644L363.95163130276063,298.12172088142705L366.68948208989275,298.4466194927948L369.51859456992923,298.2885421678466L372.25644535706135,298.426313177855L375.0855578370979,298.4778061817337L377.9146703171344,298.3823383167037L380.6525211042665,298.38324007428355L383.481633584303,298.2736911472246L386.2232869419728,298.3983786055019L389.0523994220093,298.02728432623417L391.88151190204576,298.3783783783784L394.4368393033691,298.03003918154116L397.2621492128679,298.5335265037989L400,298.52018377658703L400,300L397.2621492128679,300L394.4368393033691,300L391.88151190204576,300L389.0523994220093,300L386.2232869419728,300L383.481633584303,300L380.6525211042665,300L377.9146703171344,300L375.0855578370979,300L372.25644535706135,300L369.51859456992923,300L366.68948208989275,300L363.95163130276063,300L361.12632139326183,300L358.47973229903414,300L355.65061981899765,300L352.8215073389611,300L350.07985398129136,300L347.2507415012549,300L344.51289071412276,300L341.6837782340862,300L338.85466575404973,300L336.1168149669176,300L333.28770248688113,300L330.549851699749,300L327.7245417902502,300L325.16921438892695,300L322.3401019088904,300L319.5109894288539,300L316.7693360711841,300L313.9402235911476,300L311.2023728040155,300L308.373260323979,300L305.5441478439425,300L302.80629705681037,300L299.9771845767739,300L297.23933378964176,300L294.41402388014296,300L291.8586964788197,300L289.02958399878315,300L286.20047151874667,300L283.45881816107686,300L280.6297056810404,300L277.89185489390826,300L275.0627424138718,300L272.2336299338353,300L269.49577914670317,300L266.66666666666663,300L263.92881587953457,300L261.1035059700357,300L258.54817856871244,300L255.71906608867593,300L252.88995360863944,300L250.14830025096964,300L247.31918777093313,300L244.58133698380107,300L241.75222450376452,300L238.92311202372804,300L236.18526123659595,300L233.35614875655946,300L230.61829796942735,300L227.7929880599285,300L225.14639896570083,300L222.3172864856643,300L219.4881740056278,300L216.746520647958,300L213.9174081679215,300L211.1795573807894,300L208.3504449007529,300L205.5213324207164,300L202.78348163358427,300L199.95436915354782,300L197.2165183664157,300L194.3912084569169,300L191.83588105559357,300L189.00676857555706,300L186.17765609552058,300L183.4360027378508,300L180.60689025781429,300L177.86903947068217,300L175.03992699064568,300L172.21081451060917,300L169.47296372347708,300L166.64385124344057,300L163.90600045630845,300L161.08069054680965,300L158.52536314548635,300L155.69625066544987,300L152.86713818541332,300L150.12548482774355,300L147.29637234770706,300L144.55852156057495,300L141.72940908053843,300L138.90029660050195,300L136.16244581336986,300L133.33333333333331,300L130.59548254620123,300L127.77017263670241,300L125.21484523537912,300L122.38573275534262,300L119.55662027530612,300L116.81496691763633,300L113.98585443759981,300L111.24800365046772,300L108.41889117043122,300L105.5897786903947,300L102.8519279032626,300L100.0228154232261,300L97.284964636094,300L94.45965472659518,300L91.81306563236748,300L88.98395315233097,300L86.15484067229447,300L83.41318731462468,300L80.58407483458818,300L77.84622404745608,300L75.01711156741958,300L72.18799908738308,300L69.45014830025097,300L66.62103582021447,300L63.88318503308237,300L61.057875123583536,300L58.502547722260246,300L55.673435242223746,300L52.84432276218723,300L50.10266940451745,300L47.27355692448095,300L44.535706137348846,300L41.70659365731234,300L38.87748117727584,300L36.139630390143736,300L33.31051791010724,300L30.572667122975133,300L27.74735721347631,300L25.192029812153017,300L22.36291733211651,300L19.533804852080006,300L16.79215149441022,300L13.963039014373715,300L11.225188227241615,300L8.39607574720511,300L0,300Z" fill="#f58518" opacity="0.7"/></g></g><path class="foreground" aria-hidden="true" d="" display="none"/></g></g><g class="mark-group role-legend" role="graphics-symbol" aria-roledescription="legend" aria-label="Symbol legend titled 'aposta|heathe' for fill color with 2 values: false, true"><g transform="translate(418,0)"><path class="background" aria-hidden="true" d="M0,0h74v40h-74Z" pointer-events="none"/><g><g class="mark-group role-legend-entry"><g transform="translate(0,16)"><path class="background" aria-hidden="true" d="M0,0h0v0h0Z" pointer-events="none"/><g><g class="mark-group role-scope" role="graphics-object" aria-roledescription="group mark container"><g transform="translate(0,0)"><path class="background" aria-hidden="true" d="M0,0h37.88996887207031v11h-37.88996887207031Z" pointer-events="none" opacity="1"/><g><g class="mark-symbol role-legend-symbol" pointer-events="none"><path transform="translate(6,6)" d="M5,0A5,5,0,1,1,-5,0A5,5,0,1,1,5,0" fill="#4c78a8" stroke-width="1.5" opacity="0.7"/></g><g class="mark-text role-legend-label" pointer-events="none"><text text-anchor="start" transform="translate(16,9)" font-family="sans-serif" font-size="10px" fill="#000" opacity="1">false</text></g></g><path class="foreground" aria-hidden="true" d="" pointer-events="none" display="none"/></g><g transform="translate(0,13)"><path class="background" aria-hidden="true" d="M0,0h37.88996887207031v11h-37.88996887207031Z" pointer-events="none" opacity="1"/><g><g class="mark-symbol role-legend-symbol" pointer-events="none"><path transform="translate(6,6)" d="M5,0A5,5,0,1,1,-5,0A5,5,0,1,1,5,0" fill="#f58518" stroke-width="1.5" opacity="0.7"/></g><g class="mark-text role-legend-label" pointer-events="none"><text text-anchor="start" transform="translate(16,9)" font-family="sans-serif" font-size="10px" fill="#000" opacity="1">true</text></g></g><path class="foreground" aria-hidden="true" d="" pointer-events="none" display="none"/></g></g></g><path class="foreground" aria-hidden="true" d="" pointer-events="none" display="none"/></g></g><g class="mark-text role-legend-title" pointer-events="none"><text text-anchor="start" transform="translate(0,9)" font-family="sans-serif" font-size="11px" font-weight="bold" fill="#000" opacity="1">aposta|heathe</text></g></g><path class="foreground" aria-hidden="true" d="" pointer-events="none" display="none"/></g></g><g class="mark-group role-title"><g transform="translate(200,-34)"><path class="background" aria-hidden="true" d="M0,0h0v0h0Z" pointer-events="none"/><g><g class="mark-text role-title-text" role="graphics-symbol" aria-roledescription="title" aria-label="Title text 'Apostate or Heathen Posts (Normaliazed)'" pointer-events="none"><text text-anchor="middle" transform="translate(0,20)" font-family="sans-serif" font-size="25px" font-weight="bold" fill="#000" opacity="1">Apostate or Heathen Posts (Normaliazed)</text></g></g><path class="foreground" aria-hidden="true" d="" pointer-events="none" display="none"/></g></g></g><path class="foreground" aria-hidden="true" d="" display="none"/></g></g></g></svg>