<svg xmlns="http://www.w3.org/2000/svg" xmlns:xlink="http://www.w3.org/1999/xlink" version="1.1" class="marks" width="553" height="376" viewBox="0 0 553 376"><rect width="553" height="376" fill="white"/><g fill="none" stroke-miterlimit="10" transform="translate(62,39)"><g class="mark-group role-frame root" role="graphics-object" aria-roledescription="group mark container"><g transform="translate(0,0)"><path class="background" aria-hidden="true" d="M0.5,0.5h400v300h-400Z" stroke="#ddd"/><g><g class="mark-group role-axis" role="graphics-symbol" aria-roledescription="axis" aria-label="X-axis for a time scale with values from Friday, 01 May 2009, 12:00:00 AM to Saturday, 01 May 2021, 12:00:00 AM"><g transform="translate(0.5,300.5)"><path class="background" aria-hidden="true" d="M0,0h0v0h0Z" pointer-events="none"/><g><g class="mark-rule role-axis-grid" pointer-events="none"><line transform="translate(22,-300)" x2="0" y2="300" stroke="#ddd" stroke-width="1" opacity="1"/><line transform="translate(56,-300)" x2="0" y2="300" stroke="#ddd" stroke-width="1" opacity="1"/><line transform="translate(89,-300)" x2="0" y2="300" stroke="#ddd" stroke-width="1" opacity="1"/><line transform="translate(122,-300)" x2="0" y2="300" stroke="#ddd" stroke-width="1" opacity="1"/><line transform="translate(156,-300)" x2="0" y2="300" stroke="#ddd" stroke-width="1" opacity="1"/><line transform="translate(189,-300)" x2="0" y2="300" stroke="#ddd" stroke-width="1" opacity="1"/><line transform="translate(222,-300)" x2="0" y2="300" stroke="#ddd" stroke-width="1" opacity="1"/><line transform="translate(256,-300)" x2="0" y2="300" stroke="#ddd" stroke-width="1" opacity="1"/><line transform="translate(289,-300)" x2="0" y2="300" stroke="#ddd" stroke-width="1" opacity="1"/><line transform="translate(322,-300)" x2="0" y2="300" stroke="#ddd" stroke-width="1" opacity="1"/><line transform="translate(356,-300)" x2="0" y2="300" stroke="#ddd" stroke-width="1" opacity="1"/><line transform="translate(389,-300)" x2="0" y2="300" stroke="#ddd" stroke-width="1" opacity="1"/></g></g><path class="foreground" aria-hidden="true" d="" pointer-events="none" display="none"/></g></g><g class="mark-group role-axis" role="graphics-symbol" aria-roledescription="axis" aria-label="Y-axis for a linear scale with values from 0 to 160,000"><g transform="translate(0.5,0.5)"><path class="background" aria-hidden="true" d="M0,0h0v0h0Z" pointer-events="none"/><g><g class="mark-rule role-axis-grid" pointer-events="none"><line transform="translate(0,300)" x2="400" y2="0" stroke="#ddd" stroke-width="1" opacity="1"/><line transform="translate(0,263)" x2="400" y2="0" stroke="#ddd" stroke-width="1" opacity="1"/><line transform="translate(0,225)" x2="400" y2="0" stroke="#ddd" stroke-width="1" opacity="1"/><line transform="translate(0,188)" x2="400" y2="0" stroke="#ddd" stroke-width="1" opacity="1"/><line transform="translate(0,150)" x2="400" y2="0" stroke="#ddd" stroke-width="1" opacity="1"/><line transform="translate(0,113)" x2="400" y2="0" stroke="#ddd" stroke-width="1" opacity="1"/><line transform="translate(0,75)" x2="400" y2="0" stroke="#ddd" stroke-width="1" opacity="1"/><line transform="translate(0,38)" x2="400" y2="0" stroke="#ddd" stroke-width="1" opacity="1"/><line transform="translate(0,0)" x2="400" y2="0" stroke="#ddd" stroke-width="1" opacity="1"/></g></g><path class="foreground" aria-hidden="true" d="" pointer-events="none" display="none"/></g></g><g class="mark-group role-axis" role="graphics-symbol" aria-roledescription="axis" aria-label="X-axis titled 'Date (Year-Month)' for a time scale with values from Friday, 01 May 2009, 12:00:00 AM to Saturday, 01 May 2021, 12:00:00 AM"><g transform="translate(0.5,300.5)"><path class="background" aria-hidden="true" d="M0,0h0v0h0Z" pointer-events="none"/><g><g class="mark-rule role-axis-tick" pointer-events="none"><line transform="translate(22,0)" x2="0" y2="5" stroke="#888" stroke-width="1" opacity="1"/><line transform="translate(56,0)" x2="0" y2="5" stroke="#888" stroke-width="1" opacity="1"/><line transform="translate(89,0)" x2="0" y2="5" stroke="#888" stroke-width="1" opacity="1"/><line transform="translate(122,0)" x2="0" y2="5" stroke="#888" stroke-width="1" opacity="1"/><line transform="translate(156,0)" x2="0" y2="5" stroke="#888" stroke-width="1" opacity="1"/><line transform="translate(189,0)" x2="0" y2="5" stroke="#888" stroke-width="1" opacity="1"/><line transform="translate(222,0)" x2="0" y2="5" stroke="#888" stroke-width="1" opacity="1"/><line transform="translate(256,0)" x2="0" y2="5" stroke="#888" stroke-width="1" opacity="1"/><line transform="translate(289,0)" x2="0" y2="5" stroke="#888" stroke-width="1" opacity="1"/><line transform="translate(322,0)" x2="0" y2="5" stroke="#888" stroke-width="1" opacity="1"/><line transform="translate(356,0)" x2="0" y2="5" stroke="#888" stroke-width="1" opacity="1"/><line transform="translate(389,0)" x2="0" y2="5" stroke="#888" stroke-width="1" opacity="1"/></g><g class="mark-text role-axis-label" pointer-events="none"><text text-anchor="middle" transform="translate(22.36291733211651,15)" font-family="sans-serif" font-size="10px" fill="#000" opacity="1">Jan 2010</text><text text-anchor="middle" transform="translate(55.673435242223746,15)" font-family="sans-serif" font-size="10px" fill="#000" opacity="0">Jan 2011</text><text text-anchor="middle" transform="translate(88.98395315233097,15)" font-family="sans-serif" font-size="10px" fill="#000" opacity="1">Jan 2012</text><text text-anchor="middle" transform="translate(122.38573275534262,15)" font-family="sans-serif" font-size="10px" fill="#000" opacity="0">Jan 2013</text><text text-anchor="middle" transform="translate(155.69625066544987,15)" font-family="sans-serif" font-size="10px" fill="#000" opacity="1">Jan 2014</text><text text-anchor="middle" transform="translate(189.00676857555706,15)" font-family="sans-serif" font-size="10px" fill="#000" opacity="0">Jan 2015</text><text text-anchor="middle" transform="translate(222.3172864856643,15)" font-family="sans-serif" font-size="10px" fill="#000" opacity="1">Jan 2016</text><text text-anchor="middle" transform="translate(255.71906608867593,15)" font-family="sans-serif" font-size="10px" fill="#000" opacity="0">Jan 2017</text><text text-anchor="middle" transform="translate(289.02958399878315,15)" font-family="sans-serif" font-size="10px" fill="#000" opacity="1">Jan 2018</text><text text-anchor="middle" transform="translate(322.3401019088904,15)" font-family="sans-serif" font-size="10px" fill="#000" opacity="0">Jan 2019</text><text text-anchor="middle" transform="translate(355.65061981899765,15)" font-family="sans-serif" font-size="10px" fill="#000" opacity="1">Jan 2020</text><text text-anchor="middle" transform="translate(389.0523994220093,15)" font-family="sans-serif" font-size="10px" fill="#000" opacity="0">Jan 2021</text></g><g class="mark-rule role-axis-domain" pointer-events="none"><line transform="translate(0,0)" x2="400" y2="0" stroke="#888" stroke-width="1" opacity="1"/></g><g class="mark-text role-axis-title" pointer-events="none"><text text-anchor="middle" transform="translate(200,30)" font-family="sans-serif" font-size="11px" font-weight="bold" fill="#000" opacity="1">Date (Year-Month)</text></g></g><path class="foreground" aria-hidden="true" d="" pointer-events="none" display="none"/></g></g><g class="mark-group role-axis" role="graphics-symbol" aria-roledescription="axis" aria-label="Y-axis titled 'Count' for a linear scale with values from 0 to 160,000"><g transform="translate(0.5,0.5)"><path class="background" aria-hidden="true" d="M0,0h0v0h0Z" pointer-events="none"/><g><g class="mark-rule role-axis-tick" pointer-events="none"><line transform="translate(0,300)" x2="-5" y2="0" stroke="#888" stroke-width="1" opacity="1"/><line transform="translate(0,263)" x2="-5" y2="0" stroke="#888" stroke-width="1" opacity="1"/><line transform="translate(0,225)" x2="-5" y2="0" stroke="#888" stroke-width="1" opacity="1"/><line transform="translate(0,188)" x2="-5" y2="0" stroke="#888" stroke-width="1" opacity="1"/><line transform="translate(0,150)" x2="-5" y2="0" stroke="#888" stroke-width="1" opacity="1"/><line transform="translate(0,113)" x2="-5" y2="0" stroke="#888" stroke-width="1" opacity="1"/><line transform="translate(0,75)" x2="-5" y2="0" stroke="#888" stroke-width="1" opacity="1"/><line transform="translate(0,38)" x2="-5" y2="0" stroke="#888" stroke-width="1" opacity="1"/><line transform="translate(0,0)" x2="-5" y2="0" stroke="#888" stroke-width="1" opacity="1"/></g><g class="mark-text role-axis-label" pointer-events="none"><text text-anchor="end" transform="translate(-7,303)" font-family="sans-serif" font-size="10px" fill="#000" opacity="1">0</text><text text-anchor="end" transform="translate(-7,265.5)" font-family="sans-serif" font-size="10px" fill="#000" opacity="1">20,000</text><text text-anchor="end" transform="translate(-7,228)" font-family="sans-serif" font-size="10px" fill="#000" opacity="1">40,000</text><text text-anchor="end" transform="translate(-7,190.5)" font-family="sans-serif" font-size="10px" fill="#000" opacity="1">60,000</text><text text-anchor="end" transform="translate(-7,153)" font-family="sans-serif" font-size="10px" fill="#000" opacity="1">80,000</text><text text-anchor="end" transform="translate(-7,115.5)" font-family="sans-serif" font-size="10px" fill="#000" opacity="1">100,000</text><text text-anchor="end" transform="translate(-7,78)" font-family="sans-serif" font-size="10px" fill="#000" opacity="1">120,000</text><text text-anchor="end" transform="translate(-7,40.5)" font-family="sans-serif" font-size="10px" fill="#000" opacity="1">140,000</text><text text-anchor="end" transform="translate(-7,3)" font-family="sans-serif" font-size="10px" fill="#000" opacity="1">160,000</text></g><g class="mark-rule role-axis-domain" pointer-events="none"><line transform="translate(0,300)" x2="0" y2="-300" stroke="#888" stroke-width="1" opacity="1"/></g><g class="mark-text role-axis-title" pointer-events="none"><text text-anchor="middle" transform="translate(-45.629913330078125,150) rotate(-90) translate(0,-2)" font-family="sans-serif" font-size="11px" font-weight="bold" fill="#000" opacity="1">Count</text></g></g><path class="foreground" aria-hidden="true" d="" pointer-events="none" display="none"/></g></g><g class="mark-group role-scope pathgroup" role="graphics-object" aria-roledescription="group mark container"><g transform="translate(0,0)"><path class="background" aria-hidden="true" d="M0,0h400v300h-400Z"/><g><g class="mark-area role-mark marks" role="graphics-symbol" aria-roledescription="area mark container"><path d="M0,299.9625L8.39607574720511,299.9925L11.225188227241615,299.99062499999997L13.963039014373715,299.88375L16.79215149441022,299.38125L19.533804852080006,299.25L22.36291733211651,298.426875L25.192029812153017,298.46625L27.74735721347631,298.280625L30.572667122975133,298.90875L33.31051791010724,296.533125L36.139630390143736,296.731875L38.87748117727584,293.0025L41.70659365731234,288.234375L44.535706137348846,291.350625L47.27355692448095,291.33375L50.10266940451745,292.96125L52.84432276218723,290.15999999999997L55.673435242223746,292.063125L58.502547722260246,290.0025L61.057875123583536,291.60562500000003L63.88318503308237,290.900625L66.62103582021447,288.63L69.45014830025097,289.26187500000003L72.18799908738308,289.52625L75.01711156741958,289.4175L77.84622404745608,286.08187499999997L80.58407483458818,287.323125L83.41318731462468,285.665625L86.15484067229447,284.015625L88.98395315233097,286.12874999999997L91.81306563236748,280.63875L94.45965472659518,282.073125L97.284964636094,282.94124999999997L100.0228154232261,275.17125L102.8519279032626,267.253125L105.5897786903947,272.030625L108.41889117043122,268.700625L111.24800365046772,265.0125L113.98585443759981,274.531875L116.81496691763633,273.36375L119.55662027530612,266.56125L122.38573275534262,266.810625L125.21484523537912,265.16625L127.77017263670241,261.37687500000004L130.59548254620123,259.801875L133.33333333333331,258.315L136.16244581336986,255.031875L138.90029660050195,245.78625L141.72940908053843,246.76500000000001L144.55852156057495,236.15249999999997L147.29637234770706,235.61062499999997L150.12548482774355,235.21687500000002L152.86713818541332,233.37187500000002L155.69625066544987,228.958125L158.52536314548635,221.165625L161.08069054680965,220.51125L163.90600045630845,229.99124999999998L166.64385124344057,216.05999999999997L169.47296372347708,218.709375L172.21081451060917,218.803125L175.03992699064568,225.84L177.86903947068217,208.28812499999998L180.60689025781429,215.45250000000001L183.4360027378508,216.748125L186.17765609552058,207.395625L189.00676857555706,192.755625L191.83588105559357,193.044375L194.3912084569169,169.0425L197.2165183664157,169.516875L199.95436915354782,177.15375L202.78348163358427,170.338125L205.5213324207164,171.665625L208.3504449007529,181.05937500000002L211.1795573807894,159.95437499999997L213.9174081679215,144.7275L216.746520647958,175.65L219.4881740056278,168.811875L222.3172864856643,161.76937500000003L225.14639896570083,165.16875000000002L227.7929880599285,150.223125L230.61829796942735,128.885625L233.35614875655946,147.29250000000002L236.18526123659595,143.69250000000002L238.92311202372804,132.871875L241.75222450376452,132.5625L244.58133698380107,111.57749999999999L247.31918777093313,160.51875L250.14830025096964,150.83249999999998L252.88995360863944,105.51L255.71906608867593,156.463125L258.54817856871244,127.47749999999999L261.1035059700357,96.48937500000001L263.92881587953457,120.28500000000001L266.66666666666663,131.5575L269.49577914670317,105.05062500000001L272.2336299338353,72.71999999999998L275.0627424138718,73.273125L277.89185489390826,69.10687500000002L280.6297056810404,99.39187500000001L283.45881816107686,120.93749999999999L286.20047151874667,74.525625L289.02958399878315,91.48687500000001L291.8586964788197,56.739374999999995L294.41402388014296,45.946875L297.23933378964176,90.98249999999999L299.9771845767739,80.116875L302.80629705681037,72.03L305.5441478439425,58.709999999999994L308.373260323979,11.973750000000006L311.2023728040155,24.275625000000012L313.9402235911476,73.03500000000001L316.7693360711841,62.083124999999995L319.5109894288539,30.888749999999987L322.3401019088904,60.98812500000002L325.16921438892695,52.75499999999999L327.7245417902502,31.46437500000001L330.549851699749,80.70937500000002L333.28770248688113,109.11937499999999L336.1168149669176,73.75125000000001L338.85466575404973,86.05312499999998L341.6837782340862,102.965625L344.51289071412276,80.715L347.2507415012549,135.151875L350.07985398129136,109.47L352.8215073389611,98.413125L355.65061981899765,116.92687500000001L358.47973229903414,98.18812500000001L361.12632139326183,81.65249999999999L363.95163130276063,139.18125L366.68948208989275,154.79250000000002L369.51859456992923,136.32375L372.25644535706135,141.29625000000001L375.0855578370979,154.77375L377.9146703171344,130.310625L380.6525211042665,145.524375L383.481633584303,140.664375L386.2232869419728,148.27875L389.0523994220093,166.269375L391.88151190204576,131.071875L394.4368393033691,93.26999999999998L397.2621492128679,130.46062500000002L400,128.188125L400,290.521875L397.2621492128679,290.925L394.4368393033691,287.623125L391.88151190204576,290.011875L389.0523994220093,291.85125L386.2232869419728,291.57L383.481633584303,290.731875L380.6525211042665,290.244375L377.9146703171344,290.20500000000004L375.0855578370979,291.3675L372.25644535706135,290.638125L369.51859456992923,289.90125L366.68948208989275,290.58375L363.95163130276063,290.235L361.12632139326183,284.934375L358.47973229903414,284.65125L355.65061981899765,288.223125L352.8215073389611,287.923125L350.07985398129136,286.05L347.2507415012549,289.65375L344.51289071412276,284.731875L341.6837782340862,287.61L338.85466575404973,287.30062499999997L336.1168149669176,286.734375L333.28770248688113,288.48L330.549851699749,287.38875L327.7245417902502,282.133125L325.16921438892695,285.56625L322.3401019088904,284.221875L319.5109894288539,283.580625L316.7693360711841,285.495L313.9402235911476,287.5875L311.2023728040155,282.088125L308.373260323979,282.883125L305.5441478439425,284.191875L302.80629705681037,287.664375L299.9771845767739,286.89937499999996L297.23933378964176,287.971875L294.41402388014296,284.671875L291.8586964788197,283.966875L289.02958399878315,288.549375L286.20047151874667,286.5525L283.45881816107686,289.385625L280.6297056810404,289.32L277.89185489390826,286.08L275.0627424138718,287.44875L272.2336299338353,287.251875L269.49577914670317,289.10625L266.66666666666663,290.023125L263.92881587953457,289.993125L261.1035059700357,289.149375L258.54817856871244,290.161875L255.71906608867593,292.215L252.88995360863944,288.249375L250.14830025096964,291.350625L247.31918777093313,292.25625L244.58133698380107,289.404375L241.75222450376452,290.638125L238.92311202372804,290.776875L236.18526123659595,292.215L233.35614875655946,291.384375L230.61829796942735,291.5325L227.7929880599285,292.18874999999997L225.14639896570083,292.888125L222.3172864856643,292.30125L219.4881740056278,292.7475L216.746520647958,293.371875L213.9174081679215,289.32375L211.1795573807894,291.46500000000003L208.3504449007529,292.996875L205.5213324207164,292.55625L202.78348163358427,292.6125L199.95436915354782,292.8525L197.2165183664157,293.31937500000004L194.3912084569169,292.693125L191.83588105559357,293.743125L189.00676857555706,294.07125L186.17765609552058,294.309375L183.4360027378508,295.21875L180.60689025781429,294.9825L177.86903947068217,293.94374999999997L175.03992699064568,295.888125L172.21081451060917,295.60125L169.47296372347708,295.423125L166.64385124344057,294.628125L163.90600045630845,296.145L161.08069054680965,295.423125L158.52536314548635,295.995L155.69625066544987,296.085L152.86713818541332,296.296875L150.12548482774355,296.38125L147.29637234770706,296.484375L144.55852156057495,296.175L141.72940908053843,296.94L138.90029660050195,296.98875L136.16244581336986,297.493125L133.33333333333331,297.67312499999997L130.59548254620123,297.706875L127.77017263670241,297.7725L125.21484523537912,297.74812499999996L122.38573275534262,298.0275L119.55662027530612,298.265625L116.81496691763633,298.51875L113.98585443759981,298.558125L111.24800365046772,298.03125L108.41889117043122,298.23L105.5897786903947,298.359375L102.8519279032626,298.179375L100.0228154232261,298.580625L97.284964636094,298.95937499999997L94.45965472659518,298.708125L91.81306563236748,298.64625L88.98395315233097,298.95187500000003L86.15484067229447,298.935L83.41318731462468,299.09625L80.58407483458818,299.13937500000003L77.84622404745608,298.98375L75.01711156741958,299.225625L72.18799908738308,299.13937500000003L69.45014830025097,299.205L66.62103582021447,299.203125L63.88318503308237,299.37937500000004L61.057875123583536,299.29125L58.502547722260246,299.229375L55.673435242223746,299.383125L52.84432276218723,299.31375L50.10266940451745,299.390625L47.27355692448095,299.33625L44.535706137348846,299.375625L41.70659365731234,299.28000000000003L38.87748117727584,299.4975L36.139630390143736,299.745L33.31051791010724,299.7375L30.572667122975133,299.870625L27.74735721347631,299.84625L25.192029812153017,299.893125L22.36291733211651,299.870625L19.533804852080006,299.923125L16.79215149441022,299.896875L13.963039014373715,299.9625L11.225188227241615,299.9925L8.39607574720511,299.99625000000003L0,299.99062499999997Z" fill="#4c78a8" opacity="0.7"/></g></g><path class="foreground" aria-hidden="true" d="" display="none"/></g><g transform="translate(0,0)"><path class="background" aria-hidden="true" d="M0,0h400v300h-400Z"/><g><g class="mark-area role-mark marks" role="graphics-symbol" aria-roledescription="area mark container"><path d="M0,299.99062499999997L8.39607574720511,299.99625000000003L11.225188227241615,299.9925L13.963039014373715,299.9625L16.79215149441022,299.896875L19.533804852080006,299.923125L22.36291733211651,299.870625L25.192029812153017,299.893125L27.74735721347631,299.84625L30.572667122975133,299.870625L33.31051791010724,299.7375L36.139630390143736,299.745L38.87748117727584,299.4975L41.70659365731234,299.28000000000003L44.535706137348846,299.375625L47.27355692448095,299.33625L50.10266940451745,299.390625L52.84432276218723,299.31375L55.673435242223746,299.383125L58.502547722260246,299.229375L61.057875123583536,299.29125L63.88318503308237,299.37937500000004L66.62103582021447,299.203125L69.45014830025097,299.205L72.18799908738308,299.13937500000003L75.01711156741958,299.225625L77.84622404745608,298.98375L80.58407483458818,299.13937500000003L83.41318731462468,299.09625L86.15484067229447,298.935L88.98395315233097,298.95187500000003L91.81306563236748,298.64625L94.45965472659518,298.708125L97.284964636094,298.95937499999997L100.0228154232261,298.580625L102.8519279032626,298.179375L105.5897786903947,298.359375L108.41889117043122,298.23L111.24800365046772,298.03125L113.98585443759981,298.558125L116.81496691763633,298.51875L119.55662027530612,298.265625L122.38573275534262,298.0275L125.21484523537912,297.74812499999996L127.77017263670241,297.7725L130.59548254620123,297.706875L133.33333333333331,297.67312499999997L136.16244581336986,297.493125L138.90029660050195,296.98875L141.72940908053843,296.94L144.55852156057495,296.175L147.29637234770706,296.484375L150.12548482774355,296.38125L152.86713818541332,296.296875L155.69625066544987,296.085L158.52536314548635,295.995L161.08069054680965,295.423125L163.90600045630845,296.145L166.64385124344057,294.628125L169.47296372347708,295.423125L172.21081451060917,295.60125L175.03992699064568,295.888125L177.86903947068217,293.94374999999997L180.60689025781429,294.9825L183.4360027378508,295.21875L186.17765609552058,294.309375L189.00676857555706,294.07125L191.83588105559357,293.743125L194.3912084569169,292.693125L197.2165183664157,293.31937500000004L199.95436915354782,292.8525L202.78348163358427,292.6125L205.5213324207164,292.55625L208.3504449007529,292.996875L211.1795573807894,291.46500000000003L213.9174081679215,289.32375L216.746520647958,293.371875L219.4881740056278,292.7475L222.3172864856643,292.30125L225.14639896570083,292.888125L227.7929880599285,292.18874999999997L230.61829796942735,291.5325L233.35614875655946,291.384375L236.18526123659595,292.215L238.92311202372804,290.776875L241.75222450376452,290.638125L244.58133698380107,289.404375L247.31918777093313,292.25625L250.14830025096964,291.350625L252.88995360863944,288.249375L255.71906608867593,292.215L258.54817856871244,290.161875L261.1035059700357,289.149375L263.92881587953457,289.993125L266.66666666666663,290.023125L269.49577914670317,289.10625L272.2336299338353,287.251875L275.0627424138718,287.44875L277.89185489390826,286.08L280.6297056810404,289.32L283.45881816107686,289.385625L286.20047151874667,286.5525L289.02958399878315,288.549375L291.8586964788197,283.966875L294.41402388014296,284.671875L297.23933378964176,287.971875L299.9771845767739,286.89937499999996L302.80629705681037,287.664375L305.5441478439425,284.191875L308.373260323979,282.883125L311.2023728040155,282.088125L313.9402235911476,287.5875L316.7693360711841,285.495L319.5109894288539,283.580625L322.3401019088904,284.221875L325.16921438892695,285.56625L327.7245417902502,282.133125L330.549851699749,287.38875L333.28770248688113,288.48L336.1168149669176,286.734375L338.85466575404973,287.30062499999997L341.6837782340862,287.61L344.51289071412276,284.731875L347.2507415012549,289.65375L350.07985398129136,286.05L352.8215073389611,287.923125L355.65061981899765,288.223125L358.47973229903414,284.65125L361.12632139326183,284.934375L363.95163130276063,290.235L366.68948208989275,290.58375L369.51859456992923,289.90125L372.25644535706135,290.638125L375.0855578370979,291.3675L377.9146703171344,290.20500000000004L380.6525211042665,290.244375L383.481633584303,290.731875L386.2232869419728,291.57L389.0523994220093,291.85125L391.88151190204576,290.011875L394.4368393033691,287.623125L397.2621492128679,290.925L400,290.521875L400,300L397.2621492128679,300L394.4368393033691,300L391.88151190204576,300L389.0523994220093,300L386.2232869419728,300L383.481633584303,300L380.6525211042665,300L377.9146703171344,300L375.0855578370979,300L372.25644535706135,300L369.51859456992923,300L366.68948208989275,300L363.95163130276063,300L361.12632139326183,300L358.47973229903414,300L355.65061981899765,300L352.8215073389611,300L350.07985398129136,300L347.2507415012549,300L344.51289071412276,300L341.6837782340862,300L338.85466575404973,300L336.1168149669176,300L333.28770248688113,300L330.549851699749,300L327.7245417902502,300L325.16921438892695,300L322.3401019088904,300L319.5109894288539,300L316.7693360711841,300L313.9402235911476,300L311.2023728040155,300L308.373260323979,300L305.5441478439425,300L302.80629705681037,300L299.9771845767739,300L297.23933378964176,300L294.41402388014296,300L291.8586964788197,300L289.02958399878315,300L286.20047151874667,300L283.45881816107686,300L280.6297056810404,300L277.89185489390826,300L275.0627424138718,300L272.2336299338353,300L269.49577914670317,300L266.66666666666663,300L263.92881587953457,300L261.1035059700357,300L258.54817856871244,300L255.71906608867593,300L252.88995360863944,300L250.14830025096964,300L247.31918777093313,300L244.58133698380107,300L241.75222450376452,300L238.92311202372804,300L236.18526123659595,300L233.35614875655946,300L230.61829796942735,300L227.7929880599285,300L225.14639896570083,300L222.3172864856643,300L219.4881740056278,300L216.746520647958,300L213.9174081679215,300L211.1795573807894,300L208.3504449007529,300L205.5213324207164,300L202.78348163358427,300L199.95436915354782,300L197.2165183664157,300L194.3912084569169,300L191.83588105559357,300L189.00676857555706,300L186.17765609552058,300L183.4360027378508,300L180.60689025781429,300L177.86903947068217,300L175.03992699064568,300L172.21081451060917,300L169.47296372347708,300L166.64385124344057,300L163.90600045630845,300L161.08069054680965,300L158.52536314548635,300L155.69625066544987,300L152.86713818541332,300L150.12548482774355,300L147.29637234770706,300L144.55852156057495,300L141.72940908053843,300L138.90029660050195,300L136.16244581336986,300L133.33333333333331,300L130.59548254620123,300L127.77017263670241,300L125.21484523537912,300L122.38573275534262,300L119.55662027530612,300L116.81496691763633,300L113.98585443759981,300L111.24800365046772,300L108.41889117043122,300L105.5897786903947,300L102.8519279032626,300L100.0228154232261,300L97.284964636094,300L94.45965472659518,300L91.81306563236748,300L88.98395315233097,300L86.15484067229447,300L83.41318731462468,300L80.58407483458818,300L77.84622404745608,300L75.01711156741958,300L72.18799908738308,300L69.45014830025097,300L66.62103582021447,300L63.88318503308237,300L61.057875123583536,300L58.502547722260246,300L55.673435242223746,300L52.84432276218723,300L50.10266940451745,300L47.27355692448095,300L44.535706137348846,300L41.70659365731234,300L38.87748117727584,300L36.139630390143736,300L33.31051791010724,300L30.572667122975133,300L27.74735721347631,300L25.192029812153017,300L22.36291733211651,300L19.533804852080006,300L16.79215149441022,300L13.963039014373715,300L11.225188227241615,300L8.39607574720511,300L0,300Z" fill="#f58518" opacity="0.7"/></g></g><path class="foreground" aria-hidden="true" d="" display="none"/></g></g><g class="mark-group role-legend" role="graphics-symbol" aria-roledescription="legend" aria-label="Symbol legend titled 'comment' for fill color with 2 values: comment, submission"><g transform="translate(418,0)"><path class="background" aria-hidden="true" d="M0,0h68v40h-68Z" pointer-events="none"/><g><g class="mark-group role-legend-entry"><g transform="translate(0,16)"><path class="background" aria-hidden="true" d="M0,0h0v0h0Z" pointer-events="none"/><g><g class="mark-group role-scope" role="graphics-object" aria-roledescription="group mark container"><g transform="translate(0,0)"><path class="background" aria-hidden="true" d="M0,0h67.679931640625v11h-67.679931640625Z" pointer-events="none" opacity="1"/><g><g class="mark-symbol role-legend-symbol" pointer-events="none"><path transform="translate(6,6)" d="M5,0A5,5,0,1,1,-5,0A5,5,0,1,1,5,0" fill="#4c78a8" stroke-width="1.5" opacity="0.7"/></g><g class="mark-text role-legend-label" pointer-events="none"><text text-anchor="start" transform="translate(16,9)" font-family="sans-serif" font-size="10px" fill="#000" opacity="1">comment</text></g></g><path class="foreground" aria-hidden="true" d="" pointer-events="none" display="none"/></g><g transform="translate(0,13)"><path class="background" aria-hidden="true" d="M0,0h67.679931640625v11h-67.679931640625Z" pointer-events="none" opacity="1"/><g><g class="mark-symbol role-legend-symbol" pointer-events="none"><path transform="translate(6,6)" d="M5,0A5,5,0,1,1,-5,0A5,5,0,1,1,5,0" fill="#f58518" stroke-width="1.5" opacity="0.7"/></g><g class="mark-text role-legend-label" pointer-events="none"><text text-anchor="start" transform="translate(16,9)" font-family="sans-serif" font-size="10px" fill="#000" opacity="1">submission</text></g></g><path class="foreground" aria-hidden="true" d="" pointer-events="none" display="none"/></g></g></g><path class="foreground" aria-hidden="true" d="" pointer-events="none" display="none"/></g></g><g class="mark-text role-legend-title" pointer-events="none"><text text-anchor="start" transform="translate(0,9)" font-family="sans-serif" font-size="11px" font-weight="bold" fill="#000" opacity="1">comment</text></g></g><path class="foreground" aria-hidden="true" d="" pointer-events="none" display="none"/></g></g><g class="mark-group role-title"><g transform="translate(200,-34)"><path class="background" aria-hidden="true" d="M0,0h0v0h0Z" pointer-events="none"/><g><g class="mark-text role-title-text" role="graphics-symbol" aria-roledescription="title" aria-label="Title text 'Total Posts'" pointer-events="none"><text text-anchor="middle" transform="translate(0,20)" font-family="sans-serif" font-size="25px" font-weight="bold" fill="#000" opacity="1">Total Posts</text></g></g><path class="foreground" aria-hidden="true" d="" pointer-events="none" display="none"/></g></g></g><path class="foreground" aria-hidden="true" d="" display="none"/></g></g></g></svg>